<svg xmlns="http://www.w3.org/2000/svg" width="31" height="31" viewBox="0 0 31 31">
  <path id="Vector" d="M.439,13.415A1.5,1.5,0,0,1,0,12.354V1.5A1.5,1.5,0,0,1,1.5,0H12.354a1.5,1.5,0,0,1,1.5,1.5V12.354a1.5,1.5,0,0,1-1.5,1.5H1.5A1.5,1.5,0,0,1,.439,13.415ZM3,10.854h7.854V3H3ZM30.561.439A1.5,1.5,0,0,1,31,1.5V12.354a1.5,1.5,0,0,1-1.5,1.5H18.646a1.5,1.5,0,0,1-1.5-1.5V1.5a1.5,1.5,0,0,1,1.5-1.5H29.5A1.5,1.5,0,0,1,30.561.439ZM28,3H20.146v7.854H28ZM.439,30.561A1.5,1.5,0,0,1,0,29.5V18.646a1.5,1.5,0,0,1,1.5-1.5H12.354a1.5,1.5,0,0,1,1.5,1.5V29.5a1.5,1.5,0,0,1-1.5,1.5H1.5A1.5,1.5,0,0,1,.439,30.561ZM3,28h7.854V20.146H3Zm27.074-5.313a1.5,1.5,0,0,1-.574,2.886H25.573V29.5a1.5,1.5,0,1,1-3,0V25.573H18.645a1.5,1.5,0,1,1,0-3h3.928V18.645a1.5,1.5,0,1,1,3,0v3.928H29.5A1.5,1.5,0,0,1,30.074,22.687Z" fill="#6562f9"/>
</svg>
