<svg xmlns="http://www.w3.org/2000/svg" width="17.505" height="17.506" viewBox="0 0 17.505 17.506">
  <path id="Vector" d="M8.75,4.375A4.375,4.375,0,1,1,4.375,0,4.375,4.375,0,0,1,8.75,4.375ZM4.012,5.611a.875.875,0,1,0-.875.875A.875.875,0,0,0,4.012,5.611Z" transform="translate(0 8.756)" fill="#b2b1ff"/>
  <path id="Vector-2" data-name="Vector" d="M10.459,2.734A.875.875,0,0,1,9.222,3.971L8.6,3.354,7.367,4.591,9.222,6.447A.875.875,0,1,1,7.984,7.684L6.13,5.829,1.237,10.721A4.392,4.392,0,0,0,0,9.483L9.222.262,9.233.251A.875.875,0,0,1,10.459,1.5l-.617.617Z" transform="translate(6.785 0)" fill="#6563ff"/>
</svg>
