<svg xmlns="http://www.w3.org/2000/svg" width="19" height="17.432" viewBox="0 0 19 17.432">
  <g id="Group" transform="translate(-21 -24)">
    <path id="Vector" d="M18.49,13.136a2.979,2.979,0,0,1,.182,3.01,2.81,2.81,0,0,1-2.542,1.286H2.871A2.81,2.81,0,0,1,.33,16.142a2.99,2.99,0,0,1,.18-3.021L7.193,1.609A2.773,2.773,0,0,1,9.5,0a2.772,2.772,0,0,1,2.307,1.609Zm-.471.272L11.336,1.883A2.26,2.26,0,0,0,9.5.545,2.262,2.262,0,0,0,7.664,1.883L.981,13.393A2.465,2.465,0,0,0,.8,15.87a2.284,2.284,0,0,0,2.069,1.017H16.129A2.285,2.285,0,0,0,18.2,15.873a2.454,2.454,0,0,0-.182-2.465Z" transform="translate(21 24)" fill="#6563ff"/>
    <path id="Vector-2" data-name="Vector" d="M.932,5.912a.272.272,0,0,1-.08-.193V.272a.272.272,0,1,1,.545,0V5.72a.272.272,0,0,1-.465.193ZM2.179,8.443A1.089,1.089,0,1,1,1.089,7.354,1.091,1.091,0,0,1,2.179,8.443Zm-.72.377a.545.545,0,0,0-.37-.922.545.545,0,0,0,0,1.089A.545.545,0,0,0,1.459,8.82Z" transform="translate(29.376 28.903)" fill="#6563ff"/>
  </g>
</svg>
