<svg xmlns="http://www.w3.org/2000/svg" width="20" height="24.686" viewBox="0 0 20 24.686">
  <g id="Layer_3" data-name="Layer 3" transform="translate(-20 -19)">
    <path id="Vector" d="M14.91.562a1.93,1.93,0,0,1,.568,1.359V18.231a1.93,1.93,0,0,1-1.93,1.93H1.926A1.93,1.93,0,0,1,0,18.231V1.921A1.93,1.93,0,0,1,1.926,0H13.549A1.93,1.93,0,0,1,14.91.562ZM14.655,1.93A1.107,1.107,0,0,0,13.549.823H1.926a1.107,1.107,0,0,0-1.1,1.1V18.231a1.107,1.107,0,0,0,1.1,1.107H13.549a1.107,1.107,0,0,0,1.107-1.1Z" transform="translate(20 23.526)" fill="#6562f9"/>
    <path id="Vector-2" data-name="Vector" d="M14.932.551a1.88,1.88,0,0,1,.551,1.33v16.4A1.884,1.884,0,0,1,13.6,20.16H12.269a.411.411,0,0,1,0-.823H13.6a1.062,1.062,0,0,0,1.053-1.053V1.88A1.057,1.057,0,0,0,13.6.823H1.884A1.062,1.062,0,0,0,.823,1.88V3.341a.411.411,0,0,1-.823,0V1.88A1.884,1.884,0,0,1,1.884,0H13.6a1.88,1.88,0,0,1,1.33.551Z" transform="translate(24.518 19)" fill="#6562f9"/>
  </g>
</svg>
