<svg width="15" height="15" viewBox="0 0 15 15" fill="none" xmlns="http://www.w3.org/2000/svg">
<path d="M12.3072 5.15829L12.1197 10.8334C12.1037 11.3195 11.899 11.7802 11.5489 12.1177C11.1988 12.4553 10.731 12.6431 10.2447 12.6414H6.68219C6.1962 12.6432 5.72863 12.4556 5.37861 12.1184C5.02859 11.7812 4.82364 11.321 4.80719 10.8353L4.61969 5.15829C4.61558 5.03397 4.66104 4.91311 4.74604 4.8223C4.83105 4.73149 4.94865 4.67817 5.07297 4.67407C5.19729 4.66996 5.31815 4.71542 5.40896 4.80042C5.49976 4.88543 5.55308 5.00303 5.55719 5.12735L5.74469 10.8039C5.75402 11.0462 5.8569 11.2755 6.03172 11.4436C6.20653 11.6117 6.43968 11.7055 6.68219 11.7053H10.2447C10.4875 11.7055 10.7209 11.6114 10.8958 11.4429C11.0707 11.2745 11.1733 11.0447 11.1822 10.802L11.3697 5.12735C11.3738 5.00303 11.4271 4.88543 11.5179 4.80042C11.6087 4.71542 11.7296 4.66996 11.8539 4.67407C11.9782 4.67817 12.0958 4.73149 12.1808 4.8223C12.2658 4.91311 12.3113 5.03397 12.3072 5.15829ZM12.9273 3.26969C12.9273 3.39401 12.878 3.51324 12.79 3.60115C12.7021 3.68906 12.5829 3.73844 12.4586 3.73844H4.46875C4.34443 3.73844 4.2252 3.68906 4.13729 3.60115C4.04939 3.51324 4 3.39401 4 3.26969C4 3.14537 4.04939 3.02614 4.13729 2.93824C4.2252 2.85033 4.34443 2.80094 4.46875 2.80094H5.92187C6.0704 2.80134 6.21376 2.74647 6.32405 2.647C6.43435 2.54754 6.5037 2.41059 6.51859 2.26282C6.55318 1.91617 6.71559 1.59482 6.97417 1.36137C7.23275 1.12792 7.56898 0.999098 7.91734 1H9.00953C9.3579 0.999098 9.69413 1.12792 9.9527 1.36137C10.2113 1.59482 10.3737 1.91617 10.4083 2.26282C10.4232 2.41059 10.4925 2.54754 10.6028 2.647C10.7131 2.74647 10.8565 2.80134 11.005 2.80094H12.4581C12.5824 2.80094 12.7017 2.85033 12.7896 2.93824C12.8775 3.02614 12.9269 3.14537 12.9269 3.26969H12.9273ZM7.33234 2.80094H9.59547C9.53387 2.6602 9.49359 2.51106 9.47594 2.35844C9.46432 2.2429 9.41024 2.13578 9.32416 2.05784C9.23807 1.9799 9.12612 1.93668 9.01 1.93657H7.91781C7.80169 1.93668 7.68974 1.9799 7.60366 2.05784C7.51757 2.13578 7.46349 2.2429 7.45187 2.35844C7.43408 2.51108 7.3941 2.66022 7.33234 2.80094ZM7.80437 9.90297V5.91157C7.80437 5.78725 7.75499 5.66802 7.66708 5.58011C7.57917 5.4922 7.45994 5.44282 7.33562 5.44282C7.2113 5.44282 7.09208 5.4922 7.00417 5.58011C6.91626 5.66802 6.86687 5.78725 6.86687 5.91157V9.90485C6.86687 10.0292 6.91626 10.1484 7.00417 10.2363C7.09208 10.3242 7.2113 10.3736 7.33562 10.3736C7.45994 10.3736 7.57917 10.3242 7.66708 10.2363C7.75499 10.1484 7.80437 10.0292 7.80437 9.90485V9.90297ZM10.0609 9.90297V5.91157C10.0609 5.78725 10.0116 5.66802 9.92364 5.58011C9.83574 5.4922 9.71651 5.44282 9.59219 5.44282C9.46787 5.44282 9.34864 5.4922 9.26073 5.58011C9.17282 5.66802 9.12344 5.78725 9.12344 5.91157V9.90485C9.12344 10.0292 9.17282 10.1484 9.26073 10.2363C9.34864 10.3242 9.46787 10.3736 9.59219 10.3736C9.71651 10.3736 9.83574 10.3242 9.92364 10.2363C10.0116 10.1484 10.0609 10.0292 10.0609 9.90485V9.90297Z" fill="#78778B"/>
</svg>
