<svg xmlns="http://www.w3.org/2000/svg" width="30" height="30" viewBox="0 0 30 30">
  <path id="Vector" d="M28.954,15.332a3.571,3.571,0,0,1-2.525,6.1H24.286v5.714A2.866,2.866,0,0,1,21.429,30H16V27.857a3.857,3.857,0,1,0-7.714,0V30H2.857A2.866,2.866,0,0,1,0,27.143V21.714H2.143a3.857,3.857,0,1,0,0-7.714H.014V8.571A2.853,2.853,0,0,1,2.857,5.714H8.571V3.571a3.571,3.571,0,0,1,7.143,0V5.714h5.714a2.866,2.866,0,0,1,2.857,2.857v5.714h2.143a3.571,3.571,0,0,1,2.525,1.046Z" transform="translate(0 0)" fill="#6562f9"/>
</svg>
