<svg width="15" height="15" viewBox="0 0 15 15" fill="none" xmlns="http://www.w3.org/2000/svg">
<path d="M13.9942 7.30959C13.9942 7.12625 13.8554 7.03458 13.5778 7.03458H5.02881C4.81928 7.03458 4.59534 7.09089 4.35699 7.20351C4.11865 7.31614 3.93138 7.45364 3.79518 7.61603L1.48507 10.4683C1.39078 10.594 1.34364 10.6988 1.34364 10.7826C1.34364 10.966 1.48245 11.0576 1.76008 11.0576H10.3091C10.5186 11.0576 10.7439 11 10.9848 10.8848C11.2258 10.7695 11.4117 10.6307 11.5427 10.4683L13.8528 7.61603C13.9471 7.50079 13.9942 7.39864 13.9942 7.30958L13.9942 7.30959ZM5.02881 6.02882H11.0634V4.77161C11.0634 4.56208 10.99 4.38397 10.8434 4.2373C10.6967 4.09063 10.5186 4.01729 10.3091 4.01729H5.78314C5.5736 4.01729 5.39549 3.94396 5.24882 3.79728C5.10215 3.65061 5.02881 3.4725 5.02881 3.26297V2.76009C5.02881 2.55055 4.95547 2.37245 4.8088 2.22577C4.66212 2.0791 4.48402 2.00576 4.2745 2.00577H1.76008C1.55055 2.00577 1.37245 2.07911 1.22577 2.22578C1.0791 2.37246 1.00576 2.55056 1.00576 2.7601V9.46255L3.01729 6.98744C3.24777 6.70981 3.55159 6.48063 3.92875 6.2999C4.30592 6.11918 4.6726 6.02882 5.02881 6.02882ZM15 7.30959C15 7.63437 14.8795 7.94867 14.6386 8.25249L12.3206 11.1048C12.0953 11.3824 11.7915 11.6116 11.4091 11.7923C11.0267 11.973 10.66 12.0634 10.3091 12.0634H1.76008C1.27816 12.0634 0.864328 11.8905 0.518597 11.5448C0.172866 11.1991 0 10.7852 0 10.3033V2.76009C0 2.27816 0.172866 1.86433 0.518597 1.5186C0.864328 1.17287 1.27816 1 1.76008 1H4.2745C4.75642 1 5.17025 1.17287 5.51598 1.5186C5.86171 1.86433 6.03458 2.27816 6.03458 2.76009V3.01153H10.3091C10.791 3.01153 11.2048 3.18439 11.5506 3.53012C11.8963 3.87585 12.0692 4.28968 12.0692 4.77161V6.02882H13.5778C13.8607 6.02882 14.12 6.09299 14.3557 6.22132C14.5914 6.34966 14.7669 6.53432 14.8821 6.77528C14.9607 6.9429 15 7.121 15 7.30959Z" fill="#78778B"/>
</svg>
