<svg width="300" height="300" viewBox="0 0 300 300" fill="none" xmlns="http://www.w3.org/2000/svg">
<path fill-rule="evenodd" clip-rule="evenodd" d="M143.821 63.6923C265.889 60.4997 277.542 150.247 251.915 150.976C202.39 152.385 199.131 179.592 166.495 209.722C113.783 258.39 51.7528 261.169 55.4536 134.294C57.0093 81.0453 94.2907 64.9874 143.821 63.6923Z" fill="#F5F2FD"/>
<path fill-rule="evenodd" clip-rule="evenodd" d="M228.535 162.848C263.806 154.972 270.593 170.827 263.19 172.491C248.884 175.708 250.833 180.679 240.865 188.631C226.316 200.237 209.531 195.693 205.594 181.144C202.971 171.451 214.223 166.044 228.535 162.848Z" fill="#F5F2FD"/>
<path d="M216.358 198.436C214.028 197.762 211.94 197.105 209.772 196.201C206.951 195.092 204.47 193.242 201.716 192.002C199.093 190.742 196.229 190.236 193.497 189.29C192 188.838 190.383 188.014 188.713 187.524C189.309 187.356 189.93 187.174 190.544 187.012C190.926 186.924 191.315 186.816 191.678 186.721C192.222 186.993 192.779 187.238 193.348 187.453C194.601 187.953 195.886 188.42 197.201 188.742C200.227 189.437 203.307 189.974 206.443 190.111C209.749 190.175 212.886 189.233 216.037 189.089C217.082 189.054 218.154 189.182 219.136 189.213C219.304 189.205 219.52 189.06 219.5 188.877C219.358 188.629 219.013 188.554 218.781 188.385C216.547 187.017 214.096 186.036 211.464 185.875C208.164 185.615 204.903 186.316 201.792 185.57C200.969 185.417 200.157 185.209 199.361 184.949C200.522 184.403 201.689 183.837 202.815 183.213C204.712 182.15 206.463 180.794 208.26 179.543C210.872 177.669 213.64 176.004 216.02 173.786C216.371 173.488 217.224 172.637 216.282 172.73C215.065 173.081 213.869 173.548 212.636 173.827C205.335 174.873 198.596 178.339 193.499 183.67C192.78 184.435 192.09 185.232 191.516 186.114C191.476 186.164 191.442 186.219 191.418 186.278C190.233 186.596 189.079 186.946 187.899 187.309C187.855 187.316 187.83 187.329 187.786 187.336C187.347 187.47 186.908 187.605 186.487 187.746C186.8 187.259 187.134 186.713 187.397 186.43C188.217 185.435 189.002 184.957 189.954 184.118C192.268 182.032 194.298 179.45 195.414 176.464C196.446 173.779 197.58 171.46 199.213 169.071C199.991 166.762 191.038 175.61 190.609 176.013C188.582 177.869 187.268 180.412 186.196 182.972C185.689 184.318 185.282 185.852 184.67 186.963C184.403 187.554 183.984 188.048 183.669 188.6C183.668 188.631 183.671 188.662 183.679 188.692C182.743 189.007 181.812 189.368 180.887 189.71C180.862 189.723 180.844 189.717 180.818 189.73C180.391 189.89 179.963 190.051 179.547 190.238C179.567 190.179 179.569 190.113 179.59 190.054C179.673 189.723 179.798 189.403 179.96 189.102C181.85 186.031 184.258 183.316 186.3 180.341C187.379 178.775 188.454 177.163 189.154 175.378C189.666 174.078 189.916 172.401 190.459 171.31C191.13 170.088 191.935 168.956 192.752 167.85C192.864 167.646 193.666 166.821 193.873 166.342C193.977 165.563 192.896 166.357 192.588 166.471C189.791 168.104 187.316 170.355 185.328 172.996C184.004 174.61 182.723 176.282 181.832 178.2C180.197 181.492 179.551 185.567 178.046 188.661C177.597 189.56 177.048 190.405 176.41 191.18C176.275 191.332 176.314 191.456 176.425 191.494C175.234 192.008 174.074 192.554 172.906 193.12C173.204 191.305 174.305 189.437 175.328 187.676C176.534 185.625 177.587 183.476 178.622 181.322C179.308 179.818 179.945 178.275 180.281 176.649C180.717 174.133 180.774 171.64 181.354 169.306C181.546 168.551 181.795 167.812 182.099 167.095C182.214 166.76 182.455 166.424 182.372 166.065C182.291 165.883 182.04 165.95 181.9 166.056C181.554 166.399 181.328 166.872 181.012 167.248C180.016 168.512 178.687 170.323 177.672 171.823C175.587 174.981 173.687 178.379 172.803 182.129C172.146 184.921 172.153 188.01 171.601 190.618C171.42 191.68 171.25 192.767 170.748 193.74C170.735 193.779 170.689 193.851 170.696 193.832C170.655 193.95 170.527 194.082 170.566 194.206C170.571 194.215 170.578 194.224 170.586 194.231C170.595 194.238 170.605 194.242 170.615 194.244C169.055 195.049 167.53 195.932 166.016 196.841C166.036 196.605 166 196.351 166.063 196.108C166.102 195.637 166.318 194.895 166.517 194.259C167.048 192.724 167.855 191.349 168.457 189.728C169.76 186.741 169.847 183.442 170.142 180.26C170.428 176.744 170.142 173.273 170.11 169.779C170.124 169.19 170.169 168.602 170.244 168.018L170.265 167.959C170.398 167.368 170.501 166.771 170.574 166.17C170.619 165.921 170.323 165.819 170.151 165.958C169.898 166.091 169.932 166.411 169.869 166.654C169.774 167.106 169.724 167.551 169.673 167.996C169.29 169.759 168.698 171.649 168.124 173.368C167.039 176.144 165.548 178.78 164.844 181.711C164.223 184.163 164.406 186.739 164.78 189.183C165.021 190.457 165.316 191.397 165.226 192.732C165.226 193.988 165.137 195.082 164.843 196.17C164.705 196.629 164.536 197.056 164.361 197.502C164.352 197.53 164.349 197.559 164.354 197.587C164.359 197.616 164.37 197.643 164.387 197.666C164.407 197.683 164.431 197.697 164.456 197.706C164.481 197.715 164.508 197.718 164.535 197.717C163.467 198.359 162.407 199.013 161.354 199.68C161.586 199.311 161.783 198.922 161.943 198.517C162.644 196.908 162.859 195.153 163.085 193.424C163.381 191.256 163.441 189.05 163.02 186.921C162.707 185.138 162.093 183.448 161.686 181.698C161.239 179.645 161.014 177.55 161.016 175.449C161.021 175.335 161.033 175.221 161.052 175.109C161.117 174.8 161.175 174.512 161.215 174.217C160.75 173.77 160.548 174.295 160.465 175.192C160.047 177.296 159.264 179.736 159.054 181.956C158.819 185.203 159.193 188.484 159.888 191.612C160.263 193.395 161.128 195.017 161.158 196.725C161.176 197.745 160.904 198.532 160.58 199.588C160.551 199.733 160.409 199.904 160.523 200.053L160.559 200.066C160.543 200.106 160.535 200.148 160.537 200.191C155.736 203.313 151.139 206.858 147.072 211.027C146.57 211.58 146.043 212.148 145.572 212.734C145.471 212.964 145.748 213.059 145.925 212.966C146.526 212.425 147.002 211.708 147.591 211.14C152.184 206.469 157.393 202.585 162.988 199.143C164.771 200.62 166.11 202.604 167.829 204.147C171.168 207.044 175.639 207.863 179.552 209.636C179.946 209.751 180.575 210.145 180.858 209.625C180.869 209.591 180.87 209.554 180.86 209.519C180.85 209.484 180.83 209.453 180.802 209.43C180.552 209.255 180.282 209.14 180.019 209.004C178.462 208.245 177.31 207.274 176.055 206.002C175.615 205.541 175.168 205.1 174.715 204.678C175.355 205.098 176.027 205.485 176.7 205.872C178.775 207.163 181.354 208.012 183.474 208.635C185.588 209.443 187.539 210.626 189.232 212.127C189.623 212.372 189.982 212.827 190.441 212.876C191.168 212.686 190.543 212.162 190.272 211.869C188.006 209.697 186.049 207.168 183.564 205.272C182.121 204.243 180.756 203.529 179.465 202.421C178.066 201.386 176.876 200.048 175.399 199.118C173.5 197.976 171.262 197.752 169.41 196.891C168.877 196.64 168.481 196.349 168.086 196.058C169.478 195.261 170.856 194.504 172.283 193.785L173.283 194.66C175.1 196.457 177.208 197.892 179.389 199.176C181.087 200.183 182.972 200.769 184.579 201.92C188.095 204.305 190.971 208.298 194.71 210.694C195.655 211.308 196.555 211.994 197.514 212.568C197.906 212.748 198.459 213.182 198.839 212.74C198.992 212.418 198.581 212.232 198.419 212.044C197.875 211.525 197.312 210.999 196.833 210.415C194.369 207.38 192.143 204.075 189.102 201.634C185.882 198.932 182.494 196.415 178.712 194.622C177.315 193.94 175.903 193.121 174.307 193.075C174.124 193.076 173.942 193.064 173.761 193.04C175.105 192.381 176.491 191.781 177.907 191.213C178.342 191.033 178.769 190.872 179.204 190.692C180.007 191.477 180.508 192.598 181.458 193.257C184.614 195.606 188.11 197.389 191.778 198.68C197.54 200.784 203.204 203.472 209.401 203.963C209.91 203.985 210.439 204.19 210.947 204.035C211.663 203.578 210.395 203.359 210.114 203.218C209.068 202.834 208.328 202.644 207.247 202.182C206.06 201.55 204.925 200.827 203.766 200.117C200.732 198.252 197.707 196.301 194.401 194.981C190.946 193.675 187.586 192.931 184.309 191.29C183.328 190.84 182.379 190.358 181.45 189.816C183.117 189.18 184.77 188.584 186.465 188.047C186.521 188.242 186.847 188.377 186.979 188.533C188.161 189.537 189.618 190.107 190.951 190.855C193.039 192.107 195.009 193.582 197.21 194.63C200.642 196.061 203.97 197.256 207.671 198.03C209.993 198.547 212.359 199.058 214.767 199.031C215.166 199.191 216.992 199.052 216.358 198.436ZM166.904 196.906C166.915 196.932 166.934 196.938 166.945 196.964C166.957 196.99 167.28 197.432 167.166 197.283C167.743 198.364 168.535 199.3 169.341 200.196C169.485 200.378 169.636 200.54 169.786 200.703C168.385 199.808 166.846 199.149 165.231 198.752C164.874 198.65 164.59 198.574 164.313 198.478C165.163 197.934 166.024 197.417 166.904 196.906Z" fill="url(#paint0_linear_34_195)"/>
<path d="M192.766 146.909C190.489 148.571 188.41 150.037 186.083 151.463C183.108 153.347 179.832 154.626 176.808 156.398C173.868 158.051 171.313 160.233 168.527 162.114C167.049 163.174 165.202 164.173 163.566 165.361C163.891 164.788 164.226 164.188 164.571 163.603C164.795 163.244 165.009 162.871 165.214 162.525C165.836 162.188 166.439 161.823 167.032 161.443C168.359 160.609 169.687 159.733 170.928 158.77C173.748 156.534 176.492 154.184 178.977 151.613C181.536 148.868 183.211 145.828 185.495 143.123C186.263 142.231 187.174 141.388 187.943 140.578C188.065 140.434 188.119 140.19 187.967 140.126C187.673 140.138 187.353 140.395 187.052 140.516C184.326 141.797 181.727 143.427 179.607 145.564C176.905 148.219 174.955 151.258 172.031 153.544C171.374 154.112 170.499 154.765 169.718 155.313C170.189 154.103 170.65 152.879 171.036 151.664C171.678 149.611 171.988 147.555 172.413 145.505C172.989 142.501 173.839 139.458 173.979 136.5C174.022 136.076 174.03 134.992 173.384 135.822C172.723 136.995 172.167 138.2 171.44 139.355C166.795 145.75 164.15 152.994 164.304 159.675C164.332 160.61 164.408 161.534 164.635 162.398C164.641 162.452 164.657 162.504 164.684 162.551C164.023 163.683 163.409 164.803 162.785 165.95C162.757 165.989 162.748 166.016 162.72 166.056C162.488 166.483 162.255 166.91 162.041 167.324C161.913 166.85 161.756 166.334 161.743 165.989C161.618 164.87 161.856 164.004 161.948 162.842C162.137 159.997 161.738 157.174 160.341 154.942C159.107 152.912 158.224 150.956 157.669 148.55C156.524 146.896 156.375 158.243 156.352 158.777C156.207 161.282 157.121 163.487 158.232 165.497C158.858 166.506 159.702 167.513 160.073 168.508C160.315 168.988 160.368 169.553 160.543 170.057C160.582 170.073 160.591 170.087 160.62 170.089C160.146 171.011 159.71 171.948 159.265 172.871C159.255 172.898 159.236 172.911 159.227 172.938C159.023 173.366 158.819 173.795 158.643 174.225C158.614 174.182 158.567 174.152 158.538 174.109C158.352 173.895 158.205 173.65 158.104 173.385C157.23 170.468 157.017 167.271 156.333 164.268C155.975 162.684 155.58 161.083 154.769 159.721C154.181 158.728 153.11 157.791 152.702 156.863C152.293 155.77 152.054 154.604 151.843 153.439C151.774 153.257 151.764 152.226 151.561 151.845C151.054 151.419 150.83 152.67 150.682 152.978C149.784 156.032 149.598 159.084 150.072 161.897C150.28 163.707 150.564 165.508 151.329 167.087C152.561 169.886 155.135 172.195 156.318 174.799C156.657 175.584 156.876 176.415 156.968 177.265C156.98 177.444 157.103 177.464 157.216 177.388C156.698 178.61 156.227 179.82 155.766 181.044C154.627 180.008 154.06 178.275 153.512 176.652C152.886 174.751 152.071 172.935 151.238 171.133C150.628 169.905 149.952 168.702 148.985 167.716C147.425 166.258 145.594 165.129 144.28 163.63C143.859 163.142 143.492 162.612 143.183 162.046C143.02 161.804 142.95 161.457 142.617 161.37C142.418 161.36 142.278 161.599 142.252 161.763C142.247 162.202 142.431 162.596 142.473 163.024C142.667 164.408 143.019 166.308 143.375 167.81C144.165 170.928 145.277 173.996 147.425 176.364C149.026 178.126 151.352 179.46 152.894 181.054C153.554 181.666 154.243 182.28 154.593 183.123C154.612 183.151 154.632 183.221 154.622 183.207C154.68 183.292 154.681 183.457 154.805 183.478C154.829 183.478 154.853 183.469 154.871 183.454C154.291 185.111 153.796 186.773 153.33 188.437C153.168 188.318 152.949 188.238 152.815 188.08C152.49 187.842 152.096 187.34 151.769 186.897C151.019 185.785 150.598 184.513 149.837 183.304C148.58 180.916 146.167 179.412 143.999 177.784C141.574 176.019 138.746 174.754 136.096 173.265C135.668 173.002 135.26 172.709 134.873 172.389L134.844 172.346C134.499 171.976 134.128 171.63 133.734 171.311C133.581 171.165 133.28 171.369 133.254 171.573C133.162 171.843 133.428 171.954 133.562 172.112C133.833 172.379 134.121 172.628 134.423 172.859C135.458 173.944 136.429 175.26 137.285 176.488C138.548 178.602 139.397 180.996 141.065 182.857C142.437 184.442 144.513 185.406 146.634 186.152C147.775 186.502 148.705 186.662 149.641 187.317C150.585 187.863 151.339 188.411 151.934 189.13C152.165 189.445 152.377 189.773 152.57 190.112C152.587 190.133 152.609 190.148 152.634 190.157C152.659 190.165 152.686 190.167 152.712 190.161C152.771 190.142 152.823 190.107 152.863 190.059C152.536 191.229 152.223 192.402 151.923 193.578C151.823 193.229 151.68 192.893 151.495 192.58C150.819 191.294 149.662 190.353 148.534 189.413C147.129 188.225 145.517 187.217 143.596 186.647C142.018 186.136 140.281 185.918 138.656 185.5C136.836 185.01 135.086 184.288 133.45 183.351C133.369 183.299 133.292 183.239 133.221 183.174C133.048 182.99 132.866 182.815 132.675 182.65C131.985 182.846 132.226 183.244 132.838 183.703C134.102 184.966 135.342 186.68 136.851 187.819C139.114 189.425 141.864 190.535 144.744 191.309C146.369 191.767 148.245 191.745 149.551 192.461C150.333 192.888 150.718 193.458 151.265 194.188C151.351 194.275 151.372 194.469 151.571 194.438L151.609 194.413C151.626 194.444 151.653 194.47 151.685 194.485C150.385 199.866 149.559 205.259 149.603 210.479C149.639 211.14 149.665 211.828 149.747 212.478C149.844 212.661 150.126 212.471 150.191 212.282C150.24 211.543 150.062 210.833 150.083 210.093C150.06 204.215 151.097 198.161 152.759 191.976C155.224 191.121 157.732 190.858 160.198 190.086C164.912 188.542 168.924 185.148 173.229 182.635C173.615 182.354 174.388 181.998 174.213 181.535C174.189 181.51 174.158 181.492 174.124 181.485C174.09 181.479 174.054 181.483 174.023 181.498C173.702 181.631 173.41 181.808 173.108 181.97C171.356 182.946 169.75 183.491 167.841 183.992C167.16 184.161 166.489 184.344 165.828 184.542C166.63 184.187 167.431 183.791 168.233 183.395C170.779 182.215 173.377 180.419 175.456 178.912C177.634 177.506 179.986 176.391 182.454 175.597C182.935 175.376 183.55 175.272 183.935 174.908C184.345 174.216 183.476 174.512 183.051 174.613C179.696 175.571 176.308 176.115 172.995 177.378C171.126 178.142 169.552 178.976 167.739 179.578C165.898 180.303 163.988 180.721 162.167 181.556C159.866 182.654 157.998 184.434 155.944 185.613C155.42 185.903 154.874 186.154 154.312 186.362C154.771 184.849 155.248 183.365 155.792 181.856L157.209 181.398C159.94 180.653 162.62 179.508 165.241 178.235C167.288 177.247 169.16 175.921 171.246 175.072C175.709 173.158 180.896 172.478 185.537 170.381C186.716 169.855 187.915 169.398 189.075 168.843C189.509 168.592 190.255 168.316 190.212 167.806C190.086 167.538 189.633 167.802 189.369 167.856C188.565 168.087 187.743 168.331 186.939 168.48C182.786 169.23 178.611 169.663 174.466 171.155C169.989 172.684 165.524 174.433 161.303 176.827C159.73 177.703 158.042 178.532 156.795 179.851C156.655 180.006 156.508 180.154 156.354 180.294C156.88 178.881 157.481 177.458 158.13 176.024C158.324 175.581 158.528 175.153 158.723 174.71C159.923 174.377 161.146 174.443 162.364 173.932C166.526 172.304 170.523 170.145 174.278 167.63C180.237 163.71 186.56 160.125 191.636 155.141C192.039 154.723 192.595 154.369 192.865 153.875C193.065 153.076 191.938 154.045 191.617 154.22C190.534 154.93 189.829 155.469 188.661 156.174C187.285 156.896 185.879 157.534 184.465 158.199C180.758 159.934 176.994 161.625 173.491 163.825C169.885 166.156 166.773 168.651 163.051 170.688C161.967 171.316 160.883 171.903 159.77 172.447C160.559 170.773 161.366 169.128 162.25 167.473C162.44 167.51 162.788 167.296 163.006 167.253C164.659 166.697 166.193 165.723 167.768 164.929C170.296 163.721 172.901 162.708 175.36 161.317C179.043 159.059 182.469 156.787 185.862 154.018C188.015 152.295 190.196 150.532 192.004 148.501C192.429 148.236 193.711 146.644 192.766 146.909ZM154.053 187.721C154.081 187.723 154.1 187.71 154.129 187.712C154.157 187.713 154.734 187.635 154.536 187.665C155.786 187.65 157.092 187.392 158.378 187.104C158.624 187.063 158.86 187.007 159.096 186.951C157.344 187.747 155.691 188.745 154.17 189.925C153.822 190.18 153.549 190.385 153.267 190.576C153.504 189.628 153.769 188.681 154.053 187.721Z" fill="url(#paint1_linear_34_195)"/>
<path d="M53.8816 199.714C53.5196 198.086 54.1623 196.218 55.3525 195.097L55.7062 194.8C55.4174 194.6 55.0852 194.396 54.8473 194.113C54.4075 193.638 54.2233 192.988 54.2126 192.353C54.2279 191.884 54.4059 191.436 54.716 191.085C54.9828 190.78 55.3525 190.549 55.6789 190.315C56.2014 189.836 56.8825 189.545 57.5458 189.712C57.8766 188.669 58.7614 188.046 60.2295 188.26C61.374 188.425 62.502 189.288 62.4835 190.51C62.5337 191.192 62.206 191.951 62.421 192.494C62.6685 193.172 63.6169 193.582 63.9722 192.76C64.2691 192.107 64.0022 191.407 63.5063 190.817C62.5114 189.682 61.1146 188.642 61.6121 186.937C62.4328 184.275 66.8755 183.719 68.0899 186.36C68.1446 186.468 68.1861 186.582 68.2136 186.699C68.2372 186.679 68.2372 186.679 68.2806 186.683C68.2743 186.457 68.3012 186.231 68.3605 186.012C68.516 185.479 68.7743 185.02 68.8156 184.543C68.8768 184.089 68.7295 183.771 68.452 183.441C67.9291 182.914 66.9919 182.374 66.8302 181.464C66.7537 181.085 66.8384 180.612 67.1611 180.421C67.46 180.25 67.9809 180.295 68.0536 180.717C68.0782 180.938 67.9094 181.12 67.7283 181.192C67.6377 181.228 67.4679 181.169 67.4791 181.039C67.5065 180.976 67.597 180.94 67.6206 180.92L67.6678 180.88C67.8007 180.608 67.5949 180.459 67.3393 180.633C66.9546 181.037 67.1668 181.865 67.6702 182.367C67.9477 182.697 68.4697 182.983 68.783 183.404C69.0172 183.73 69.2004 184.14 69.143 184.55C69.0943 185.114 68.7105 185.759 68.6494 186.213C68.6429 186.336 68.6249 186.459 68.5957 186.58C68.8192 186.493 69.0519 186.433 69.2891 186.399C70.3656 186.339 71.4961 186.918 72.0248 187.882C72.3164 188.371 72.5216 188.907 72.6312 189.465C73.1831 189.404 73.8095 189.239 74.3898 189.355C74.4332 189.359 74.4964 189.386 74.5398 189.39C74.4643 189.252 74.4085 189.138 74.333 189C72.7795 185.477 71.9506 181.667 70.3302 178.159C70.1668 177.774 69.9798 177.408 69.7966 176.998C69.7495 177.038 69.6787 177.097 69.675 177.141C69.2902 177.545 68.9175 178.059 68.3743 178.274C68.096 178.372 67.797 178.396 67.5065 178.344C67.2161 178.292 66.944 178.166 66.7168 177.978C66.4318 177.734 66.2609 177.435 66.023 177.153C65.7058 176.775 65.251 176.474 64.8121 176.239C64.1601 175.942 63.3939 175.701 63.0121 175.056C62.7223 174.615 62.5702 174.099 62.4814 173.61C61.1342 174.018 59.6596 174.131 58.5044 173.332C58.4139 173.368 58.2998 173.423 58.296 173.467C57.7543 173.815 57.1795 174.11 56.58 174.345C54.4462 175.254 52.0634 174.238 51.4974 171.938C51.469 171.76 51.4207 171.559 51.3924 171.382C50.3668 171.359 49.9136 170.532 49.6255 169.567C49.4969 169.032 49.5222 168.487 49.4173 167.931C49.3766 167.644 49.2962 167.309 49.2197 166.93C48.5359 167.505 47.7561 168.684 46.7633 168.03C45.2278 166.825 45.0907 164.365 46.2281 162.845C45.9965 162.773 45.7604 162.716 45.5214 162.675C45.3081 162.613 44.5354 162.699 44.1287 162.598C43.2013 162.452 43.3112 161.434 43.6912 160.833C44.3388 159.687 45.3275 158.772 46.5197 158.214C46.5867 158.198 46.6339 158.158 46.7008 158.142C46.6451 158.028 46.5931 157.87 46.5572 157.78C46.4768 157.446 46.5072 157.096 46.6437 156.781C47.4412 155.145 49.7937 155.502 51.4437 155.885C51.3681 155.44 51.3915 154.983 51.5123 154.548C51.6331 154.112 51.8484 153.709 52.1428 153.366C53.1047 152.356 54.6904 151.465 56.0266 152.193C56.5816 151.848 57.2791 151.864 57.8956 152.071C58.377 152.224 58.8298 152.455 59.2357 152.755C59.3188 152.806 59.3782 152.877 59.4613 152.928C59.1259 152.002 58.834 151.081 58.4752 150.175C58.3848 150.164 58.3025 150.117 58.2458 150.046C57.9078 149.405 57.5049 149.261 56.9198 148.948C55.8686 148.463 55.0316 148.281 53.8389 147.916C52.666 147.574 51.5204 147.168 50.3786 146.72C49.9193 147.227 49.4081 147.576 48.9563 147.996C48.5716 148.4 48.4359 148.957 48.2138 149.506C47.8622 150.284 47.3568 151.071 46.5616 151.418C45.9935 151.673 45.3628 151.755 44.7482 151.655C44.7049 151.651 44.685 151.627 44.6615 151.647C44.6564 151.694 44.6373 151.738 44.6068 151.774C44.2627 152.465 43.7884 153.146 43.0837 153.456C42.4658 153.775 41.4601 153.775 40.9478 153.884C40.1003 154.073 39.5508 154.616 38.6725 154.911C37.9046 155.195 36.9895 155.159 36.2854 154.705C35.6409 154.321 35.2981 153.482 35.5354 152.76C35.6301 152.487 35.7704 152.233 35.9503 152.008C35.7006 151.822 35.4698 151.612 35.2612 151.38C34.6393 150.736 34.5011 149.806 35.0896 149.07C35.3329 148.785 35.7884 148.321 35.8978 148.068C36.3523 147.364 36.0565 146.486 36.2185 145.626C36.5011 144.382 37.4593 143.415 38.5969 142.902C38.1201 142.095 38.5069 141.167 38.8978 140.435C39.1165 139.93 39.0946 139.425 38.8557 138.901C38.5734 138.374 38.3468 137.961 38.7118 137.533C38.5456 137.431 38.4031 137.31 38.2172 137.184C37.6397 136.785 37.2497 135.986 37.5268 135.31C37.6945 134.887 38.0482 134.59 38.3585 134.289C38.7194 133.873 38.9792 133.379 39.1174 132.846C39.2531 132.289 39.3293 131.662 39.7687 131.131C40.8797 129.916 43.2165 129.44 44.3625 130.851C44.8939 131.531 44.8633 132.644 45.6965 132.869C45.7849 132.883 45.8756 132.876 45.9606 132.848C45.2941 131.959 44.9305 130.857 44.017 130.296C43.3327 129.866 42.3881 129.412 41.8444 128.622C41.5583 128.138 41.4212 127.448 41.7069 126.926C41.9614 126.511 42.4379 126.312 42.8746 126.065L42.9453 126.006C42.6914 125.75 42.4366 125.494 42.1808 125.24L42.1572 125.26C41.9442 125.409 41.6822 125.47 41.4253 125.432C41.1683 125.393 40.9359 125.258 40.7758 125.053C40.5776 124.817 40.4785 124.699 40.2727 124.55C40.2248 124.511 40.1647 124.491 40.1029 124.492C39.7991 124.466 39.551 124.553 39.1804 124.543C38.068 124.513 37.8185 123.354 38.2644 122.496C38.4209 122.204 38.6567 122.005 38.9123 121.831C38.7339 121.619 38.5319 121.426 38.3536 121.214C38.3064 121.254 38.2158 121.29 38.1687 121.329C37.6102 121.718 37.4323 122.512 37.2778 123.285C37.1272 124.016 36.7086 124.81 35.9445 125.05C34.9087 125.398 33.7744 124.863 33.124 124.041C32.6916 123.478 32.4404 122.845 31.8119 122.528C31.6062 122.379 30.923 122.189 30.5908 121.985C30.2111 121.773 29.9221 121.429 29.7781 121.018C29.704 120.813 29.6708 120.594 29.6806 120.376L29.6334 120.416C29.3302 120.76 29.1274 121.181 29.0471 121.633C28.9822 122.13 29.2013 122.63 29.4118 122.976C29.7734 123.598 30.5304 124.45 29.9893 125.147C29.695 125.515 29.2176 125.474 28.7996 125.503C28.7761 125.523 28.7996 125.503 28.8431 125.507C28.3421 125.485 27.9214 125.799 27.8681 126.166C27.8182 126.49 28.2324 126.503 28.5352 126.289L28.6295 126.21C28.6927 126.237 28.4993 126.199 28.4795 126.175C28.3568 126.077 28.4982 125.958 28.6284 125.969C28.8257 125.965 29.0984 126.097 28.9692 126.327C28.8164 126.576 28.5014 126.68 28.2372 126.701C27.4013 126.76 27.3349 126.011 27.9206 125.558C28.3687 125.182 29.1226 125.312 29.4339 125.252C30.0405 125.064 29.8675 124.284 29.5579 123.819C29.0339 123.053 28.4382 122.105 28.8482 121.156C29.0123 120.777 29.2036 120.334 29.5932 120.128C29.584 120.113 29.5718 120.102 29.5574 120.093C29.5431 120.084 29.5269 120.078 29.5102 120.077C29.2213 119.877 29.0987 119.779 28.8023 119.666C28.1503 119.369 27.0127 119.882 25.9785 119.705C24.917 119.592 23.9385 118.523 24.2293 117.433C24.4432 116.73 25.0563 116.215 25.6977 115.876C24.8946 115.304 23.8218 115.321 22.9705 114.547C22.3683 113.927 23.4475 113.583 23.8805 113.38C24.2229 113.213 24.9426 112.728 25.5106 112.734C25.5775 112.718 25.6408 112.745 25.7077 112.729L25.688 112.705C25.6435 112.461 25.6264 112.153 25.7989 111.928C26.5165 110.962 29.0425 111.334 30.174 112.154L30.1542 112.13C29.8346 111.534 29.7393 110.843 29.8855 110.183C30.1181 109.553 30.5484 109.015 31.112 108.65C31.6757 108.285 32.3423 108.112 33.0123 108.158L33.0557 108.161C32.8359 107.987 32.6258 107.801 32.4262 107.604C32.0853 107.3 31.7126 107.033 31.3144 106.808C29.9584 106.057 28.3439 105.764 27.117 104.783C26.832 104.54 26.4392 104.025 26.7968 103.684C27.0995 103.47 27.5062 103.571 27.8534 103.601C28.5639 103.728 29.4159 103.736 30.0696 103.508C30.8536 103.292 31.6129 102.855 32.4574 102.95C32.5461 102.876 32.6206 102.786 32.6771 102.685C33.5321 101.644 34.9636 101.527 36.2373 101.462C37.1166 101.407 37.8336 101.207 38.5222 100.829C40.0136 100.018 41.4037 98.608 43.1982 98.5884C43.5981 98.5878 43.992 98.6852 44.3455 98.8721C44.699 99.059 45.0014 99.3296 45.2262 99.6603C45.7699 100.451 45.6012 101.639 44.6327 101.97C43.4667 102.307 42.8963 100.814 41.9327 100.578C41.8262 100.547 41.5025 100.497 41.3449 100.549C41.1366 100.623 40.9423 100.732 40.7705 100.871C40.5347 101.069 40.3385 101.314 40.0867 101.446C40.1461 101.516 40.1821 101.607 40.0802 101.773C39.7388 102.181 39.1473 102.195 38.7105 102.442C38.1634 102.7 37.5193 103.322 37.0487 103.959C36.6291 104.513 36.2823 105.489 35.8948 106.177C35.5778 106.759 35.1387 107.266 34.6075 107.662C34.5081 107.738 34.3998 107.802 34.285 107.853C34.2871 108.334 34.3127 108.795 34.3186 109.233C34.3421 109.213 34.3855 109.217 34.4091 109.197C34.6101 109.128 34.8018 109.034 34.9798 108.918C35.5348 108.573 36.0173 108.046 36.6635 107.905C37.0418 107.829 37.4523 107.886 37.7609 108.109C38.0497 108.309 38.3036 108.659 38.317 109.01C38.3946 109.629 38.0183 110.187 37.6893 110.705C37.5328 110.998 37.4197 111.294 37.4679 111.495C37.531 111.654 37.6531 111.782 37.8086 111.853C38.0653 111.919 38.3568 111.834 38.7785 111.762C38.8651 111.742 38.9541 111.735 39.0427 111.741L39.0577 111.567C39.0931 110.652 39.7646 109.967 40.6798 110.002C42.5885 109.927 43.9861 112.978 41.5464 113.379C41.1917 113.435 40.7935 113.488 40.4463 113.458C40.4823 113.692 40.5057 113.928 40.5164 114.164C40.6481 114.232 40.7661 114.324 40.8646 114.435C41.1856 114.768 41.2112 115.23 41.1736 115.664C41.1207 116.287 40.8275 116.865 40.3561 117.276C39.8138 117.732 39.1786 117.743 38.7865 118.234C38.6178 118.416 38.5642 118.783 38.6086 119.027C38.6889 119.362 38.8324 119.725 38.8458 120.075C38.8627 120.302 38.8355 120.53 38.7658 120.746L39.3606 121.453L39.4313 121.394C39.8843 121.09 40.3213 120.763 40.7404 120.414C41.5729 119.634 42.1022 118.827 42.5629 117.795C42.6723 117.542 42.7816 117.289 42.8674 117.056C41.9647 115.36 43.6741 114.809 43.5799 113.117C43.5633 112.761 43.5209 112.407 43.4531 112.057C43.1981 111.722 43.0432 111.322 43.0064 110.903C42.9845 110.398 43.1125 109.928 42.9529 109.499C42.8169 109.05 42.5469 108.633 42.5882 108.156C42.605 107.457 43.4207 107.375 43.9504 107.574C44.9732 107.881 45.8047 108.631 46.3646 109.488C46.7299 110.066 46.9812 110.7 47.0314 111.382C47.0277 111.426 47.0475 111.449 47.024 111.469C47.2741 111.421 47.5165 111.339 47.7447 111.226C47.788 111.229 48.1852 110.936 48.3822 110.931C48.6827 110.902 48.9844 110.974 49.239 111.136C49.8723 111.65 50.0613 112.497 50.3918 113.226C50.9452 114.411 51.491 115.682 51.3076 117.044C51.2963 117.174 51.2652 117.28 51.2539 117.411C51.597 117.393 51.9407 117.43 52.272 117.521C52.7382 117.692 53.2006 117.907 53.5177 118.284C53.6495 118.501 53.7233 118.748 53.732 119.002C53.7407 119.255 53.684 119.507 53.5673 119.732C53.2271 120.38 52.6799 120.639 52.2442 121.126C51.6708 121.688 51.6948 122.674 51.1931 123.418C50.8406 123.956 50.4048 124.443 49.8502 124.789C49.803 124.828 49.7124 124.864 49.6653 124.904C49.7049 124.951 49.7209 125.018 49.7606 125.065C49.8683 125.337 49.992 125.675 50.0986 125.706C50.4619 125.803 51.0675 125.375 51.6714 125.471C52.6187 125.64 53.3521 126.513 53.3997 127.479C53.3915 128.331 52.823 129.091 52.4666 129.672C52.3543 129.841 52.2649 130.025 52.2007 130.217C53.4682 130.48 54.6457 131.019 55.6196 131.891C56.2255 132.468 56.9071 133.183 56.9386 134.082C56.8795 135.017 55.8757 135.498 55.4176 136.246C55.2139 136.578 55.1415 137.162 55.2577 137.588C55.4199 138.411 55.6968 139.208 56.0804 139.954C56.5063 140.844 57.0624 141.745 56.9958 142.767C56.9691 143.103 56.8739 143.429 56.716 143.727C56.6886 143.79 56.6377 143.873 56.6104 143.936C57.108 145.007 57.5858 146.054 58.0363 147.164C58.7938 149.023 59.4408 150.893 60.1076 152.788C60.159 152.794 60.2111 152.791 60.2615 152.779C61.6415 152.746 63.4763 153.779 63.0769 155.362C63.0043 155.783 62.8507 156.185 62.6245 156.547C62.6009 156.567 62.5735 156.63 62.55 156.65C62.9003 156.893 63.2137 157.185 63.4806 157.518C64.0999 158.446 64.2042 159.767 63.6602 160.747C63.5404 160.934 63.4081 161.112 63.2641 161.281L63.1699 161.361C63.4371 162.062 63.7044 162.763 63.9949 163.444C65.2129 163.265 65.5557 164.104 66.2608 164.798C66.6015 165.156 66.9846 165.277 67.2601 165.125C67.6496 164.919 67.6909 164.441 67.5399 164.165C67.1831 163.741 66.3858 163.606 65.797 163.337C65.311 163.142 64.84 162.773 64.6209 162.273C64.4092 161.688 64.3805 161.053 64.5384 160.451C64.6928 159.677 65.6431 157.792 66.614 157.942C66.7014 157.584 66.8887 157.259 67.154 157.004C68.0104 156.204 69.4132 155.91 70.4532 156.525C70.7457 156.681 71.0345 156.881 71.2091 157.137C71.4014 157.467 71.5188 157.835 71.553 158.216C71.5762 158.279 71.5779 158.348 71.5578 158.413C71.696 158.407 71.8345 158.412 71.972 158.427C72.5957 158.546 73.4299 159.012 73.8763 159.16C74.4094 159.316 74.9938 159.388 75.4446 159.733C76.5488 160.616 76.6221 162.043 75.9724 163.233C75.8668 163.443 75.7414 163.629 75.6396 163.795C76.3746 164.143 77.0863 164.51 77.8213 164.858C79.2407 165.637 79.9588 166.683 79.369 167.944C80.5638 168.79 81.4032 170.459 80.6282 171.835C79.872 172.994 78.3116 173.34 77.4911 174.231C77.1299 174.615 76.7885 175.023 76.332 175.246C75.9539 175.4 75.5428 175.454 75.1376 175.405C75.0904 175.444 75.0395 175.527 74.9923 175.567C74.5444 175.944 73.9132 175.911 73.3798 175.755C72.5665 175.554 72.0067 174.696 71.3584 174.356C71.1687 174.274 70.8809 174.315 70.696 174.43C70.33 174.617 69.9801 174.871 69.5785 174.967C70.0799 175.995 70.5775 177.065 71.0318 178.132C72.6324 181.616 73.4179 185.422 75.0186 188.906C75.5286 190.087 76.2706 191.113 77.0918 192.234C77.1417 191.91 77.235 191.59 77.4547 191.325C77.8942 190.795 78.4488 190.449 78.7382 189.884C79.153 189.133 79.0819 188.187 79.6232 187.49C80.5567 186.303 82.4357 186.575 83.4217 187.556C83.9719 188.019 84.1401 188.602 84.1744 189.218C85.2204 188.499 86.3061 187.828 87.5637 187.696C88.6241 187.569 89.9668 187.97 90.4013 189.013C90.5668 189.88 89.9547 190.636 89.6068 191.371C89.3485 191.83 89.2204 192.3 89.1118 192.793L89.1553 192.797C90.0667 192.876 91.0018 192.935 91.9245 192.884C92.8434 192.876 93.8915 192.639 94.7456 193.128C95.3306 193.441 95.6414 194.146 95.3482 194.754C94.7032 196.141 92.8477 196.615 91.424 196.644C89.894 196.643 88.6945 196.605 87.4882 197.659C87.1072 198.02 86.5187 198.756 86.0198 199.216C85.4228 199.798 84.7626 200.353 83.9873 200.723C83.9053 200.746 83.828 200.784 83.759 200.835C84.8653 202.198 85.9679 203.606 86.9799 205.049C87.1149 205.257 87.2933 205.469 87.4048 205.698C87.4369 205.832 87.2756 205.927 87.1416 205.959C86.7435 206.012 86.6037 205.607 86.4291 205.351C85.9448 204.631 85.3936 203.928 84.8621 203.248C83.0931 200.952 81.226 198.779 79.4806 196.463C77.9767 194.387 76.2918 192.383 74.9965 190.172C74.6937 190.386 74.355 190.51 74.0721 190.748C73.6514 191.061 73.1064 191.801 73.0971 192.413C72.9748 193.32 73.2196 194.282 73.5972 194.97C73.9786 195.615 74.4297 195.96 75.0883 195.93C75.2185 195.942 75.5213 195.727 75.4258 195.566C75.3267 195.448 75.2635 195.421 75.0662 195.426C74.9559 195.438 74.8605 195.277 74.9746 195.221C75.0888 195.165 75.1954 195.196 75.3058 195.184C75.7993 195.292 75.9985 195.769 75.4948 196.031C75.0581 196.278 74.4816 196.119 74.0623 195.907C73.1761 195.284 72.7927 194.158 72.7291 193.125C72.6723 192.639 72.7459 192.147 72.9422 191.699C73.1385 191.251 73.4504 190.864 73.846 190.576C74.1253 190.382 74.4007 190.231 74.6997 190.06C74.1194 189.944 73.4893 190.152 72.7637 190.198C72.61 190.207 72.4599 190.172 72.3062 190.181L72.3458 190.228C72.4251 190.322 72.6753 190.715 72.7198 190.96C73.0882 192.26 71.6071 192.7 70.5976 192.744C69.541 192.827 68.569 192.437 67.7068 192.8C67.3777 192.911 67.0732 193.086 66.8097 193.312C67.1221 193.492 67.4581 193.653 67.7704 193.833C68.7745 194.357 69.7711 194.968 70.3394 195.979C71.0268 197.132 71.3877 198.518 71.0344 199.822C70.8489 200.702 70.3323 201.619 69.4267 201.978C68.7097 202.178 68.2275 201.94 67.8979 201.452C68.0902 203.021 67.7984 204.876 66.6754 205.981C65.8625 206.786 64.5994 207.485 63.4654 206.95C62.9428 206.714 62.5039 206.325 62.2064 205.835C61.8646 205.237 61.7596 204.681 61.249 204.266C60.8772 204.015 60.5027 204.048 60.0566 203.9C59.7836 203.791 59.5392 203.621 59.342 203.403C59.1449 203.185 59.0002 202.925 58.9192 202.643C58.8549 202.375 58.8105 202.13 58.7698 201.843C58.4348 201.923 58.0764 202.023 57.6547 202.096C56.8072 202.285 56.1697 201.574 55.4815 201.186C55.0699 200.888 54.098 200.498 53.8816 199.714ZM46.3441 145.846L46.3912 145.806C46.5016 145.794 46.5761 145.691 46.6307 145.565C46.813 145.248 46.9459 144.906 47.025 144.549C47.1483 143.882 47.0819 143.133 46.693 142.575C46.3042 142.016 45.704 141.877 45.106 142.219C44.6928 142.445 43.9324 142.642 44.0534 143.264C44.384 143.993 45.1784 144.411 45.6034 145.06C45.7313 145.21 45.8418 145.373 45.9328 145.548C46.0479 145.733 46.1159 145.958 46.3442 145.846H46.3441ZM45.1748 126.264C45.4294 125.849 46.0944 125.491 46.35 125.317C46.6367 125.035 46.8366 124.747 46.9299 124.427C45.9767 123.819 44.6822 123.62 43.7953 123.762C43.3066 123.851 43.0285 124.286 42.7541 124.677C43.4591 125.372 44.1605 126.111 44.842 126.826C44.9229 126.622 45.0353 126.433 45.175 126.264H45.1748ZM42.4982 126.623C41.755 127.127 41.9807 128.305 42.6932 128.914C43.2756 129.511 44.3815 129.869 45.0394 130.603C45.4594 131.055 45.6748 131.599 46.024 132.11C46.0996 132.247 46.278 132.46 46.3734 132.621C46.4618 132.554 46.5353 132.469 46.5889 132.372C46.6425 132.275 46.6752 132.168 46.6847 132.058C46.6943 131.947 46.6805 131.836 46.6444 131.731C46.6082 131.626 46.5504 131.53 46.4748 131.449C46.3765 131.324 46.2506 131.223 46.1068 131.155C46.1844 131.293 46.2309 131.446 46.2428 131.604C46.266 131.667 46.2677 131.737 46.2475 131.801C46.1731 131.904 45.9127 131.881 45.9239 131.751C45.8908 131.377 45.6679 130.92 45.3036 130.582C44.8713 130.02 43.3986 129.609 43.5988 128.555C43.6798 128.124 43.9269 127.796 44.2334 127.538L44.422 127.38C44.0416 126.975 43.6613 126.571 43.3007 126.19C43.0493 126.321 42.7343 126.425 42.4984 126.623L42.4982 126.623ZM30.8662 112.738C31.1496 113.506 31.0594 114.548 31.704 114.932C31.8937 115.014 31.9285 114.864 31.8718 114.509C31.8424 114.091 31.5997 113.611 31.2825 113.234C31.1674 113.049 31.005 112.904 30.8662 112.738ZM47.0821 117.618C46.8886 117.58 46.5575 117.617 46.5349 117.877C46.5011 118.268 46.5107 118.662 46.6779 119.004C46.7534 119.142 46.8016 119.343 46.9789 119.315L47.0026 119.295C47.0186 119.362 47.1253 119.393 47.1922 119.377C47.346 119.368 47.3809 119.218 47.4119 119.112C47.5288 118.772 47.6532 118.346 47.486 118.003C47.4688 117.904 47.4202 117.813 47.3475 117.744C47.2748 117.675 47.1817 117.631 47.0821 117.618ZM53.6078 159.177C53.7797 159.717 54.3508 160.444 54.8716 160.489C55.4707 160.388 55.1231 159.352 54.7304 158.837C54.4802 158.444 53.9027 158.044 53.4875 157.789C53.4895 158.271 53.4916 158.752 53.6078 159.177ZM62.6427 161.643C62.1588 161.929 61.5597 162.03 61.0152 162.005C61.0504 162.86 61.0423 163.712 60.6472 164.487C60.1306 165.405 59.0213 166.096 58.2161 165.042C58.0972 164.901 58.0018 164.739 57.9027 164.622C57.4574 164.714 56.9998 164.697 56.6611 164.82C55.882 165.234 56.0522 166.298 56.8779 166.61C57.4704 166.836 58.114 166.979 58.5737 167.478C58.8512 167.808 59.058 168.198 59.3591 168.508L59.4582 168.626L59.462 168.583C59.4363 168.121 59.0747 167.5 59.1236 166.935C59.2721 165.724 60.4324 164.95 61.4161 164.445C61.9636 164.186 62.332 163.715 62.9188 163.503C63.0528 163.471 63.2103 163.419 63.3442 163.387C63.0931 162.753 62.858 162.186 62.6427 161.643ZM81.392 197.875C81.5548 198.061 81.7058 198.256 81.8442 198.461L81.931 198.468C82.1678 198.511 82.3849 198.53 82.5188 198.497C82.8066 198.457 83.2669 198.191 83.2894 197.93C83.3419 197.323 82.5796 197.038 82.0116 197.032C81.8814 197.021 81.4522 197.181 81.3141 197.256C81.2235 197.292 81.1528 197.352 81.0386 197.407C81.1446 197.572 81.2627 197.728 81.392 197.875V197.875Z" fill="url(#paint2_linear_34_195)"/>
<path fill-rule="evenodd" clip-rule="evenodd" d="M108.08 65.8537C108.2 65.6679 108.451 65.4467 108.735 65.2137C109.575 64.5295 110.776 63.803 110.891 63.7254C112.714 62.523 114.63 61.42 116.469 60.2313C117.266 59.7132 118.052 59.1796 118.811 58.614C119.057 58.4271 120.694 57.3114 121.049 56.5147C121.137 56.3278 121.162 56.1171 121.12 55.9147C121.09 55.8063 121.038 55.7055 120.966 55.6188C120.895 55.5321 120.806 55.4615 120.705 55.4117C120.323 55.2036 119.793 55.143 119.215 55.1872C118.129 55.2697 116.84 55.7067 116.18 55.8841C113.987 56.4827 111.828 57.1974 109.712 58.0253C107.583 58.8468 105.498 59.7522 103.445 60.6812C97.6048 63.3277 91.8515 66.1827 86.2838 69.2842C80.6398 72.431 75.1868 75.8328 70.0395 79.5348C67.6869 81.2232 65.0941 83.0265 62.8616 85.0575C61.2896 86.49 59.8976 88.0371 58.8878 89.7331C58.8514 89.7948 58.8274 89.863 58.8172 89.9339C58.8071 90.0048 58.8111 90.077 58.8289 90.1464C58.8466 90.2158 58.8779 90.281 58.9209 90.3383C58.9639 90.3956 59.0177 90.4439 59.0794 90.4804C59.141 90.5169 59.2093 90.5409 59.2802 90.551C59.3511 90.5611 59.4233 90.5572 59.4927 90.5394C59.5621 90.5216 59.6273 90.4903 59.6846 90.4473C59.7419 90.4044 59.7902 90.3505 59.8267 90.2889C60.7764 88.6748 62.0917 87.2042 63.5767 85.8367C65.7656 83.8203 68.3147 82.0288 70.6236 80.3493C75.7273 76.6417 81.1311 73.23 86.7261 70.0734C92.2556 66.9558 97.9761 64.0877 103.784 61.4238C105.814 60.4938 107.883 59.5863 109.996 58.7626C112.085 57.9374 114.217 57.2239 116.382 56.6251C116.933 56.476 117.932 56.1324 118.871 55.9908C119.439 55.9047 119.979 55.8783 120.339 56.075C120.443 56.1306 120.361 56.22 120.296 56.3225C120.144 56.5455 119.964 56.748 119.761 56.9248C119.204 57.4386 118.511 57.9041 118.363 58.0165C117.621 58.5737 116.846 59.0998 116.065 59.6103C114.226 60.8042 112.315 61.9105 110.492 63.1171C110.339 63.2178 108.473 64.359 107.708 65.1636C107.553 65.3171 107.428 65.4995 107.343 65.7006C107.228 66.0186 107.31 66.2671 107.599 66.4304C108.156 66.7368 109.139 66.7401 110.268 66.5499C112.321 66.2031 114.892 65.2742 115.847 65.0274C120.323 63.8778 124.799 62.7216 129.329 61.7424C132.326 61.0935 135.35 60.5232 138.407 60.0813C149.166 58.5336 160.737 58.1514 172.162 59.0856C183.63 60.0239 194.951 62.2892 205.137 66.0171C205.204 66.0415 205.276 66.0524 205.347 66.0491C205.419 66.0458 205.489 66.0284 205.554 65.998C205.619 65.9676 205.677 65.9247 205.725 65.8718C205.774 65.8188 205.811 65.7569 205.835 65.6895C205.86 65.6221 205.871 65.5506 205.867 65.479C205.864 65.4074 205.847 65.3372 205.816 65.2723C205.786 65.2074 205.743 65.1491 205.69 65.1008C205.637 65.0525 205.575 65.0151 205.508 64.9908C195.224 61.2879 183.8 59.0676 172.233 58.1759C160.743 57.2909 149.105 57.7157 138.292 59.3159C135.225 59.769 132.184 60.3531 129.166 61.0123C124.635 62.0038 120.148 63.1671 115.667 64.3261C114.723 64.5708 112.179 65.4941 110.148 65.8366C109.297 65.9793 108.549 66.0382 108.08 65.8537ZM227.98 200.875C231.234 200.358 234.563 199.279 237.647 197.731C240.731 196.181 243.57 194.161 245.807 191.714C247.925 189.447 249.459 186.594 251.435 184.166C252.259 183.151 253.165 182.215 254.23 181.431C255.294 180.644 256.479 180.121 257.723 179.764C258.979 179.402 260.3 179.215 261.615 179.105C261.759 179.091 261.891 179.02 261.982 178.909C262.074 178.797 262.118 178.654 262.104 178.51C262.09 178.366 262.02 178.234 261.909 178.142C261.798 178.05 261.655 178.005 261.511 178.018C260.13 178.167 258.749 178.402 257.434 178.813C256.097 179.232 254.825 179.832 253.684 180.712C252.581 181.561 251.648 182.568 250.791 183.652C248.864 186.097 247.363 188.945 245.278 191.223C243.073 193.573 240.294 195.517 237.27 196.968C234.286 198.393 231.098 199.347 227.822 199.794C227.749 199.803 227.68 199.826 227.616 199.862C227.553 199.898 227.498 199.947 227.454 200.005C227.41 200.063 227.378 200.129 227.359 200.199C227.341 200.27 227.337 200.343 227.348 200.415C227.358 200.487 227.383 200.556 227.421 200.618C227.459 200.681 227.508 200.735 227.567 200.778C227.626 200.82 227.693 200.851 227.764 200.867C227.835 200.884 227.908 200.886 227.98 200.874L227.98 200.875Z" fill="#E3DBF9"/>
<path fill-rule="evenodd" clip-rule="evenodd" d="M138.437 152.994C143.915 166.674 162.717 188.408 179.609 188.405C204.01 188.406 230.13 124.507 230.13 124.507C239.992 117.791 233.955 108.466 229.498 100.648L222.709 117.406C222.709 117.406 193.338 158.486 180.678 156.636C168.017 154.789 153.787 106.926 146.747 106.318C139.707 105.711 132.961 139.311 138.437 152.994Z" fill="#FB9C9A"/>
<mask id="mask0_34_195" style="mask-type:luminance" maskUnits="userSpaceOnUse" x="136" y="100" width="100" height="89">
<path d="M138.437 152.994C143.915 166.674 162.717 188.408 179.609 188.405C204.01 188.406 230.13 124.507 230.13 124.507C239.992 117.791 233.955 108.466 229.498 100.648L222.709 117.406C222.709 117.406 193.338 158.486 180.678 156.636C168.017 154.789 153.787 106.926 146.747 106.318C139.707 105.711 132.961 139.311 138.437 152.994Z" fill="white"/>
</mask>
<g mask="url(#mask0_34_195)">
<path fill-rule="evenodd" clip-rule="evenodd" d="M209.773 119.047C196.864 102.39 189.145 78.644 167.448 71.2332C152.224 66.0329 138.54 73.9007 129.915 86.4841C116.488 106.079 112.148 134.196 119.937 156.714C131.122 189.046 168.993 199.968 198.78 187.402C208.01 183.507 217.186 177.674 222.3 168.787C226.121 162.148 229.729 149.019 223.01 142.671C220.794 140.576 217.06 141.458 215.16 139.043C213.714 137.208 214.424 134.766 213.583 132.718C212.213 129.358 207.022 128.609 203.85 129.013L209.773 119.047Z" fill="url(#paint3_linear_34_195)"/>
</g>
<path fill-rule="evenodd" clip-rule="evenodd" d="M136.253 170.414C144.066 160.913 155.978 120.068 149.886 108.606C143.795 97.1433 111.498 84.9224 99.705 101.64C89.3414 116.33 96.9137 154.152 103.005 165.614C108.257 175.503 129.14 179.063 136.253 170.414Z" fill="url(#paint4_linear_34_195)"/>
<path fill-rule="evenodd" clip-rule="evenodd" d="M133.765 119.345C133.353 118.257 132.527 117.377 131.468 116.898C130.408 116.419 129.201 116.381 128.113 116.791L66.527 140.035C65.9885 140.238 65.4954 140.546 65.0758 140.94C64.6561 141.334 64.3183 141.807 64.0814 142.331C63.8445 142.856 63.7133 143.422 63.6952 143.998C63.6771 144.573 63.7726 145.146 63.9761 145.685L100.323 241.988C100.733 243.075 101.559 243.956 102.618 244.435C103.677 244.914 104.883 244.953 105.971 244.543L167.557 221.299C168.645 220.888 169.525 220.062 170.004 219.002C170.483 217.943 170.522 216.736 170.112 215.648L133.765 119.345Z" fill="white"/>
<path fill-rule="evenodd" clip-rule="evenodd" d="M87.2838 149.556C87.1762 149.271 86.9599 149.041 86.6825 148.915C86.405 148.79 86.0891 148.78 85.8042 148.887L75.208 152.886C74.9232 152.994 74.6928 153.21 74.5674 153.488C74.4421 153.765 74.432 154.081 74.5393 154.366L74.5397 154.367C74.6473 154.652 74.8636 154.882 75.141 155.007C75.4184 155.133 75.7343 155.143 76.0192 155.036L86.6155 151.036C86.9002 150.929 87.1306 150.712 87.256 150.435C87.3814 150.158 87.3915 149.842 87.2841 149.557L87.2838 149.556ZM85.6187 145.144C85.5111 144.86 85.2948 144.629 85.0174 144.504C84.74 144.378 84.4241 144.368 84.1392 144.475L73.5429 148.475C73.2581 148.582 73.0277 148.799 72.9024 149.076C72.777 149.354 72.7669 149.669 72.8744 149.954V149.955C72.982 150.24 73.1983 150.47 73.4757 150.596C73.7531 150.721 74.0689 150.731 74.3538 150.624L84.9504 146.625C85.2352 146.517 85.4656 146.301 85.5909 146.024C85.7163 145.746 85.7264 145.43 85.619 145.145L85.6187 145.144Z" fill="#E3E3FE"/>
<path fill-rule="evenodd" clip-rule="evenodd" d="M133.581 118.858C133.402 118.384 133.131 117.949 132.784 117.579C132.436 117.209 132.02 116.911 131.557 116.702C131.095 116.493 130.596 116.377 130.089 116.361C129.582 116.345 129.076 116.429 128.602 116.608L66.0433 140.219C65.5686 140.398 65.1338 140.669 64.7637 141.016C64.3937 141.364 64.0956 141.78 63.8866 142.243C63.6776 142.705 63.5617 143.204 63.5455 143.711C63.5294 144.218 63.6133 144.723 63.7925 145.198V145.199C63.9716 145.674 64.2425 146.108 64.5897 146.478C64.9369 146.848 65.3536 147.146 65.816 147.355C66.2784 147.564 66.7774 147.68 67.2845 147.696C67.7916 147.712 68.297 147.628 68.7717 147.449L131.33 123.838C131.805 123.659 132.24 123.388 132.61 123.041C132.98 122.694 133.278 122.277 133.487 121.815C133.696 121.353 133.812 120.854 133.828 120.346C133.844 119.839 133.76 119.334 133.581 118.859V118.858Z" fill="white"/>
<path fill-rule="evenodd" clip-rule="evenodd" d="M117.091 174.575C117.051 174.58 117.011 174.57 116.977 174.549C116.942 174.528 116.916 174.497 116.902 174.459L109.301 154.319C108.967 153.436 108.297 152.722 107.437 152.334C106.577 151.945 105.598 151.914 104.715 152.247L104.712 152.248C104.275 152.413 103.875 152.662 103.534 152.982C103.194 153.301 102.919 153.685 102.727 154.111C102.535 154.537 102.429 154.996 102.414 155.463C102.399 155.93 102.477 156.395 102.642 156.832L110.306 177.136V177.136L110.303 177.137L109.969 177.263C109.877 177.299 109.775 177.299 109.683 177.263C109.59 177.228 109.515 177.159 109.47 177.071C108.523 175.231 103.717 165.877 101.273 161.123C101.085 160.758 100.827 160.433 100.514 160.167C100.201 159.901 99.8386 159.7 99.4476 159.574C99.0567 159.449 98.6447 159.401 98.2354 159.435C97.8261 159.468 97.4274 159.582 97.0621 159.77C97.0593 159.771 97.0593 159.771 97.0594 159.771C96.6939 159.959 96.3689 160.217 96.1031 160.53C95.8372 160.843 95.6357 161.206 95.51 161.597C95.3843 161.988 95.3369 162.4 95.3705 162.81C95.404 163.219 95.518 163.618 95.7057 163.984C97.3221 167.128 99.9982 172.335 102.078 176.382C104.076 180.271 105.851 184.272 107.395 188.363C107.395 188.363 104.498 185.412 102.229 183.1C101.522 182.381 100.559 181.972 99.5512 181.962C98.5432 181.953 97.5728 182.345 96.8534 183.051V183.052C96.4978 183.401 96.215 183.817 96.0211 184.276C95.8272 184.735 95.7262 185.228 95.7238 185.726C95.7214 186.225 95.8178 186.718 96.0072 187.179C96.1967 187.64 96.4756 188.059 96.8278 188.411C99.3689 190.958 103.299 194.89 106.739 198.336C108.857 200.456 111.542 201.921 114.471 202.553C117.401 203.185 120.451 202.958 123.255 201.9C131.381 198.833 135.482 189.761 132.416 181.636L131.098 178.144C131.098 178.144 129.779 164.531 129.171 158.245C129.091 157.419 128.686 156.659 128.045 156.132C127.404 155.605 126.58 155.353 125.754 155.434V155.433C124.928 155.513 124.168 155.918 123.64 156.558C123.112 157.199 122.86 158.023 122.94 158.849C123.396 163.543 124.205 171.891 124.205 171.891L124.142 171.915C124.078 171.922 124.014 171.906 123.96 171.87C123.907 171.834 123.868 171.779 123.851 171.717C123.38 169.913 120.747 159.83 119.325 154.383C119.083 153.458 118.484 152.666 117.658 152.182C116.833 151.698 115.849 151.562 114.923 151.803L114.92 151.804C114.462 151.924 114.032 152.133 113.654 152.419C113.276 152.705 112.958 153.062 112.719 153.471C112.48 153.88 112.323 154.332 112.259 154.802C112.194 155.271 112.222 155.749 112.343 156.207C113.954 162.376 117.134 174.56 117.134 174.56L117.091 174.575Z" fill="url(#paint5_linear_34_195)"/>
<path fill-rule="evenodd" clip-rule="evenodd" d="M157.037 199.5L159.772 206.746C160.18 207.828 160.142 209.028 159.666 210.081C159.19 211.135 158.315 211.956 157.233 212.365L149.584 215.252L148.871 213.363L156.52 210.476C156.808 210.368 157.072 210.204 157.297 209.993C157.522 209.783 157.702 209.53 157.829 209.25C157.956 208.97 158.027 208.667 158.037 208.36C158.047 208.052 157.996 207.745 157.888 207.457L155.153 200.211L157.037 199.5ZM101.123 220.604L103.857 227.85C103.965 228.138 104.129 228.401 104.34 228.626C104.55 228.85 104.802 229.031 105.083 229.158C105.363 229.284 105.665 229.355 105.973 229.364C106.28 229.374 106.586 229.323 106.874 229.214L114.523 226.327L115.236 228.216L107.586 231.103C106.504 231.511 105.305 231.473 104.251 230.996C103.198 230.52 102.376 229.645 101.968 228.563L99.2329 221.317L101.123 220.604ZM87.9719 155.979L88.6848 157.867L81.0356 160.754C80.7478 160.863 80.4843 161.027 80.26 161.237C80.0357 161.447 79.8551 161.7 79.7285 161.98C79.6019 162.26 79.5318 162.563 79.5222 162.87C79.5126 163.178 79.5637 163.484 79.6726 163.771L82.4074 171.017L80.5184 171.731L77.7835 164.484C77.3754 163.403 77.4136 162.203 77.8898 161.149C78.3659 160.096 79.2411 159.274 80.3228 158.866L87.9719 155.979ZM122.32 143.015L129.969 140.128C131.051 139.72 132.251 139.758 133.304 140.235C134.358 140.711 135.179 141.586 135.588 142.668L138.323 149.914L136.438 150.625L133.703 143.379C133.594 143.091 133.43 142.828 133.219 142.603C133.008 142.379 132.755 142.199 132.475 142.072C132.194 141.946 131.891 141.876 131.584 141.866C131.276 141.857 130.97 141.908 130.682 142.017L123.033 144.904L122.32 143.015Z" fill="#E3E3FE"/>
<path d="M106.351 213.031C106.719 212.893 107.056 212.916 107.363 213.1C107.728 213.317 108.046 213.786 108.319 214.507C108.59 215.226 108.657 215.791 108.528 216.199C108.422 216.535 108.183 216.773 107.816 216.912C107.646 216.982 107.461 217.01 107.278 216.995C107.095 216.979 106.918 216.92 106.761 216.822C106.424 216.625 106.122 216.16 105.847 215.431C105.577 214.715 105.506 214.154 105.635 213.745C105.746 213.408 105.984 213.17 106.351 213.031ZM106.579 213.635C106.492 213.668 106.419 213.729 106.372 213.81C106.322 213.923 106.307 214.049 106.327 214.172C106.349 214.378 106.443 214.706 106.611 215.152C106.779 215.598 106.917 215.895 107.024 216.045C107.136 216.194 107.231 216.285 107.322 216.313C107.409 216.343 107.503 216.341 107.588 216.308C107.674 216.276 107.746 216.215 107.791 216.135C107.844 216.023 107.86 215.895 107.836 215.773C107.818 215.566 107.721 215.242 107.553 214.796C107.384 214.35 107.247 214.052 107.14 213.902C107.032 213.752 106.933 213.662 106.845 213.631C106.759 213.601 106.665 213.603 106.579 213.635ZM109.302 211.918C109.669 211.779 110.007 211.802 110.314 211.986C110.679 212.204 110.997 212.673 111.269 213.393C111.541 214.112 111.612 214.676 111.483 215.084C111.373 215.422 111.134 215.66 110.767 215.798C110.597 215.868 110.412 215.896 110.229 215.88C110.046 215.865 109.869 215.806 109.712 215.709C109.379 215.51 109.073 215.047 108.798 214.317C108.528 213.602 108.457 213.04 108.591 212.63C108.696 212.294 108.935 212.056 109.302 211.918ZM109.53 212.521C109.444 212.553 109.372 212.614 109.328 212.694C109.274 212.808 109.257 212.935 109.278 213.058C109.3 213.265 109.398 213.59 109.566 214.036C109.735 214.482 109.872 214.78 109.979 214.93C110.087 215.08 110.186 215.169 110.273 215.2C110.36 215.228 110.454 215.226 110.539 215.194C110.625 215.161 110.696 215.101 110.742 215.021C110.795 214.908 110.813 214.781 110.791 214.658C110.769 214.452 110.677 214.127 110.509 213.681C110.34 213.235 110.203 212.937 110.095 212.787C109.984 212.638 109.889 212.547 109.797 212.517C109.71 212.486 109.615 212.488 109.53 212.521H109.53ZM114.326 214.381L113.6 214.655L112.564 211.91C112.389 212.262 112.139 212.572 111.83 212.817L111.581 212.156C111.775 211.99 111.94 211.791 112.067 211.568C112.218 211.336 112.298 211.064 112.297 210.787L112.886 210.565L114.326 214.381ZM116.989 213.376L116.259 213.651L115.223 210.906C115.048 211.259 114.798 211.569 114.489 211.814L114.24 211.153C114.434 210.986 114.599 210.787 114.725 210.565C114.877 210.332 114.957 210.061 114.956 209.783L115.549 209.56L116.989 213.376ZM119.648 212.372L118.918 212.648L117.882 209.903C117.707 210.255 117.456 210.565 117.148 210.81L116.899 210.149C117.094 209.981 117.259 209.782 117.389 209.56C117.537 209.327 117.615 209.056 117.615 208.78L118.207 208.556L119.648 212.372ZM120.526 207.681C120.893 207.543 121.23 207.566 121.537 207.75C121.902 207.968 122.221 208.437 122.493 209.157C122.764 209.876 122.836 210.44 122.707 210.848C122.597 211.185 122.358 211.424 121.991 211.562C121.82 211.632 121.636 211.66 121.453 211.644C121.269 211.629 121.092 211.57 120.936 211.473C120.603 211.274 120.297 210.811 120.022 210.081C119.752 209.366 119.681 208.804 119.814 208.394C119.92 208.058 120.159 207.82 120.526 207.681ZM120.754 208.285C120.668 208.317 120.596 208.379 120.551 208.458C120.497 208.571 120.481 208.698 120.506 208.82C120.524 209.029 120.622 209.354 120.79 209.8C120.958 210.246 121.096 210.544 121.203 210.694C121.31 210.844 121.41 210.933 121.497 210.964C121.583 210.993 121.677 210.991 121.763 210.958C121.85 210.926 121.923 210.864 121.97 210.784C122.02 210.67 122.035 210.544 122.015 210.422C121.993 210.217 121.9 209.891 121.732 209.445C121.564 208.999 121.426 208.701 121.319 208.551C121.212 208.401 121.112 208.311 121.02 208.282C120.934 208.251 120.839 208.252 120.754 208.285ZM123.481 206.566C123.848 206.428 124.186 206.45 124.493 206.635C124.858 206.852 125.172 207.323 125.444 208.044C125.715 208.763 125.786 209.326 125.657 209.734C125.552 210.07 125.313 210.308 124.946 210.447C124.776 210.517 124.591 210.545 124.408 210.529C124.224 210.514 124.047 210.455 123.891 210.357C123.554 210.16 123.252 209.695 122.977 208.965C122.707 208.25 122.636 207.688 122.765 207.28C122.875 206.943 123.11 206.706 123.481 206.566ZM123.709 207.17C123.622 207.202 123.549 207.264 123.502 207.345C123.452 207.458 123.436 207.584 123.457 207.706C123.479 207.913 123.572 208.241 123.741 208.686C123.909 209.132 124.047 209.43 124.154 209.58C124.261 209.73 124.36 209.82 124.452 209.848C124.539 209.878 124.633 209.876 124.718 209.843C124.804 209.811 124.875 209.75 124.92 209.67C124.974 209.557 124.99 209.43 124.965 209.308C124.948 209.101 124.851 208.777 124.683 208.331C124.514 207.885 124.377 207.587 124.269 207.437C124.162 207.287 124.063 207.197 123.975 207.166C123.889 207.136 123.795 207.137 123.709 207.17ZM126.432 205.452C126.799 205.314 127.136 205.337 127.443 205.521C127.808 205.738 128.127 206.208 128.399 206.928C128.67 207.647 128.742 208.211 128.613 208.619C128.503 208.956 128.264 209.195 127.897 209.333C127.727 209.403 127.542 209.432 127.359 209.416C127.175 209.401 126.998 209.342 126.842 209.244C126.509 209.045 126.203 208.582 125.928 207.852C125.658 207.137 125.587 206.575 125.721 206.165C125.826 205.829 126.065 205.591 126.432 205.452ZM126.66 206.056C126.574 206.088 126.502 206.149 126.457 206.229C126.404 206.342 126.386 206.469 126.408 206.593C126.43 206.8 126.523 207.127 126.692 207.573C126.86 208.019 126.998 208.317 127.109 208.465C127.216 208.615 127.316 208.705 127.403 208.735C127.49 208.764 127.584 208.762 127.669 208.729C127.754 208.697 127.826 208.636 127.871 208.557C127.925 208.444 127.942 208.317 127.921 208.193C127.899 207.988 127.807 207.662 127.638 207.216C127.47 206.77 127.332 206.472 127.221 206.324C127.114 206.174 127.018 206.082 126.926 206.053C126.84 206.022 126.745 206.023 126.66 206.056H126.66ZM131.456 207.916L130.73 208.189L129.694 205.444C129.519 205.797 129.269 206.107 128.96 206.352L128.711 205.691C128.905 205.524 129.07 205.326 129.196 205.103C129.346 204.87 129.426 204.599 129.427 204.322L130.016 204.1L131.456 207.916ZM134.114 206.912L133.389 207.186L132.353 204.441C132.178 204.794 131.927 205.104 131.619 205.348L131.369 204.687C131.564 204.521 131.728 204.322 131.855 204.1C132.006 203.867 132.086 203.596 132.086 203.318L132.674 203.096L134.114 206.912ZM136.778 205.907L136.048 206.182L135.011 203.437C134.837 203.79 134.586 204.1 134.278 204.345L134.028 203.684C134.223 203.517 134.387 203.319 134.514 203.096C134.665 202.864 134.745 202.592 134.744 202.315L135.337 202.091L136.778 205.907ZM139.437 204.903L138.707 205.179L137.671 202.434C137.496 202.787 137.245 203.097 136.937 203.341L136.687 202.68C136.883 202.514 137.049 202.314 137.177 202.091C137.325 201.858 137.404 201.587 137.404 201.311L137.996 201.087L139.437 204.903ZM140.315 200.213C140.686 200.073 141.019 200.097 141.326 200.281C141.691 200.499 142.01 200.968 142.282 201.689C142.553 202.408 142.624 202.971 142.495 203.379C142.385 203.717 142.151 203.953 141.779 204.094C141.609 204.163 141.425 204.191 141.241 204.176C141.058 204.16 140.881 204.102 140.725 204.004C140.392 203.805 140.085 203.342 139.81 202.612C139.54 201.897 139.47 201.335 139.603 200.926C139.709 200.59 139.947 200.351 140.315 200.213ZM140.543 200.817C140.457 200.849 140.385 200.91 140.34 200.99C140.286 201.102 140.27 201.229 140.295 201.352C140.313 201.56 140.41 201.886 140.579 202.332C140.747 202.777 140.885 203.075 140.992 203.225C141.099 203.375 141.198 203.465 141.286 203.495C141.372 203.524 141.466 203.522 141.551 203.489C141.638 203.457 141.712 203.395 141.758 203.315C141.808 203.201 141.824 203.075 141.803 202.953C141.782 202.748 141.689 202.422 141.521 201.976C141.352 201.53 141.215 201.232 141.107 201.082C141 200.932 140.901 200.842 140.809 200.813C140.722 200.782 140.628 200.783 140.543 200.817ZM143.27 199.098C143.637 198.959 143.974 198.982 144.281 199.166C144.646 199.384 144.965 199.853 145.237 200.573C145.508 201.292 145.575 201.857 145.446 202.265C145.34 202.601 145.102 202.84 144.734 202.978C144.564 203.048 144.38 203.076 144.196 203.061C144.013 203.045 143.836 202.986 143.68 202.889C143.342 202.691 143.041 202.226 142.765 201.497C142.495 200.781 142.425 200.22 142.554 199.812C142.664 199.474 142.903 199.236 143.27 199.098ZM143.498 199.701C143.411 199.734 143.337 199.795 143.291 199.876C143.241 199.99 143.225 200.115 143.245 200.238C143.268 200.445 143.361 200.772 143.529 201.218C143.698 201.664 143.835 201.962 143.942 202.112C144.05 202.262 144.149 202.351 144.241 202.38C144.327 202.41 144.421 202.408 144.506 202.374C144.592 202.342 144.664 202.281 144.709 202.201C144.763 202.089 144.779 201.962 144.754 201.839C144.737 201.632 144.639 201.308 144.471 200.862C144.303 200.416 144.165 200.119 144.058 199.968C143.951 199.818 143.851 199.728 143.764 199.697C143.677 199.667 143.583 199.669 143.498 199.701H143.498ZM146.221 197.984C146.588 197.845 146.925 197.868 147.232 198.052C147.597 198.27 147.916 198.739 148.188 199.46C148.459 200.179 148.53 200.742 148.401 201.15C148.291 201.488 148.053 201.726 147.685 201.864C147.515 201.934 147.331 201.963 147.147 201.947C146.964 201.932 146.787 201.873 146.631 201.775C146.298 201.576 145.991 201.113 145.716 200.383C145.446 199.668 145.376 199.106 145.509 198.697C145.615 198.361 145.853 198.122 146.221 197.984ZM146.449 198.588C146.362 198.619 146.29 198.68 146.246 198.761C146.192 198.874 146.175 199.001 146.196 199.124C146.219 199.331 146.312 199.658 146.48 200.104C146.649 200.55 146.791 200.846 146.898 200.996C147.005 201.146 147.104 201.236 147.192 201.266C147.278 201.296 147.372 201.294 147.457 201.261C147.543 201.229 147.615 201.168 147.66 201.088C147.713 200.975 147.731 200.848 147.709 200.724C147.688 200.519 147.595 200.193 147.427 199.747C147.258 199.301 147.121 199.003 147.009 198.855C146.902 198.705 146.802 198.615 146.715 198.584C146.628 198.553 146.534 198.554 146.449 198.588Z" fill="#20238C"/>
<path d="M110.748 222.767L110.019 223.042L108.983 220.297C108.808 220.65 108.557 220.96 108.249 221.205L107.999 220.544C108.194 220.377 108.358 220.178 108.485 219.956C108.636 219.723 108.716 219.452 108.716 219.175L109.308 218.951L110.748 222.767ZM113.407 221.763L112.677 222.039L111.641 219.294C111.467 219.645 111.218 219.955 110.912 220.2L110.662 219.539C110.856 219.372 111.02 219.173 111.148 218.951C111.298 218.719 111.377 218.448 111.375 218.171L111.967 217.948L113.407 221.763ZM116.066 220.76L115.336 221.035L114.3 218.29C114.126 218.642 113.877 218.951 113.571 219.196L113.321 218.535C113.515 218.368 113.679 218.169 113.807 217.948C113.956 217.714 114.036 217.443 114.038 217.166L114.626 216.944L116.066 220.76ZM116.949 216.067C117.316 215.929 117.653 215.952 117.96 216.136C118.321 216.355 118.639 216.824 118.911 217.545C119.183 218.264 119.254 218.827 119.125 219.235C119.019 219.571 118.781 219.81 118.413 219.948C118.242 220.018 118.057 220.046 117.873 220.031C117.689 220.016 117.511 219.957 117.354 219.86C117.021 219.661 116.72 219.196 116.444 218.467C116.174 217.751 116.104 217.19 116.233 216.782C116.338 216.446 116.577 216.208 116.949 216.067ZM117.177 216.671C117.089 216.704 117.016 216.765 116.97 216.846C116.916 216.958 116.9 217.085 116.924 217.208C116.947 217.415 117.04 217.742 117.208 218.188C117.376 218.634 117.514 218.932 117.621 219.082C117.729 219.232 117.828 219.321 117.915 219.352C118.003 219.38 118.099 219.378 118.185 219.344C118.271 219.312 118.342 219.251 118.388 219.172C118.438 219.058 118.453 218.932 118.433 218.809C118.411 218.604 118.318 218.278 118.15 217.832C117.982 217.387 117.844 217.089 117.737 216.939C117.63 216.789 117.53 216.699 117.442 216.668C117.356 216.638 117.262 216.64 117.177 216.671ZM119.899 214.954C120.267 214.815 120.604 214.838 120.911 215.022C121.276 215.24 121.594 215.709 121.867 216.43C122.138 217.148 122.209 217.712 122.076 218.122C121.97 218.458 121.731 218.696 121.364 218.834C121.194 218.904 121.01 218.933 120.826 218.917C120.643 218.902 120.466 218.843 120.31 218.745C119.977 218.546 119.67 218.083 119.395 217.353C119.125 216.638 119.055 216.076 119.184 215.668C119.294 215.33 119.532 215.092 119.899 214.954ZM120.127 215.558C120.041 215.589 119.969 215.65 119.925 215.731C119.871 215.844 119.854 215.971 119.875 216.094C119.898 216.301 119.991 216.628 120.159 217.074C120.327 217.52 120.465 217.818 120.572 217.968C120.684 218.116 120.779 218.207 120.87 218.236C120.957 218.266 121.051 218.264 121.136 218.23C121.222 218.199 121.294 218.138 121.339 218.058C121.392 217.945 121.408 217.818 121.384 217.695C121.366 217.489 121.273 217.163 121.105 216.717C120.937 216.271 120.795 215.975 120.688 215.824C120.581 215.674 120.481 215.584 120.393 215.553C120.307 215.523 120.213 215.525 120.127 215.557L120.127 215.558ZM122.85 213.84C123.217 213.701 123.554 213.724 123.861 213.909C124.226 214.126 124.545 214.595 124.817 215.316C125.088 216.035 125.16 216.598 125.031 217.006C124.921 217.344 124.682 217.582 124.315 217.721C124.144 217.79 123.96 217.818 123.777 217.803C123.593 217.787 123.416 217.729 123.26 217.632C122.927 217.432 122.621 216.969 122.346 216.24C122.076 215.524 122.005 214.963 122.139 214.553C122.244 214.217 122.483 213.979 122.85 213.84ZM123.078 214.444C122.992 214.476 122.92 214.537 122.875 214.617C122.821 214.729 122.805 214.856 122.83 214.979C122.848 215.187 122.946 215.513 123.114 215.959C123.282 216.405 123.42 216.702 123.527 216.852C123.634 217.003 123.734 217.092 123.821 217.123C123.907 217.152 124.001 217.15 124.087 217.117C124.174 217.085 124.247 217.023 124.294 216.943C124.344 216.829 124.359 216.703 124.339 216.58C124.317 216.375 124.224 216.049 124.056 215.603C123.888 215.157 123.75 214.86 123.643 214.71C123.536 214.56 123.436 214.47 123.344 214.44C123.258 214.409 123.163 214.411 123.078 214.444L123.078 214.444ZM127.878 216.302L127.148 216.577L126.112 213.832C125.937 214.185 125.687 214.495 125.378 214.74L125.129 214.079C125.323 213.912 125.488 213.713 125.615 213.491C125.766 213.258 125.846 212.987 125.845 212.709L126.438 212.486L127.878 216.302ZM130.537 215.298L129.807 215.574L128.771 212.829C128.597 213.181 128.346 213.491 128.037 213.736L127.788 213.075C127.983 212.909 128.147 212.71 128.274 212.487C128.425 212.255 128.505 211.983 128.505 211.706L129.097 211.482L130.537 215.298ZM133.196 214.295L132.466 214.57L131.43 211.825C131.256 212.177 131.007 212.486 130.7 212.731L130.451 212.07C130.645 211.903 130.809 211.704 130.937 211.483C131.087 211.25 131.165 210.979 131.163 210.703L131.756 210.479L133.196 214.295ZM135.855 213.291L135.125 213.567L134.089 210.822C133.915 211.173 133.666 211.482 133.359 211.728L133.11 211.067C133.304 210.899 133.468 210.701 133.596 210.479C133.745 210.246 133.825 209.975 133.826 209.698L134.415 209.476L135.855 213.291ZM136.737 208.599C137.104 208.46 137.442 208.483 137.749 208.667C138.114 208.885 138.428 209.356 138.7 210.076C138.971 210.795 139.042 211.359 138.913 211.767C138.808 212.103 138.569 212.341 138.202 212.479C138.031 212.549 137.846 212.577 137.662 212.562C137.478 212.547 137.3 212.489 137.143 212.392C136.81 212.192 136.508 211.728 136.233 210.998C135.963 210.283 135.892 209.721 136.021 209.313C136.131 208.976 136.366 208.739 136.737 208.599ZM136.965 209.203C136.878 209.235 136.805 209.297 136.758 209.377C136.708 209.491 136.692 209.617 136.713 209.739C136.735 209.946 136.828 210.273 136.997 210.719C137.165 211.165 137.303 211.463 137.41 211.613C137.517 211.763 137.617 211.852 137.708 211.881C137.795 211.911 137.889 211.909 137.974 211.875C138.059 211.843 138.131 211.782 138.176 211.703C138.23 211.59 138.246 211.463 138.221 211.341C138.204 211.134 138.107 210.81 137.939 210.364C137.77 209.918 137.633 209.62 137.525 209.47C137.418 209.32 137.319 209.23 137.231 209.199C137.145 209.169 137.051 209.171 136.965 209.203H136.965ZM139.688 207.485C140.055 207.347 140.392 207.369 140.7 207.554C141.065 207.771 141.383 208.24 141.655 208.961C141.927 209.68 141.998 210.243 141.864 210.653C141.759 210.989 141.52 211.227 141.153 211.366C140.983 211.436 140.798 211.464 140.615 211.448C140.431 211.433 140.254 211.374 140.098 211.276C139.765 211.077 139.459 210.614 139.184 209.884C138.914 209.169 138.843 208.607 138.972 208.199C139.082 207.862 139.321 207.624 139.688 207.485ZM139.916 208.089C139.83 208.12 139.758 208.182 139.713 208.262C139.66 208.375 139.642 208.502 139.664 208.625C139.686 208.832 139.779 209.16 139.948 209.605C140.116 210.051 140.254 210.349 140.365 210.498C140.472 210.648 140.568 210.739 140.659 210.768C140.745 210.798 140.84 210.796 140.925 210.762C141.011 210.731 141.083 210.67 141.127 210.59C141.181 210.476 141.198 210.349 141.177 210.226C141.155 210.021 141.062 209.695 140.894 209.249C140.726 208.803 140.588 208.505 140.477 208.356C140.369 208.206 140.27 208.116 140.182 208.085C140.096 208.055 140.002 208.056 139.916 208.089ZM144.712 209.948L143.986 210.222L142.95 207.477C142.774 207.829 142.524 208.139 142.216 208.385L141.967 207.724C142.161 207.557 142.326 207.358 142.452 207.136C142.602 206.903 142.682 206.632 142.683 206.355L143.272 206.133L144.712 209.948ZM147.371 208.945L146.645 209.219L145.609 206.474C145.434 206.827 145.183 207.136 144.875 207.381L144.626 206.72C144.82 206.554 144.984 206.355 145.111 206.133C145.262 205.9 145.342 205.628 145.342 205.351L145.93 205.129L147.371 208.945ZM148.253 204.253C148.62 204.114 148.957 204.137 149.264 204.321C149.629 204.539 149.948 205.008 150.22 205.728C150.491 206.447 150.563 207.011 150.429 207.42C150.324 207.757 150.085 207.995 149.718 208.133C149.547 208.203 149.363 208.231 149.18 208.216C148.996 208.2 148.819 208.141 148.663 208.044C148.33 207.844 148.024 207.381 147.749 206.652C147.479 205.936 147.408 205.375 147.537 204.967C147.647 204.629 147.886 204.391 148.253 204.253ZM148.481 204.856C148.395 204.888 148.323 204.949 148.278 205.029C148.225 205.143 148.207 205.269 148.229 205.393C148.251 205.6 148.344 205.927 148.513 206.373C148.681 206.819 148.818 207.117 148.926 207.267C149.037 207.415 149.132 207.506 149.224 207.535C149.31 207.565 149.405 207.563 149.49 207.529C149.576 207.498 149.648 207.437 149.692 207.356C149.746 207.243 149.763 207.116 149.742 206.993C149.72 206.787 149.623 206.463 149.455 206.018C149.286 205.572 149.149 205.274 149.041 205.124C148.934 204.974 148.835 204.884 148.747 204.853C148.661 204.823 148.566 204.824 148.481 204.856Z" fill="#20238C"/>
<path fill-rule="evenodd" clip-rule="evenodd" d="M124.399 196.639C123.533 197.179 122.56 197.524 121.547 197.65C121.472 197.658 121.399 197.682 121.333 197.719C121.266 197.755 121.208 197.805 121.161 197.865C121.114 197.924 121.079 197.993 121.059 198.066C121.038 198.139 121.033 198.215 121.042 198.291C121.052 198.366 121.076 198.439 121.114 198.505C121.152 198.57 121.202 198.628 121.262 198.674C121.323 198.721 121.391 198.754 121.465 198.774C121.538 198.793 121.615 198.798 121.69 198.787C122.867 198.641 123.998 198.24 125.005 197.612C125.133 197.531 125.223 197.403 125.257 197.256C125.291 197.108 125.265 196.953 125.185 196.825C125.105 196.697 124.977 196.605 124.83 196.57C124.683 196.536 124.528 196.56 124.399 196.639ZM127.798 192.053C127.488 193.043 127.012 193.973 126.39 194.803C126.345 194.863 126.312 194.932 126.293 195.005C126.274 195.078 126.27 195.154 126.28 195.228C126.291 195.303 126.316 195.375 126.354 195.44C126.392 195.505 126.443 195.562 126.503 195.607C126.564 195.652 126.632 195.686 126.705 195.704C126.778 195.723 126.854 195.728 126.929 195.717C127.004 195.707 127.075 195.682 127.14 195.643C127.205 195.605 127.262 195.554 127.308 195.494C128.005 194.56 128.54 193.514 128.891 192.403C128.935 192.258 128.921 192.102 128.851 191.968C128.781 191.834 128.661 191.733 128.517 191.687C128.374 191.641 128.217 191.654 128.083 191.723C127.948 191.791 127.846 191.91 127.798 192.053ZM118.837 197.485C117.829 197.24 116.869 196.825 116 196.259C115.871 196.177 115.716 196.149 115.567 196.182C115.418 196.215 115.288 196.305 115.206 196.433C115.124 196.562 115.096 196.717 115.129 196.866C115.162 197.015 115.252 197.145 115.38 197.227C116.359 197.857 117.436 198.322 118.566 198.602C118.714 198.637 118.869 198.612 118.999 198.533C119.129 198.454 119.222 198.326 119.258 198.179C119.293 198.031 119.269 197.875 119.19 197.745C119.111 197.615 118.984 197.522 118.837 197.486V197.485ZM128.08 186.176C128.281 187.209 128.354 188.263 128.297 189.313C128.289 189.465 128.341 189.614 128.442 189.727C128.544 189.841 128.686 189.909 128.838 189.918C128.989 189.927 129.138 189.875 129.252 189.774C129.366 189.673 129.434 189.531 129.443 189.379C129.505 188.233 129.424 187.083 129.202 185.957C129.188 185.883 129.16 185.812 129.119 185.749C129.078 185.685 129.024 185.631 128.962 185.588C128.899 185.545 128.829 185.516 128.755 185.5C128.681 185.485 128.604 185.485 128.53 185.499C128.456 185.514 128.385 185.543 128.322 185.585C128.259 185.627 128.205 185.681 128.164 185.744C128.122 185.807 128.093 185.877 128.078 185.952C128.064 186.026 128.064 186.102 128.08 186.176ZM113.858 194.474C113.137 193.706 112.514 192.852 112.004 191.931C111.968 191.865 111.919 191.807 111.86 191.76C111.802 191.713 111.734 191.679 111.662 191.658C111.59 191.637 111.515 191.631 111.44 191.639C111.365 191.648 111.293 191.671 111.227 191.707C111.095 191.781 110.996 191.905 110.954 192.051C110.912 192.197 110.93 192.354 111.003 192.487C111.557 193.492 112.236 194.423 113.021 195.259C113.125 195.37 113.269 195.435 113.421 195.44C113.572 195.445 113.72 195.389 113.831 195.285C113.94 195.18 114.005 195.037 114.01 194.885C114.015 194.733 113.961 194.586 113.858 194.474ZM125.692 180.75C126.319 181.597 126.844 182.516 127.255 183.487C127.285 183.556 127.327 183.618 127.381 183.671C127.435 183.724 127.498 183.766 127.568 183.794C127.637 183.822 127.712 183.836 127.787 183.836C127.862 183.835 127.937 183.82 128.006 183.79C128.075 183.761 128.138 183.718 128.191 183.665C128.243 183.611 128.285 183.548 128.313 183.478C128.341 183.408 128.356 183.334 128.355 183.258C128.354 183.183 128.339 183.109 128.31 183.04C127.862 181.986 127.293 180.987 126.615 180.065C126.523 179.946 126.388 179.868 126.238 179.847C126.089 179.826 125.938 179.865 125.817 179.955C125.696 180.044 125.616 180.178 125.592 180.327C125.569 180.476 125.605 180.627 125.692 180.75H125.692ZM110.902 189.342C110.59 188.336 110.4 187.295 110.335 186.244C110.33 186.169 110.311 186.095 110.278 186.027C110.245 185.96 110.199 185.899 110.143 185.849C110.087 185.799 110.022 185.761 109.95 185.736C109.879 185.712 109.804 185.701 109.729 185.706C109.654 185.71 109.58 185.729 109.513 185.762C109.445 185.795 109.385 185.841 109.335 185.897C109.285 185.953 109.246 186.019 109.222 186.09C109.197 186.161 109.187 186.236 109.191 186.311C109.261 187.455 109.467 188.586 109.807 189.681C109.853 189.826 109.954 189.947 110.089 190.018C110.224 190.088 110.382 190.103 110.527 190.058C110.599 190.035 110.666 189.999 110.723 189.951C110.781 189.903 110.828 189.844 110.863 189.778C110.898 189.711 110.919 189.638 110.926 189.564C110.932 189.489 110.924 189.414 110.901 189.342L110.902 189.342ZM121.127 177.08C122.089 177.485 122.982 178.034 123.777 178.71C123.834 178.758 123.901 178.795 123.973 178.818C124.044 178.84 124.12 178.848 124.195 178.842C124.27 178.835 124.343 178.814 124.409 178.779C124.476 178.745 124.535 178.697 124.584 178.64C124.632 178.582 124.669 178.515 124.691 178.444C124.714 178.372 124.722 178.296 124.716 178.221C124.709 178.146 124.688 178.074 124.653 178.007C124.618 177.94 124.571 177.881 124.513 177.832C123.629 177.084 122.636 176.474 121.569 176.022C121.429 175.964 121.271 175.963 121.13 176.021C120.99 176.079 120.878 176.19 120.819 176.33C120.761 176.471 120.76 176.628 120.818 176.769C120.876 176.91 120.987 177.022 121.127 177.08ZM110.498 183.451C110.673 182.425 111.007 181.433 111.487 180.51C111.523 180.443 111.546 180.37 111.553 180.295C111.561 180.22 111.553 180.144 111.531 180.071C111.509 179.999 111.473 179.932 111.425 179.873C111.377 179.815 111.317 179.767 111.251 179.732C111.184 179.696 111.111 179.674 111.035 179.668C110.96 179.661 110.884 179.669 110.812 179.691C110.74 179.714 110.673 179.75 110.615 179.799C110.557 179.848 110.509 179.907 110.474 179.974C109.94 181.003 109.566 182.108 109.366 183.25C109.34 183.4 109.374 183.554 109.461 183.678C109.549 183.803 109.682 183.888 109.832 183.915C109.981 183.941 110.136 183.907 110.261 183.82C110.386 183.733 110.471 183.6 110.498 183.451H110.498ZM115.39 176.911L115.473 176.878C116.429 176.52 117.451 176.37 118.47 176.44C118.62 176.448 118.768 176.397 118.881 176.297C118.993 176.196 119.062 176.056 119.072 175.905C119.082 175.755 119.032 175.607 118.933 175.493C118.835 175.379 118.695 175.308 118.545 175.296C117.4 175.218 116.252 175.379 115.173 175.768L115.068 175.806C114.064 176.186 113.143 176.758 112.358 177.492C112.247 177.595 112.181 177.739 112.176 177.891C112.171 178.043 112.226 178.191 112.33 178.302C112.433 178.413 112.577 178.479 112.729 178.484C112.881 178.489 113.029 178.434 113.14 178.33C113.794 177.72 114.557 177.238 115.39 176.91L115.39 176.911ZM121.912 192.513C121.762 192.589 121.608 192.657 121.45 192.717C119.752 193.358 117.884 192.907 116.441 191.724C116.383 191.676 116.316 191.64 116.244 191.618C116.172 191.597 116.097 191.589 116.022 191.597C115.947 191.604 115.875 191.626 115.809 191.662C115.742 191.697 115.684 191.745 115.636 191.803C115.589 191.861 115.553 191.928 115.531 192C115.509 192.072 115.502 192.147 115.509 192.222C115.517 192.297 115.539 192.369 115.574 192.436C115.61 192.502 115.658 192.56 115.716 192.608C117.478 194.058 119.773 194.575 121.855 193.79C122.052 193.716 122.244 193.63 122.431 193.535C122.499 193.501 122.56 193.454 122.609 193.397C122.659 193.34 122.697 193.273 122.721 193.201C122.745 193.13 122.754 193.054 122.748 192.978C122.743 192.903 122.722 192.829 122.688 192.761C122.653 192.694 122.606 192.634 122.548 192.585C122.491 192.536 122.424 192.498 122.352 192.475C122.279 192.452 122.203 192.444 122.128 192.45C122.053 192.457 121.979 192.478 121.912 192.513V192.513ZM124.088 184.985C124.121 185.066 124.153 185.147 124.184 185.23C124.919 187.178 124.721 189.223 123.796 190.739C123.756 190.803 123.73 190.874 123.719 190.949C123.707 191.023 123.71 191.099 123.728 191.172C123.746 191.246 123.778 191.315 123.822 191.375C123.867 191.436 123.923 191.488 123.987 191.527C124.051 191.566 124.123 191.592 124.197 191.604C124.271 191.615 124.347 191.612 124.421 191.594C124.494 191.577 124.563 191.545 124.624 191.5C124.684 191.456 124.736 191.4 124.775 191.336C125.868 189.544 126.127 187.128 125.257 184.825C125.221 184.729 125.185 184.634 125.143 184.541C125.114 184.471 125.072 184.408 125.018 184.355C124.965 184.301 124.902 184.259 124.832 184.23C124.762 184.201 124.687 184.187 124.612 184.187C124.536 184.187 124.462 184.202 124.392 184.232C124.322 184.261 124.259 184.304 124.206 184.357C124.153 184.411 124.111 184.475 124.083 184.545C124.055 184.615 124.041 184.69 124.041 184.765C124.042 184.841 124.058 184.915 124.088 184.985ZM114.769 189.626C114.647 189.392 114.54 189.151 114.448 188.904C113.783 187.144 113.884 185.304 114.59 183.847C114.657 183.71 114.666 183.552 114.616 183.408C114.566 183.265 114.461 183.147 114.324 183.08C114.188 183.014 114.03 183.005 113.886 183.055C113.742 183.105 113.624 183.209 113.558 183.346C112.724 185.065 112.591 187.233 113.375 189.309C113.482 189.596 113.607 189.876 113.747 190.148C113.817 190.282 113.937 190.383 114.081 190.429C114.225 190.474 114.382 190.461 114.516 190.393C114.651 190.324 114.753 190.205 114.8 190.061C114.847 189.917 114.836 189.761 114.769 189.626ZM117.124 181.44L117.185 181.416C119.039 180.716 121.099 181.319 122.579 182.759C122.688 182.863 122.834 182.921 122.986 182.918C123.137 182.915 123.281 182.853 123.387 182.744C123.493 182.636 123.551 182.49 123.55 182.338C123.548 182.187 123.487 182.042 123.379 181.936C121.597 180.206 119.123 179.511 116.885 180.305L116.78 180.343C116.384 180.493 116.006 180.686 115.652 180.919C115.59 180.961 115.536 181.015 115.494 181.077C115.452 181.14 115.422 181.21 115.407 181.284C115.393 181.358 115.392 181.434 115.407 181.508C115.421 181.582 115.45 181.652 115.492 181.715C115.534 181.777 115.587 181.831 115.65 181.873C115.713 181.915 115.783 181.945 115.857 181.96C115.93 181.974 116.007 181.975 116.08 181.96C116.154 181.946 116.225 181.917 116.287 181.875C116.55 181.701 116.83 181.555 117.123 181.44L117.124 181.44ZM120.433 187.025C120.122 187.196 119.8 187.344 119.467 187.469C119.056 187.627 118.63 187.745 118.196 187.823C118.122 187.836 118.051 187.863 117.987 187.903C117.923 187.943 117.868 187.995 117.824 188.057C117.781 188.118 117.75 188.187 117.733 188.261C117.716 188.334 117.714 188.41 117.727 188.484C117.74 188.559 117.767 188.63 117.807 188.693C117.847 188.757 117.899 188.812 117.961 188.856C118.022 188.899 118.091 188.93 118.165 188.947C118.238 188.964 118.314 188.966 118.388 188.953C118.895 188.863 119.392 188.725 119.872 188.541C120.257 188.397 120.63 188.225 120.99 188.027C121.123 187.953 121.221 187.829 121.263 187.683C121.304 187.537 121.286 187.38 121.213 187.247C121.139 187.114 121.015 187.016 120.869 186.974C120.723 186.933 120.566 186.951 120.433 187.024L120.433 187.025ZM119.032 186.717L119.164 186.665C119.986 186.355 120.764 186.208 121.285 186.257C121.36 186.265 121.436 186.258 121.509 186.236C121.581 186.214 121.648 186.178 121.707 186.13C121.766 186.082 121.814 186.023 121.849 185.956C121.885 185.889 121.907 185.816 121.914 185.74C121.921 185.665 121.913 185.589 121.891 185.517C121.868 185.444 121.831 185.377 121.783 185.319C121.734 185.261 121.675 185.213 121.607 185.178C121.54 185.143 121.467 185.122 121.391 185.116C120.764 185.058 119.836 185.2 118.855 185.557L118.759 185.593C117.905 185.915 117.184 186.334 116.715 186.738C116.657 186.787 116.61 186.847 116.575 186.915C116.541 186.982 116.52 187.056 116.514 187.131C116.508 187.207 116.517 187.283 116.541 187.355C116.565 187.427 116.602 187.493 116.652 187.55C116.701 187.608 116.761 187.655 116.829 187.689C116.897 187.723 116.971 187.743 117.046 187.748C117.122 187.753 117.198 187.743 117.269 187.719C117.341 187.695 117.407 187.657 117.464 187.607C117.827 187.293 118.382 186.975 119.032 186.717Z" fill="#6562F9"/>
<path fill-rule="evenodd" clip-rule="evenodd" d="M81.5607 106.429C70.3026 113.381 45.3574 135.213 48.9522 151.717C54.1485 175.559 78.7769 200.709 78.7769 200.709C79.7219 208.955 86.7659 210.85 88.2437 211.38C89.5203 211.837 84.5221 200.249 85.0612 199.32C86.7968 196.337 90.2137 200.852 91.0056 197.935C91.5074 196.093 87.1404 192.719 83.2573 193.149C83.2573 193.149 65.7137 160.309 70.704 145.564C75.6981 130.819 110.804 131.923 113.21 104.681C113.854 97.4004 110.972 88.2661 81.5607 106.429Z" fill="#FB9C9A"/>
<mask id="mask1_34_195" style="mask-type:luminance" maskUnits="userSpaceOnUse" x="48" y="95" width="66" height="117">
<path d="M81.5607 106.429C70.3026 113.381 45.3574 135.213 48.9522 151.717C54.1485 175.559 78.7769 200.709 78.7769 200.709C79.7219 208.955 86.7659 210.85 88.2437 211.38C89.5203 211.837 84.5221 200.249 85.0612 199.32C86.7968 196.337 90.2137 200.852 91.0056 197.935C91.5074 196.093 87.1404 192.719 83.2573 193.149C83.2573 193.149 65.7137 160.309 70.704 145.564C75.6981 130.819 110.804 131.923 113.21 104.681C113.854 97.4004 110.972 88.2661 81.5607 106.429Z" fill="white"/>
</mask>
<g mask="url(#mask1_34_195)">
<path fill-rule="evenodd" clip-rule="evenodd" d="M94.2371 175.341C107.596 159.042 129.023 146.223 131.409 123.42C133.084 107.42 122.362 95.8346 108.173 90.2331C86.0764 81.5128 57.6995 83.5523 37.4856 96.1665C8.46197 114.279 6.25929 153.632 25.151 179.867C31.0057 187.996 38.7383 195.64 48.5426 198.644C55.8665 200.888 69.4688 201.478 74.1593 193.512C75.7073 190.884 74.0144 187.442 75.9454 185.051C77.4113 183.232 79.9504 183.379 81.7596 182.103C84.7296 180.018 84.3017 174.791 83.2013 171.79L94.2371 175.341Z" fill="url(#paint6_linear_34_195)"/>
</g>
<path fill-rule="evenodd" clip-rule="evenodd" d="M277.209 86.5903C277.209 86.5903 263.276 82.4887 253.438 71.8801C242.389 81.8165 228.001 86.5903 228.001 86.5903V108.997C228.001 113.374 229.116 117.678 231.241 121.503C233.367 125.328 236.432 128.549 240.148 130.861C240.551 131.114 240.957 131.364 241.357 131.614C244.647 133.661 248.441 134.757 252.316 134.778C256.192 134.799 259.997 133.746 263.31 131.736C267.553 129.162 271.061 125.538 273.495 121.214C275.929 116.89 277.208 112.011 277.209 107.049V86.5903Z" fill="url(#paint7_linear_34_195)"/>
<path fill-rule="evenodd" clip-rule="evenodd" d="M270.692 91.4377C270.692 91.4377 260.449 88.4072 253.217 80.5693C245.094 87.9106 234.517 91.4377 234.517 91.4377V108.023C234.517 111.249 235.337 114.421 236.9 117.242C238.463 120.063 240.718 122.441 243.452 124.151C243.743 124.331 244.035 124.513 244.323 124.695C246.744 126.208 249.538 127.018 252.392 127.034C255.247 127.05 258.05 126.271 260.487 124.785H260.49C263.606 122.884 266.18 120.215 267.967 117.032C269.753 113.85 270.692 110.262 270.692 106.612V91.4377Z" fill="white"/>
<path fill-rule="evenodd" clip-rule="evenodd" d="M242.452 109.084L249.22 118.153C249.785 118.908 250.647 119.333 251.543 119.299C251.997 119.278 252.438 119.147 252.829 118.917C253.221 118.688 253.551 118.368 253.792 117.983L266.434 98.4136C267.33 97.0236 267.01 95.112 265.715 94.1469C264.419 93.1818 262.644 93.5283 261.742 94.9182L251.281 111.113L246.903 105.249C245.922 103.929 244.124 103.716 242.897 104.774C241.664 105.832 241.47 107.764 242.452 109.084Z" fill="url(#paint8_linear_34_195)"/>
<path fill-rule="evenodd" clip-rule="evenodd" d="M225.577 108.667C225.988 106.349 227.305 103.98 228.084 103.709C233.282 101.901 236.033 107.096 230.676 108.707C228.084 109.487 225.488 116.177 225.488 116.177C225.488 116.177 225.266 110.444 225.577 108.667Z" fill="#FB9C9A"/>
<path fill-rule="evenodd" clip-rule="evenodd" d="M129.514 66.4958C122.624 66.4958 117.601 72.8214 118.581 81.4077C119.277 87.4924 126.966 94.0349 133.267 94.652C138.462 95.1602 140.495 89.8895 140.495 81.248C140.495 72.6064 136.399 66.4958 129.514 66.4958Z" fill="url(#paint9_linear_34_195)"/>
<path fill-rule="evenodd" clip-rule="evenodd" d="M132.146 88.8509C132.277 88.2505 132.785 87.7178 133.199 87.2926C133.565 86.9187 133.947 86.5557 134.4 86.291C134.669 86.1222 134.962 85.9938 135.268 85.91C137.053 85.4809 137.905 86.994 139.291 87.7282C139.826 88.012 140.399 88.0628 140.994 88.0841C142.686 90.6641 139.684 93.4879 137.484 94.4082C136.387 94.8684 133.521 98.5103 130.028 94.3236C129.236 93.3771 124.946 93.6636 126.289 88.8526C126.638 87.5939 126.13 85.9902 126.038 84.6944C125.901 82.7943 126.054 80.5844 124.198 79.4193C123.905 79.2372 123.594 79.086 123.27 78.9679C123.041 78.8833 122.779 78.7021 122.561 78.8052C120.95 79.5536 123.598 82.5001 119.629 83.7107C119.886 85.0257 118.625 85.9488 117.468 86.1234C115.656 86.3974 113.713 85.6108 112.512 84.2342C111.404 82.9624 110.061 80.9826 109.832 79.3402C109.553 77.3293 109.652 72.9663 111.518 70.3839C112.976 68.3676 115.126 66.801 117.692 66.9582C117.664 66.449 118.003 65.9408 118.265 65.5332C118.881 64.5756 119.661 63.7337 120.568 63.0458C122.026 61.9541 123.827 61.1413 125.656 61.0038C128.107 60.8193 130.727 62.1762 131.791 64.4339C132.255 63.936 132.959 63.7761 133.603 63.6489C135.181 63.3373 136.665 63.5343 138.068 64.3449C141.109 66.1042 142.157 69.5337 140.874 72.7105C140.415 72.5626 139.88 72.5593 139.406 72.4905C138.259 72.3268 142.195 74.763 134.204 76.169C132.124 76.5347 129.04 74.9452 127.539 76.9005C126.556 78.1761 127.239 79.6984 127.441 81.1005C127.621 82.3548 127.528 83.637 127.763 84.8832C128.096 86.6561 129.455 88.8281 131.36 89.2256L132.146 88.8509Z" fill="url(#paint10_linear_34_195)"/>
<defs>
<linearGradient id="paint0_linear_34_195" x1="222.293" y1="155.909" x2="96.9501" y2="258.91" gradientUnits="userSpaceOnUse">
<stop stop-color="#E3DBF9"/>
<stop offset="0.54" stop-color="#CCBBFA"/>
<stop offset="1" stop-color="#7848FC"/>
</linearGradient>
<linearGradient id="paint1_linear_34_195" x1="177.551" y1="144.953" x2="137.373" y2="210.126" gradientUnits="userSpaceOnUse">
<stop stop-color="#E3DBF9"/>
<stop offset="0.54" stop-color="#CCBBFA"/>
<stop offset="1" stop-color="#7848FC"/>
</linearGradient>
<linearGradient id="paint2_linear_34_195" x1="18.265" y1="123.99" x2="127.575" y2="213.762" gradientUnits="userSpaceOnUse">
<stop stop-color="#E3DBF9"/>
<stop offset="0.56" stop-color="#CDBDFA"/>
<stop offset="1" stop-color="#7848FC"/>
</linearGradient>
<linearGradient id="paint3_linear_34_195" x1="169.19" y1="115.82" x2="176.113" y2="200.096" gradientUnits="userSpaceOnUse">
<stop stop-color="#272BAA"/>
<stop offset="0.45" stop-color="#1D2190"/>
<stop offset="1" stop-color="#050751"/>
</linearGradient>
<linearGradient id="paint4_linear_34_195" x1="130.341" y1="83.2607" x2="112.07" y2="177.082" gradientUnits="userSpaceOnUse">
<stop stop-color="#3E42D3"/>
<stop offset="1" stop-color="#050751"/>
</linearGradient>
<linearGradient id="paint5_linear_34_195" x1="117.017" y1="150.099" x2="110.718" y2="209.67" gradientUnits="userSpaceOnUse">
<stop stop-color="#E3E3FE"/>
<stop offset="0.47" stop-color="#BBBBFE"/>
<stop offset="1" stop-color="#4F4FFF"/>
</linearGradient>
<linearGradient id="paint6_linear_34_195" x1="106.769" y1="91.4231" x2="39.2411" y2="163.19" gradientUnits="userSpaceOnUse">
<stop stop-color="#292DB3"/>
<stop offset="0.56" stop-color="#22259F"/>
<stop offset="1" stop-color="#050751"/>
</linearGradient>
<linearGradient id="paint7_linear_34_195" x1="267.175" y1="72.5002" x2="221.097" y2="159.058" gradientUnits="userSpaceOnUse">
<stop stop-color="#AADBFF"/>
<stop offset="0.6" stop-color="#91D1FF"/>
<stop offset="0.81" stop-color="#5AB9FF"/>
<stop offset="1" stop-color="#22A1FF"/>
</linearGradient>
<linearGradient id="paint8_linear_34_195" x1="264.153" y1="86.1343" x2="235.466" y2="133.312" gradientUnits="userSpaceOnUse">
<stop stop-color="#AADBFF"/>
<stop offset="0.47" stop-color="#85CBFF"/>
<stop offset="1" stop-color="#22A1FF"/>
</linearGradient>
<linearGradient id="paint9_linear_34_195" x1="138.042" y1="69.0103" x2="119.371" y2="97.544" gradientUnits="userSpaceOnUse">
<stop stop-color="#FB9C9A"/>
<stop offset="0.64" stop-color="#FC8886"/>
<stop offset="0.84" stop-color="#FD5450"/>
<stop offset="1" stop-color="#FF1712"/>
</linearGradient>
<linearGradient id="paint10_linear_34_195" x1="132.481" y1="95.3157" x2="120.911" y2="58.7" gradientUnits="userSpaceOnUse">
<stop/>
<stop offset="0.53" stop-color="#121212"/>
<stop offset="1" stop-color="#4D4D4D"/>
</linearGradient>
</defs>
</svg>
