<svg width="300" height="300" viewBox="0 0 300 300" fill="none" xmlns="http://www.w3.org/2000/svg">
<path d="M95.7959 32.7702C127.546 11.8468 172.163 16.1117 200.231 47.1688C215.577 64.1554 221.81 87.5212 237.74 104.143C255.674 122.843 277.108 141.033 285.237 166.549C293.876 193.669 286.294 224.763 266.974 245.504C243.463 270.729 208.906 263.147 176.245 262.746C42.503 261.069 -56.9016 171.798 69.5869 61.7496C80.158 52.4908 85.2977 39.6597 95.7959 32.7702Z" fill="#CCE9FF"/>
<path d="M261.215 113.293C260.522 113.512 256.877 116.209 256.877 116.209L252.576 118.979L252.394 117.412C252.394 117.412 250.644 113.913 248.493 114.058C248.493 114.058 251.081 117.23 251.409 119.344C251.738 121.458 251.883 122.916 251.883 122.916L249.04 125.723L253.779 131.811L264.897 123.5C264.897 123.5 261.908 113.074 261.215 113.293Z" fill="#DBA17B"/>
<path d="M263.439 113.293L261.507 128.785L253.779 128.967L251.92 113.293H263.439Z" fill="#6562F9"/>
<path d="M265.115 113.512H250.535V111.981H251.92V109.575L263.767 111.324L263.803 112.199H265.115V113.694" fill="#0E538C"/>
<path d="M264.131 123.791C266.829 124.046 263.439 116.646 263.439 116.646C263.439 116.646 256.148 116.136 256.075 116.537C256.002 116.938 256.039 117.594 256.622 117.74C257.205 117.886 261.762 118.505 261.762 118.505C261.762 118.505 257.023 118.724 257.096 119.234C257.242 120 257.789 120.073 259.21 120.292C260.413 120.474 263.038 120.547 263.038 120.547C263.038 120.547 258.044 120.656 258.153 120.984C258.262 121.312 257.934 122.333 259.648 122.078C263.548 121.567 264.131 123.791 264.131 123.791Z" fill="#DBA17B"/>
<path d="M231.324 153.572C231.324 153.572 238.724 205.881 235.298 216.999C231.871 228.117 230.522 238.141 230.522 238.141L213.317 233.111C213.317 233.111 219.004 206.938 219.879 201.908C220.717 196.877 211.932 156.015 211.932 156.015L231.324 153.572Z" fill="#0B4870"/>
<path d="M223.196 157.327L215.067 241.422H198.627C198.627 241.422 203.949 152.406 203.001 151.64C202.053 150.948 223.196 157.327 223.196 157.327ZM229.684 106.075C229.684 106.075 231.434 134.289 235.188 133.269C238.979 132.284 249.113 124.921 249.113 124.921L255.273 131.701C255.273 131.701 236.501 152.588 228.773 144.058C221.081 135.492 229.684 106.075 229.684 106.075ZM224.617 255.492L225.747 249.806L213.755 244.994L211.859 253.451L212.515 253.56C215.213 254.8 228.299 260.851 230.34 261.033C232.6 261.252 224.617 255.492 224.617 255.492Z" fill="#0B4870"/>
<path d="M196.112 172.709L197.424 174.605C197.424 174.605 198.044 175.881 199.575 177.813C199.976 178.323 200.45 178.761 200.996 179.089C201.652 179.49 202.564 180 203.147 180.146C203.876 180.291 204.022 181.239 203.402 181.531C202.782 181.786 200.814 181.422 198.919 179.963C197.023 178.542 197.898 182.151 198.226 183.499C198.518 184.812 199.247 188.967 198.919 189.404C198.445 190.024 197.679 189.587 197.424 188.274C197.169 186.926 196.075 182.989 195.383 183.208C194.69 183.39 196.294 190.134 196.294 190.134C196.294 190.134 196.877 191.519 196.075 191.774C194.654 192.211 193.451 184.921 193.378 184.228C193.305 183.754 192.539 183.937 192.649 184.447C192.758 184.994 194.399 191.118 192.977 191.592C191.847 191.956 191.956 185.613 190.899 184.52C189.842 183.426 191.337 189.332 190.243 189.623C189.842 189.733 189.514 189.769 189.149 186.233C188.785 182.624 189.368 172.746 189.368 172.746L196.221 172.819" fill="#FFE3CA"/>
<path d="M219.915 96.5979C219.769 95.4679 220.352 90.7656 220.352 90.7656C220.352 90.7656 224.654 90.4375 225.055 86.2091C225.456 81.9442 225.492 72.1022 225.492 72.1022L217.801 68.0195L208.979 74.2528L206.974 78.9187L209.599 90.0365V95.6137L219.915 96.5979Z" fill="#DBA17B"/>
<path d="M220.352 90.7655C220.352 90.7655 217.473 90.6926 214.775 88.6877C214.775 88.6877 215.942 91.8591 220.243 91.8226L220.352 90.7655Z" fill="#C68C6B"/>
<path d="M207.12 83.5844C208.287 86.1725 208.979 89.9635 208.979 89.9635C209.599 91.13 209.818 87.4119 209.818 87.4119C209.818 87.4119 210.365 83.8396 209.854 82.4544C209.854 82.4544 207.667 83.147 207.193 79.2466C206.938 77.3147 209.854 76.4034 210.656 78.7363L212.479 78.9186C212.479 78.9186 212.625 71.6282 216.817 72.9769C216.817 72.9769 219.842 74.8359 221.665 73.7059C223.487 72.5759 223.341 72.1749 223.341 72.1749C223.341 72.1749 224.216 74.1069 226.549 72.8311C228.882 71.5553 229.174 69.3317 228.372 68.2746C227.898 67.6549 227.461 66.9623 226.695 66.8165C225.93 66.6707 225.091 66.9988 224.617 67.582C225.2 66.7436 224.8 65.5042 223.925 64.921C223.086 64.3742 221.956 64.4107 221.008 64.7752C220.061 65.1397 219.259 65.7958 218.493 66.452C217.947 64.921 216.306 63.8274 214.702 63.9732C213.062 64.119 211.64 65.4313 211.349 67.0352C210.474 65.9416 208.797 65.6865 207.521 66.3062C206.245 66.9258 205.444 68.2381 205.188 69.6233C204.933 71.0085 205.225 72.4301 205.772 73.7424C204.787 73.1956 203.439 73.5966 202.782 74.5079C202.126 75.4192 202.126 76.695 202.6 77.7156C203.074 78.7363 203.985 79.5018 204.97 80.0121C204.241 80.5954 203.985 81.7618 204.459 82.6002C204.933 83.4386 206.027 83.876 206.902 83.548" fill="#0E538C"/>
<path d="M192.394 107.789C192.394 107.789 195.346 94.1921 209.599 95.6137L222.649 96.926C222.649 96.926 231.616 100.717 230.34 111.397C229.101 122.078 228.481 131.847 228.809 133.706C229.137 135.602 232.272 152.406 231.324 153.572C221.92 165.018 197.898 146.756 197.898 146.756L192.394 107.789Z" fill="#6562F9"/>
<path d="M209.599 95.6136L206.282 175.043L196.403 169.684L197.424 99.2224C197.424 99.2224 200.085 94.6659 209.599 95.6136Z" fill="#0E538C"/>
<path d="M189.004 174.131L192.394 107.752C193.451 103.669 195.711 100.535 198.627 97.9101V175.006L189.004 174.131ZM219.915 96.5978C219.915 96.5978 228.809 101.008 228.408 115.917C227.971 130.826 233.767 172.965 233.767 172.965L241.203 171.47C241.203 171.47 232.6 131.519 232.236 124.52C231.871 117.375 232.491 107.278 227.679 100.316C224.216 95.322 219.915 96.5978 219.915 96.5978Z" fill="#0E538C"/>
<path d="M209.599 95.6135C209.599 95.6135 206.683 102.175 206.974 104.544C207.266 106.95 208.287 111.98 208.287 111.98C208.287 111.98 206.136 113.293 206.318 114.423C206.464 115.553 208.177 133.414 208.177 133.414L209.599 95.6135ZM198.627 175.042C199.538 159.004 199.32 127.874 200.231 111.798Z" fill="#0B4870"/>
<path d="M224.69 249.405C224.544 249.332 227.716 237.339 227.716 237.339L217.181 234.277L214.957 245.504L224.69 249.405ZM200.413 241.458H212.406V250.863H200.413V241.458Z" fill="#DBA17B"/>
<path d="M213.572 255.966L212.479 250.28H199.538L200.887 258.664L201.58 258.7C204.532 258.846 218.931 259.611 220.899 259.028C223.159 258.335 213.572 255.966 213.572 255.966Z" fill="#0B4870"/>
<path d="M112.236 71.446L115.298 81.7255C115.443 82.1994 115.589 82.6733 115.553 83.1471C115.516 84.6052 114.168 85.7352 112.746 85.9904C111.324 86.2456 109.866 85.881 108.481 85.4801C108.117 86.9381 106.367 87.5578 104.872 87.8494C98.2382 89.0888 91.2029 88.214 85.079 85.3707C87.7035 81.5797 89.8542 77.4971 91.4581 73.1593C96.6707 73.378 101.883 73.6332 107.096 73.8519C108.007 73.8883 108.955 73.9248 109.83 73.6332C110.705 73.3051 111.47 72.5761 111.543 71.6648" fill="#0E538C"/>
<path d="M51.7254 116.537L50.1944 114.751C50.1944 114.751 49.1008 113.84 47.5334 111.798C47.1324 111.288 46.8408 110.668 46.6221 110.049C46.367 109.283 46.0753 108.262 46.1118 107.643C46.1482 106.877 45.2369 106.513 44.7995 107.06C44.3621 107.606 44.2892 109.684 45.2369 111.908C46.1847 114.131 42.7947 112.382 41.5553 111.725C40.3159 111.106 36.3791 109.356 35.8688 109.575C35.1397 109.903 35.3584 110.741 36.6343 111.361C37.9101 111.981 41.5188 114.022 41.1908 114.642C40.8262 115.261 34.5565 112.017 34.5565 112.017C34.5565 112.017 33.3171 111.106 32.8797 111.835C32.0778 113.147 39.0401 116.136 39.6962 116.391C40.1701 116.574 39.8056 117.303 39.2953 117.047C38.7849 116.829 33.0984 113.657 32.26 114.97C31.6403 115.99 37.9465 117.485 38.7485 118.797C39.5504 120.109 34.0826 117.193 33.4994 118.177C33.2807 118.542 33.1713 118.87 36.5978 120.073C40.0608 121.312 50.0486 123.208 50.0486 123.208L51.6525 116.355" fill="#FF957E"/>
<path d="M79.9028 100.352C79.9028 100.352 74.2163 116.792 72.4666 116.938C60.4739 118.032 47.4241 112.855 47.4241 112.855L44.1434 122.114C44.1434 122.114 78.1167 137.315 85.4071 122.661C93.1713 107.132 92.7704 104.69 92.7704 104.69L79.9028 100.352Z" fill="#FCD2B1"/>
<path d="M80.6683 193.305C86.7558 221.264 126.78 247.254 126.78 247.254L133.597 238.906C133.597 238.906 101.409 210.219 100.061 197.46C98.6756 184.702 109.356 164.69 109.356 164.69L98.2746 159.988L80.6683 193.305Z" fill="#0B4870"/>
<path d="M94.192 91.4944C94.3742 90.328 93.9368 85.5163 93.9368 85.5163C93.9368 85.5163 89.5261 85.0424 89.271 80.6682C89.0158 76.294 89.271 66.2332 89.271 66.2332L97.2904 62.2964L106.112 68.9671L104.763 90.8019L94.192 91.4944Z" fill="#FFE3CA"/>
<path d="M105.492 72.3937C105.492 72.3937 98.2746 71.7011 97.0352 65.1762L89.2345 72.3937C89.2345 72.3937 86.8651 67.5456 91.2029 63.062C95.5407 58.5784 98.4933 59.4897 100.207 59.4897C101.774 59.4897 109.793 61.2029 112.163 70.2795C112.345 70.9356 112.491 72.576 112.6 73.305L105.492 72.3937Z" fill="#0E538C"/>
<path d="M93.9733 85.5529C93.9733 85.5529 96.9259 85.5893 99.7691 83.5845C99.7691 83.5845 98.4569 86.7923 94.0826 86.61L93.9733 85.5529Z" fill="#FCD2B1"/>
<path d="M84.8967 140.741C84.8967 142.309 85.4435 144.459 85.4435 144.459L116.428 153.39C116.428 153.39 118.651 139.393 113.001 131.592C110.413 128.02 110.996 122.989 112.053 118.688L115.699 103.998L110.814 90.1824L91.3123 91.4946C91.3123 91.4946 80.0121 90.3646 76.0753 105.31L83.3293 116.209L83.4022 120.328L84.8967 140.741Z" fill="#6562F9"/>
<path d="M115.115 135.273C115.443 135.273 121.057 147.849 115.99 155.322C115.516 156.014 114.35 157.728 112.783 160.17C105.273 171.689 88.1409 198.773 87.5577 202.746C86.8651 207.558 73.0134 258.044 73.0134 258.044L62.6974 256.403L71.1179 199.137L84.8967 140.741L115.115 135.273ZM97.2175 64.6657C97.2175 64.6657 95.6136 67.7642 96.3062 70.0971L89.3074 71.9197C89.3074 71.8832 87.7035 63.0254 97.2175 64.6657ZM112.236 72.6487C112.236 72.6487 113.038 82.7095 105.273 84.4956L105.784 72.3571L112.236 72.6487Z" fill="#0E538C"/>
<path d="M80.4496 119.526L63.062 126.853L34.593 127.473L20.7412 103.961L50.0122 101.993L62.6975 124.739L80.3402 117.886L80.4496 119.526Z" fill="#6562F9"/>
<path d="M77.3147 102.248L72.4301 114.168L83.3657 119.599L84.3864 109.174L77.3147 102.248Z" fill="#6562F9"/>
<path d="M98.384 89.3074L94.4107 91.0206L95.2126 99.0401L100.243 90.0364L98.384 89.3074Z" fill="#FFE3CA"/>
<path d="M61.7497 256.403C61.7497 256.403 52.6732 258.809 54.9332 259.502C57.1932 260.194 72.904 258.481 72.904 258.481L73.4143 256.695L61.7497 256.403Z" fill="#0E538C"/>
<path d="M72.904 258.481L76.1118 249.842H62.1871L61.7497 256.403L72.904 258.481Z" fill="#0E538C"/>
<path d="M126.889 247.837C126.889 247.837 124.593 256.95 126.306 255.31C127.983 253.67 134.18 239.125 134.18 239.125L132.868 237.813L126.889 247.837Z" fill="#0B4870"/>
<path d="M134.143 239.125L128.129 232.126L121.385 244.265L126.889 247.837L134.143 239.125Z" fill="#0B4870"/>
<path d="M106.622 77.898C106.586 77.1689 106.586 76.4035 106.841 75.7473C107.096 75.0547 107.679 74.4715 108.408 74.3986C109.247 74.3257 110.049 75.0183 110.194 75.8202C110.34 76.6586 109.83 77.497 109.101 77.9344C108.372 78.3354 107.461 78.3354 106.659 78.0073" fill="#FFE3CA"/>
<path d="M101.665 141.325C101.665 141.325 101.264 100.972 102.685 97.9102C102.685 97.9102 104.18 90.3282 109.976 90.1824L107.388 90.4011C107.388 90.4011 102.139 90.0366 100.608 100.352C99.113 110.668 99.1859 141.653 99.1859 141.653L101.665 141.325ZM90.4374 142.746C90.4374 142.746 88.87 96.3792 90.1094 91.4946H88.5419C88.5419 91.4946 87.1567 95.4679 87.4119 106.586C87.5942 113.256 87.4119 142.746 87.4119 142.746H90.4374Z" fill="#0E538C"/>
<path d="M71.9562 122.187C71.9562 122.187 64.3742 126.999 62.6974 126.962C61.0571 126.926 56.2819 126.816 56.7922 127.473C57.3025 128.129 62.6974 129.04 62.6974 129.04L71.9562 122.187Z" fill="#FFE3CA"/>
<path d="M72.503 132.321C72.503 132.321 108.408 141.981 113.329 126.379C118.542 109.83 118.615 114.131 118.615 114.131L107.351 103.269C107.351 103.269 101.3 122.369 99.5869 122.807C90.1458 125.213 79.4289 123.682 75.6379 122.989C75.2005 122.625 74.7266 122.224 74.1434 121.677C73.6695 121.239 73.2685 120.693 72.9769 120.109C72.6124 119.38 72.175 118.433 72.1021 117.813C71.9927 117.047 71.045 116.829 70.7169 117.412C70.3888 117.995 70.6075 120.073 71.9198 122.114C71.9198 122.114 63.3536 127.619 62.661 128.931L72.503 132.321Z" fill="#FFE3CA"/>
<path d="M110.814 90.1824C110.814 90.1824 119.016 91.7498 119.344 104.654C119.672 117.558 114.459 127.436 114.459 127.436L100.535 120.182L110.814 90.1824Z" fill="#6562F9"/>
<path d="M182.333 217.546H144.714C142.965 217.546 141.543 216.124 141.543 214.374C141.543 212.624 142.965 211.203 144.714 211.203H182.296C184.046 211.203 185.468 212.624 185.468 214.374C185.504 216.124 184.083 217.546 182.333 217.546Z" fill="#D3D3D3"/>
<path d="M155.733 257.616V254.409H188.103V257.616H155.733Z" fill="#0B4870"/>
<path d="M158.712 256.987C159.004 258.663 157.874 260.231 156.197 260.486C154.52 260.778 152.953 259.648 152.697 257.971C152.406 256.294 153.536 254.727 155.213 254.471C156.889 254.18 158.457 255.31 158.712 256.987ZM170.158 215.468H173.366V255.711H170.158V215.468ZM191.081 256.987C191.373 258.663 190.243 260.231 188.566 260.486C186.889 260.778 185.322 259.648 185.067 257.971C184.775 256.294 185.905 254.727 187.582 254.471C189.259 254.18 190.826 255.31 191.081 256.987Z" fill="#0B4870"/>
<path d="M192.175 217.546H156.671C154.265 217.546 152.515 215.176 153.208 212.807L170.158 154.338C170.595 152.77 172.017 151.677 173.621 151.677H209.125C211.531 151.677 213.281 154.046 212.588 156.416L195.638 214.885C195.2 216.488 193.779 217.546 192.175 217.546Z" fill="#D3D3D3"/>
<path d="M187.29 217.546H156.343C153.937 217.546 152.187 215.176 152.88 212.807L169.83 154.338C170.267 152.77 171.689 151.677 173.293 151.677H204.241C206.646 151.677 208.396 154.046 207.704 156.416L190.753 214.885C190.316 216.488 188.894 217.546 187.29 217.546Z" fill="#F2F2F2"/>
<path d="M192.175 217.546H154.556C152.807 217.546 151.385 216.124 151.385 214.374C151.385 212.624 152.807 211.203 154.556 211.203H192.139C193.888 211.203 195.31 212.624 195.31 214.374C195.346 216.124 193.925 217.546 192.175 217.546Z" fill="#D3D3D3"/>
<path d="M161.081 167.898L152.734 190.097L154.702 194.435L165.966 192.467L169.174 168.736L161.081 167.898Z" fill="#FCD2B1"/>
<path d="M166.148 157.108C166.148 157.108 159.55 160.571 158.092 171.944L166.804 176.719L166.148 157.108Z" fill="#2A94F4"/>
<path d="M176.792 152.77L166.403 157.145L158.202 193.633L185.614 204.423L200.231 162.795C200.231 162.795 197.861 154.119 184.156 151.896L176.792 152.77Z" fill="#2A94F4"/>
<path d="M204.496 195.602C204.496 195.128 204.204 192.248 204.058 191.774L199.538 162.868C198.663 158.894 194.216 156.889 190.68 158.858C188.056 160.316 186.889 163.414 187.91 166.221L193.269 191.045L204.496 195.602Z" fill="#FFE3CA"/>
<path d="M198.335 189.441L167.752 187.072L166.221 192.467L195.674 202.418C200.194 203.949 204.824 200.377 204.496 195.602C204.277 192.321 201.652 189.696 198.335 189.441Z" fill="#FFE3CA"/>
<path d="M196.476 157.983C196.476 157.983 200.377 159.66 202.053 169.794L188.275 174.022C188.275 174.022 179.271 163.925 188.894 157.181L196.476 157.983Z" fill="#2A94F4"/>
<path d="M158.165 192.795C159.295 195.784 164.945 195.93 167.971 194.8C170.96 193.67 174.058 191.956 172.928 188.931C171.798 185.942 166.804 184.156 163.524 184.885C159.55 185.796 157.035 189.769 158.165 192.795Z" fill="#FFE3CA"/>
<path d="M174.824 196.877L152.989 194.071L153.317 191.592L175.152 194.399C175.844 194.472 176.318 195.091 176.209 195.784C176.1 196.476 175.48 196.95 174.824 196.877Z" fill="#F2F2F2"/>
<path d="M155.869 194.435L126.926 190.717C125.249 190.498 123.937 189.222 123.718 187.546L120.693 166.549C120.437 164.69 122.005 163.086 123.864 163.342L150.437 166.768C151.567 166.914 152.442 167.789 152.588 168.882L155.869 194.435Z" fill="#F2F2F2"/>
<path d="M121.276 249.878L113.767 252.977L109.028 253.341C106.841 253.487 105.018 255.091 104.581 257.205L104.362 258.189L130.097 261.397L130.608 251.045L121.276 249.878Z" fill="#0B4870"/>
<path d="M130.608 251.045L133.123 239.781L123.827 238.505L121.276 249.878L130.608 251.045Z" fill="#FFE3CA"/>
<path d="M185.614 204.423C185.614 204.423 184.885 210.656 173.694 211.495H146.792L134.107 246.89L120.765 244.739L134.107 192.758L164.69 196.148L185.614 204.423Z" fill="#0B4870"/>
<path d="M99.7327 229.538L91.6768 228.335L87.4119 226.185C85.4435 225.201 83.0741 225.638 81.5796 227.205L80.887 227.934L101.3 243.9L107.06 235.298L99.7327 229.538Z" fill="#0E538C"/>
<path d="M107.132 235.334L114.131 226.44L106.768 220.571L99.7327 229.538L107.132 235.334Z" fill="#FFE3CA"/>
<path d="M158.202 193.633L137.461 187.436C136.586 187.181 135.747 186.853 134.872 186.561C133.086 185.869 128.566 184.921 125.067 190.279C120.583 197.169 102.612 223.05 102.612 223.05L113.584 231.142L137.533 200.632C139.538 197.861 142.746 196.221 146.173 196.221L164.69 196.185L158.202 193.633Z" fill="#0E538C"/>
<path d="M184.885 141.397C185.249 140.705 191.665 129.259 185.796 126.379C185.796 126.379 185.03 120.328 178.287 120.984C171.543 121.64 173.366 123.609 169.064 122.625C164.763 121.64 160.717 123.864 161.045 127.473C161.373 131.082 164.107 132.613 169.064 131.738C174.022 130.863 177.959 131.519 177.959 131.519L182.114 132.722L184.885 141.397Z" fill="#010101"/>
<path d="M185.687 153.791L185.176 139.247L175.115 142.819L175.917 154.484C176.1 157.181 177.594 159.295 180.292 159.113L181.13 159.076C183.827 158.821 185.869 156.488 185.687 153.791Z" fill="#FFE3CA"/>
<path d="M184.301 141.251C184.301 141.251 186.197 153.39 175.844 154.083L175.371 148.323L184.301 141.251Z" fill="#FCD2B1"/>
<path d="M175.772 151.385H176.136C181.312 151.13 185.286 146.756 185.03 141.579L184.52 131.008C184.447 129.66 183.317 128.639 181.968 128.712L169.648 129.295C167.278 129.405 165.419 131.446 165.529 133.815L165.93 142.454C166.221 147.631 170.595 151.604 175.772 151.385Z" fill="#FFE3CA"/>
<path d="M182.661 138.408C182.734 140.158 184.228 141.507 185.978 141.397C187.728 141.324 189.077 139.83 188.967 138.08C188.894 136.331 187.4 134.982 185.65 135.091C183.937 135.164 182.588 136.659 182.661 138.408Z" fill="#FFE3CA"/>
<path d="M181.166 129.951L181.786 141.725C181.859 142.782 181.422 143.876 180.51 144.459C179.964 144.86 179.526 145.371 178.542 145.225C175.735 144.824 177.047 142.746 171.324 143.038C166.112 143.329 166.513 146.209 166.513 146.209C166.513 146.209 167.533 151.713 174.678 151.968C181.823 152.224 185.395 147.704 184.556 141.689L183.864 129.259L181.166 129.951Z" fill="#010101"/>
<path d="M165.893 131.956C165.893 131.956 169.21 132.467 174.058 131.3C178.87 130.097 182.697 133.998 182.697 133.998C182.697 133.998 183.718 135.784 183.973 135.747C184.228 135.711 185.687 135.128 185.687 135.128L185.614 129.696L182.078 126.926L172.272 126.525L166.476 127.801L165.893 131.956Z" fill="#010101"/>
</svg>
