<svg xmlns="http://www.w3.org/2000/svg" width="18" height="18" viewBox="0 0 18 18">
  <g id="help" transform="translate(-9 -6)">
    <path id="Vector" d="M11.149,8.235A2.248,2.248,0,0,1,9.692,9.8a.465.465,0,0,0-.273.454v.565a.45.45,0,0,1-.9,0v-.566A1.356,1.356,0,0,1,9.4,8.949,1.35,1.35,0,1,0,7.668,7.333.45.45,0,0,1,6.8,7.108a2.248,2.248,0,0,1,4.353,1.127ZM9.531,12.62a.563.563,0,1,1-.562-.562A.563.563,0,0,1,9.531,12.62ZM18,9A9,9,0,1,1,9,0,9.011,9.011,0,0,1,18,9Zm-.9,0A8.1,8.1,0,1,0,9,17.1,8.109,8.109,0,0,0,17.1,9Z" transform="translate(9 6)"/>
  </g>
</svg>
