<svg width="641" height="641" viewBox="0 0 641 641" fill="none" xmlns="http://www.w3.org/2000/svg">
<path fill-rule="evenodd" clip-rule="evenodd" d="M316.163 147.477C431.626 244.85 552.827 207.532 566.417 319.601C580.853 438.724 542.238 367.031 449.235 441.355C313.505 549.835 109.693 511.985 102.144 318.469C97.1207 189.548 224.429 70.1199 316.163 147.477Z" fill="#F5F2FD"/>
<path d="M73.5997 408.935C74.6173 406.68 75.2266 404.379 76.4269 402.478C77.7807 400.627 80.0572 399.197 82.4122 400.035C92.9543 403.45 103.556 403.372 109.261 394.663C109.222 394.795 109.207 394.933 109.215 395.071C109.217 395.199 109.37 395.247 109.498 395.246C109.628 395.499 110.115 395.697 110.371 395.822C111.704 396.417 113.208 396.475 114.659 396.305C116.49 396.002 117.979 394.786 119.574 393.901C120.604 393.284 121.69 392.767 122.818 392.358C122.843 392.951 122.782 393.544 122.635 394.119C122.605 394.11 122.574 394.108 122.543 394.112C122.512 394.117 122.483 394.129 122.457 394.146C121.179 395.895 118.509 396.437 116.282 397.713C114.381 398.628 112.819 400.074 111.488 401.722C110.228 403.193 109.2 404.846 108.438 406.627C106.65 410.497 106.167 414.785 105.963 418.993C105.947 419.834 105.518 424.35 106.937 423.619C108.295 422.15 109.012 420.306 110.504 419.345C114.825 416.285 120.223 415.812 124.051 412.044C127.902 408.073 130.689 400.418 125.922 396.143C125.217 395.538 124.408 395.064 123.534 394.745C123.381 394.696 123.278 394.621 123.125 394.572C123.342 393.774 123.435 392.948 123.401 392.122C124.307 391.841 125.251 391.7 126.199 391.705C127.601 391.688 129.056 391.899 130.428 391.577C132.793 391.064 134.655 389.079 135.314 386.751C135.509 386.01 135.804 385.089 135.793 384.197C136.977 385.126 138.262 386.002 139.72 386.469C141.817 387.055 144.439 386.794 145.251 384.388C145.742 382.853 145.366 381.252 145.22 379.725C145.08 378.707 145.393 377.199 145.582 375.948C145.685 376.517 145.899 377.06 146.213 377.546C146.603 378.179 147.044 378.785 147.484 379.391C147.27 382.707 147.238 386.378 149.057 389.287C144.538 388.602 143.53 395.853 137.217 392.31C136.397 391.964 134.185 390.283 133.898 391.841C133.827 392.326 134.036 392.731 134.194 393.163C134.615 394.231 135.194 395.229 135.912 396.124C138.085 398.723 141.829 400.64 145.208 399.732C146.402 399.437 147.512 398.481 148.244 397.911C149.117 397.29 150.083 396.814 151.107 396.501C153.189 395.813 155.429 395.556 157.275 394.412C157.701 394.133 158.09 393.804 158.436 393.43C158.737 395.134 159.904 396.776 162.42 398.3C165.831 400.069 169.207 401.022 171.943 403.843C172.406 404.245 173.34 405.559 173.96 406.265C174.736 407.148 175.291 406.733 175.457 405.687C176.631 401.62 176.832 397.157 174.949 393.255C174.084 391.201 172.678 388.848 172.121 387.019C171.769 385.342 171.804 384.041 171.91 382.256C172.134 379.685 172.903 377.19 174.166 374.939C174.615 374.067 175.293 373.269 175.844 372.472C177.094 374.649 177.332 377.475 176.874 379.698C176.149 382.893 174.354 386.253 175.719 389.525C176.274 391.098 177.336 392.537 179.023 392.951C179.945 393.245 180.964 393.233 181.86 393.604C182.373 393.788 182.864 394.03 183.321 394.325L183.552 394.399C183.596 394.387 183.637 394.365 183.673 394.336C183.709 394.307 183.738 394.271 183.759 394.23C183.78 394.189 183.792 394.144 183.795 394.098C183.798 394.052 183.792 394.006 183.776 393.963C184.178 393.499 184.467 392.069 184.641 391.786C186.689 386.18 189.808 382.778 187.689 376.177C187.429 375.336 187.113 374.514 186.741 373.716C187.326 373.607 187.885 373.447 188.47 373.338C191.646 372.535 195.013 372.723 197.735 374.398C198.632 374.897 199.839 375.621 200.381 376.175C200.716 376.452 200.9 376.934 201.335 377.031C202.174 376.918 201.473 375.805 201.416 375.322C200.671 372.757 200.284 370.264 200.406 367.764C200.429 363.329 202.853 359.324 204.074 354.977C204.946 351.194 204.182 347.1 202.408 343.655C199.93 338.97 194.415 336.106 189.239 338.004L188.428 338.421C186.538 335.997 183.715 334.375 180.823 333.365C178.98 332.649 177.039 332.366 175.17 331.726C171.842 330.492 167.946 328.654 164.811 330.782C164.86 330.628 164.935 330.525 164.96 330.449C166.958 327.111 167.062 323.083 167.424 319.306C167.496 317.469 167.808 315.648 168.353 313.892C168.356 313.899 168.361 313.905 168.366 313.91C168.372 313.914 168.379 313.918 168.386 313.92C168.393 313.923 168.401 313.924 168.408 313.923C168.416 313.922 168.423 313.92 168.429 313.916C169.625 313.749 170.755 314.449 172.134 314.636C173.379 314.757 174.633 314.776 175.881 314.692C176.17 315.377 176.458 316.062 176.899 316.668C177.935 318.057 179.349 319.06 180.938 319.779C184.5 321.342 186.119 318.264 187.669 315.671C188.244 314.797 189.231 314.224 190.215 313.397C191.201 312.58 192.012 311.573 192.601 310.437C193.548 308.667 193.877 306.446 193.09 304.544C192.514 303.302 191.183 302.834 189.955 302.441C188.062 301.878 186.148 301.646 184.304 300.929C182.973 300.461 181.766 299.737 180.36 299.371C179.286 299.028 178.114 299.118 177.019 299.233C175.849 299.491 174.655 299.634 173.456 299.659C174.135 296.745 174.683 293.578 176.417 291.595C177.949 289.716 180.233 288.923 182.551 288.819C182.896 288.778 183.245 288.817 183.572 288.934C184.562 290.731 185.808 292.526 187.854 293.138C189.314 293.732 191.145 293.429 192.254 292.346C192.436 292.119 192.588 291.868 192.703 291.601C193.58 294.547 195.435 296.155 198.643 295.913C199.535 295.902 200.399 295.713 201.29 295.575C201.646 295.519 202.053 295.438 202.331 295.231C202.938 294.79 203.002 293.795 202.36 293.421C201.438 292.999 200.322 293.445 199.381 293.61C198.339 293.826 197.68 294.166 196.886 293.87C195.656 293.349 194.569 291.986 193.487 291.005C195.139 290.603 196.606 289.719 197.557 288.331C198.613 287.145 199.804 286.596 201.406 286.22C202.905 285.895 204.531 285.442 205.561 284.206C207.015 282.175 207.027 278.964 205.094 277.204C202.208 274.588 198.786 276.159 198.884 280.083C198.874 281.306 199.046 282.884 198.776 283.729C198.381 284.829 197.423 285.707 196.183 286.411C195.144 286.882 194.08 287.43 193.377 288.305C193.368 285.425 191.363 284.022 188.943 282.064C187.002 280.503 184.77 279.343 182.377 278.652C181.405 278.383 180.304 277.989 179.29 278.383C178.2 278.88 178.446 280.229 179.041 281.012C180.29 283.061 182.752 284.356 182.88 286.47C183.012 286.851 182.816 287.465 182.872 287.949C180.399 287.877 177.811 288.826 176.152 290.706C173.861 293.104 173.469 296.448 172.741 299.515C170.754 299.641 168.716 299.666 166.731 299.919C166.655 299.895 166.604 299.921 166.529 300.024C166.465 299.993 166.393 299.984 166.324 300.001C166.263 300.024 166.209 300.062 166.167 300.112C166.124 300.162 166.096 300.222 166.084 300.286C166.072 300.351 166.077 300.417 166.098 300.479C166.119 300.541 166.156 300.596 166.205 300.639C168.121 301.611 169.787 303.012 171.071 304.735C169.762 308.166 168.146 311.499 167.297 315.077C166.452 318.911 166.785 323.163 165.756 326.642C165.319 328.406 164.517 329.588 163.773 331.253C163.848 331.151 163.748 331.33 163.649 331.51C163.43 331.729 163.26 331.992 163.148 332.28L163.071 332.256C159.157 331.004 155.242 333.982 151.918 335.118C150.826 335.489 149.631 335.656 148.74 335.794C147.773 335.908 145.047 335.966 146.975 337.345C148.928 338.646 151.082 339.716 152.985 341.171C154.068 342.152 155.079 343.618 155.81 345.037C157.77 348.963 159.276 353.38 162.07 356.812C162.046 356.895 162.047 356.984 162.073 357.067C163.248 359.346 162.181 361.755 159.877 363.007C158.813 363.555 157.158 363.702 155.867 364.431C152.178 362.871 148.158 365.519 146.156 368.602C145.384 370.089 145.125 371.826 145.068 373.457C145.065 373.959 145.089 374.461 145.137 374.96C145.052 374.847 144.939 374.758 144.808 374.701C144.678 374.645 144.536 374.623 144.394 374.638C143.071 374.807 142.202 376.729 141.674 377.322C140.971 378.197 139.803 378.542 138.735 378.708C140.047 375.532 140.562 371.677 140.634 369.331C140.625 368.567 140.819 367.698 140.708 366.986C140.756 366.964 140.799 366.932 140.834 366.892C140.868 366.852 140.894 366.805 140.909 366.754C140.98 366.269 142.092 365.567 142.567 364.746C143.141 363.745 143.305 362.57 143.291 361.424C143.415 359.052 142.445 356.795 140.969 354.927C139.569 352.956 137.034 352.018 135.264 351.071C132.826 349.699 130.844 348.092 129.922 345.554C129.514 344.396 129.36 343.164 129.47 341.941C129.731 340.332 129.623 337.758 127.334 338.169C124.12 340.018 124.239 347.714 125.068 350.94C126.249 355.845 128.28 361.529 127.495 366.101C127.206 367.532 126.581 368.559 125.562 368.571C125.486 368.547 125.434 368.573 125.358 368.548C124.309 366.14 122.957 363.888 121.553 361.662C121.449 361.459 121.32 361.333 121.216 361.131C121.735 360.377 122.153 359.558 122.46 358.695C122.871 357.595 123.165 356.456 123.337 355.295C123.615 355.087 123.455 354.528 123.426 354.223C123.28 352.696 122.498 351.303 121.895 349.883C120.9 347.704 120.844 345.232 119.898 342.899C118.644 340.34 116.146 338.229 113.263 337.984C113.034 337.957 112.801 337.969 112.575 338.018C112.286 336.13 112.161 334.222 112.2 332.313C113.571 331.863 114.808 330.905 115.301 329.497C115.584 328.872 115.716 328.189 115.684 327.503C117.259 327.076 118.959 326.393 119.628 324.83C119.775 324.369 119.923 323.909 120.019 323.474C120.406 324.229 120.894 324.926 121.472 325.547C123.558 327.356 125.638 324.426 126.587 322.783C127.936 320.549 130.871 318.781 131.753 315.89C132.738 313.074 132.416 309.586 130.299 307.344C128.878 305.832 126.929 304.785 124.884 304.3C123.334 304.065 121.749 304.26 120.303 304.865L120.253 304.892C119.066 304.139 117.713 303.691 116.312 303.589C114.27 303.358 112.37 304.274 110.414 304.833C109.863 304.957 109.295 304.99 108.733 304.929L108.657 304.904C108.593 304.873 108.521 304.865 108.453 304.881C107.616 303.133 106.779 301.384 106.043 299.584C105.414 298.113 104.758 296.592 104.153 295.044C105.041 295.165 105.944 295.093 106.801 294.834C108.198 294.435 109.277 293.045 109.157 291.568C109.069 290.652 108.6 289.74 108.643 289.077C108.611 288.516 109.089 288.077 109.513 287.282C110.159 285.924 109.477 284.352 108.723 283.137C107.45 281.165 104.89 280.176 102.55 280.613C101.711 280.725 101.123 280.579 100.381 280.384C101.843 278.99 102.272 276.589 103.376 275.123C103.626 274.806 103.903 274.513 104.206 274.246C104.186 274.315 104.188 274.389 104.212 274.457C104.236 274.525 104.28 274.585 104.338 274.627C104.346 274.744 104.383 274.857 104.444 274.957C105.045 277.221 106.112 279.335 107.578 281.163C108.693 282.704 110.288 283.934 112.251 284.012C113.298 284.178 114.261 283.682 115.096 283.187C116.032 282.641 116.994 282.145 117.957 281.649C119.176 281.035 120.551 280.798 121.905 280.967C123.26 281.137 124.534 281.706 125.564 282.602C126.258 283.078 126.804 284.014 127.552 284.718C127.597 284.794 127.666 284.851 127.748 284.882C127.83 284.912 127.92 284.914 128.003 284.886C128.086 284.858 128.157 284.803 128.205 284.729C128.252 284.655 128.272 284.567 128.263 284.48C128.209 284.252 127.977 284.051 127.873 283.848C126.549 281.902 125.576 279.39 124.097 277.267C122.178 274.538 120.079 271.709 117.228 269.908C115.329 268.836 113.082 268.455 110.916 268.481C109.839 268.499 108.78 268.764 107.822 269.258C106.864 269.751 106.034 270.459 105.394 271.326C104.98 271.936 104.654 272.601 104.424 273.301C104.332 273.338 104.254 273.401 104.197 273.482C102.352 274.753 101.968 276.746 101.021 278.516C100.522 279.414 100.146 279.928 99.4125 280.37L99.2098 280.475C97.9829 275.979 96.9584 271.378 97.2868 266.914C97.3017 266.682 97.333 266.452 97.3804 266.225C97.7364 266.169 98.1186 266.165 98.4487 266.059C99.7445 265.712 100.495 264.556 100.862 263.277C101.453 261.562 101.505 259.548 100.39 258.007C100.209 257.78 99.9232 257.35 99.6407 257.175C99.6738 257.085 99.6901 256.99 99.6888 256.894C100.587 257.393 101.474 257 102.206 256.43L102.232 256.481C102.567 256.757 103.075 256.623 103.459 256.746C103.817 256.818 104.813 257.01 105.122 257.236C106.097 257.759 106.513 258.442 107.161 259.326C107.731 260.054 108.486 260.617 109.347 260.957C111.244 261.902 113.538 261.874 114.551 263.468C115.356 264.656 115.888 266.56 116.949 267.873C117.52 268.589 118.16 269.247 118.859 269.838C119.22 270.165 119.658 270.516 120.143 270.587C121.393 270.648 120.689 269.408 120.477 268.748C120.163 267.821 119.988 266.853 119.958 265.874C119.887 264.244 120.813 262.805 120.765 260.971C120.849 259.517 120.399 258.146 119.696 256.906C118.839 255.214 117.599 253.746 116.076 252.617C114.978 251.817 113.719 251.266 112.387 251C111.055 250.735 109.681 250.762 108.36 251.079C107.091 251.477 106.03 252.28 104.994 253.006C103.453 254.121 101.922 256.127 100.599 256.296C100.116 256.353 100.114 256.226 99.678 256.002C100.011 254.035 100.243 252.121 100.575 250.154C100.813 248.75 101.532 247.033 102.482 245.518C102.559 245.543 102.611 245.517 102.711 245.464C103.673 244.841 105.005 245.436 106.488 245.826C109.143 246.253 111.922 246.295 111.88 242.855C111.868 241.836 111.776 240.537 111.97 239.796C112.287 238.543 112.703 237.111 112.051 235.844C113.111 235.041 114.198 234.289 115.311 233.587C117.201 232.44 119.205 231.493 121.292 230.762C122.061 231.135 122.832 231.635 123.674 231.778C125.309 232.09 127.448 231.885 128.826 232.072C130.487 232.435 131.594 233.338 133.183 234.058C134.847 234.675 136.703 234.296 138.436 234.301C138.997 234.269 140.222 234.406 139.701 233.521C136.624 229.913 133.216 226.284 128.76 224.478C125.559 223.243 120.263 223.664 119.291 227.626C119.305 228.773 119.773 229.557 119.938 230.498C119.385 230.706 118.844 230.942 118.315 231.206C115.963 232.312 113.74 233.672 111.685 235.263C111.035 234.252 110.031 233.423 109.055 232.772C107.975 232.046 106.922 231.37 105.668 230.927C103.21 230.013 100.476 231.551 98.5497 232.415C97.7822 232.79 96.9386 232.984 96.0843 232.98C95.3965 233.014 94.6305 232.896 94.0749 233.31C93.1155 234.061 93.3366 235.486 93.8326 236.448C94.1718 237.107 94.8902 237.506 95.5566 237.804C96.6067 238.224 98.389 238.075 99.155 238.193C100.125 238.334 100.767 238.709 101.234 239.366C101.428 239.668 101.522 240.024 101.501 240.382C101.458 241.045 101.262 241.659 101.269 242.296C101.177 243.114 101.518 243.899 101.985 244.556C102.026 244.645 102.088 244.723 102.166 244.783C101.09 246.427 100.27 248.197 99.9375 250.162C99.5569 252.41 99.3285 254.579 98.8958 256.725C98.7949 256.656 98.682 256.605 98.5627 256.576C95.9745 255.41 92.494 252.139 89.2289 254.014C87.657 254.695 86.5058 256.443 85.3945 257.271C83.2208 258.776 80.8567 259.289 78.4463 258.095C76.4998 257.303 75.9811 258.66 76.9943 260.253C77.7989 261.442 78.9319 262.396 80.1647 263.172C81.1411 263.822 82.1927 264.37 83.4162 264.381C85.2751 264.256 87.2782 263.416 88.76 263.679C90.1646 263.917 91.4726 264.589 92.8038 265.057C93.9811 265.476 95.3106 265.817 96.6108 265.852C96.5635 266.079 96.5323 266.309 96.5174 266.541C96.3411 268.812 96.5469 271.077 96.8802 273.342C97.2626 275.452 97.7219 277.588 98.2824 279.672C97.5907 279.376 96.8305 279.28 96.087 279.392C94.6624 279.614 93.5004 280.469 92.1817 281.02C90.9638 281.519 89.0807 281.72 88.2533 280.736C87.349 279.728 86.6949 278.334 85.3132 277.892C84.2395 277.676 84.3846 279.076 84.4184 279.763C84.4584 280.961 85.0326 282.075 85.6315 283.113C86.5977 284.814 87.9408 286.271 89.5576 287.372C91.5364 288.725 93.4047 289.365 95.4067 290.513C97.0002 291.615 98.5709 292.922 100.415 293.638C101.328 294.036 102.28 294.341 103.255 294.547C103.728 295.713 104.227 296.931 104.699 298.097C106.404 302.027 108.309 305.725 109.682 309.633C107.23 309.23 104.78 308.954 102.471 307.707C101.189 307.086 99.5223 306.214 98.1585 305.186C96.5634 303.956 93.3685 301.115 92.3371 304.339C91.9504 306.077 92.6354 307.903 93.6211 309.319C94.9936 311.111 96.773 312.823 97.6113 314.699C99.2497 319.496 100.337 325.09 104.384 328.838C105.982 330.323 107.736 331.984 110.006 332.16C110.477 332.175 110.948 332.127 111.406 332.016C111.383 332.22 111.411 332.398 111.388 332.602C111.409 334.266 111.556 335.925 111.83 337.567C108.063 337.969 104.523 340.306 102.136 343.138C99.412 346.736 97.2278 350.712 95.6532 354.941C95.162 356.476 94.1874 358.068 94.6917 359.668C95.1415 361.039 96.6568 361.989 98.1106 362.074C99.2067 362.086 100.22 361.564 101.261 361.22C101.658 361.069 102.065 360.945 102.48 360.848C102.31 362.054 101.842 363.199 101.117 364.178C100.04 365.695 98.3771 367.321 97.4581 369.269C96.5297 368.714 95.4912 368.37 94.4155 368.26C93.3398 368.15 92.2531 368.276 91.2316 368.631C88.5666 369.555 86.7606 371.896 84.743 373.705C83.5091 374.918 82.6263 375.693 80.897 375.943C79.345 376.166 76.7674 375.892 74.9652 376.5C73.1108 377.006 71.8291 378.5 71.0848 380.166C69.0188 384.243 69.2296 389.007 69.2837 393.467C69.4622 397.67 69.4119 401.927 70.0739 406.073C70.3979 407.573 70.5471 409.355 71.175 410.699C72.3919 412.314 73.2743 409.423 73.5997 408.935ZM171.796 305.642C172.525 306.933 173.077 308.252 173.705 309.595C174.305 310.76 174.93 311.848 175.429 313.066C175.598 313.409 175.739 313.765 175.85 314.131C174.474 314.199 172.945 314.217 171.846 313.95C170.901 313.733 169.952 313.26 168.958 313.323C168.917 313.337 168.872 313.338 168.83 313.324C169.641 310.791 170.757 308.229 171.796 305.642ZM164.172 332.649C164.339 332.551 164.464 332.395 164.524 332.211C167.168 329.503 170.725 330.811 174.567 332.293C176.974 333.233 179.551 333.507 181.883 334.55C183.804 335.291 186.013 336.717 187.329 338.026C187.612 338.297 187.872 338.592 188.104 338.909C186.005 340.183 184.37 342.114 183.686 344.518C182.207 348.614 182.264 353.329 181.317 357.214C180.51 360.003 179.241 362.515 177.303 364.603C175.822 362.225 173.479 362.407 170.991 363.176C169.746 363.497 168.805 363.661 168.185 362.955C167.72 362.427 167.431 361.741 167.065 361.032C167.245 361.132 167.475 361.206 167.655 361.305C168.934 361.672 170.334 361.527 171.605 361.257C174.423 360.381 175.633 357.13 176.008 354.5C176.069 353.753 175.946 353.002 175.65 352.313C176.148 352.235 176.628 352.074 177.072 351.837C178.008 351.29 178.711 350.415 179.364 349.566C180.917 347.354 181.265 344.547 180.622 341.93C179.255 336.416 174.697 334.662 169.445 334.547C167.66 334.441 165.739 333.7 163.87 332.933C164.097 332.752 164.121 332.675 164.172 332.649ZM157.833 364.763C159.129 364.416 160.451 364.12 161.459 363.215C162.562 362.248 163.264 360.903 163.427 359.445C163.451 359.034 163.412 358.622 163.31 358.223C163.438 358.349 163.568 358.475 163.723 358.651C163.184 360.467 163.029 362.406 162.925 364.319C162.887 365.364 162.95 366.358 163.395 367.346C163.421 367.397 163.371 367.423 163.397 367.474C164.338 369.426 166.348 371.211 167.335 372.753C168.457 374.932 167.547 377.644 166.141 379.394C164.609 381.274 162.691 382.776 160.85 384.429L160.772 384.277C160.457 383.691 160.036 383.169 159.53 382.737C157.623 381.027 154.995 380.779 153.168 379.348C152.345 378.746 151.975 377.655 152.451 376.96C152.501 376.934 152.526 376.858 152.577 376.832C152.854 376.625 153.158 376.468 153.436 376.261C155.637 374.935 158.012 373.198 158.439 370.542C158.588 369.218 158.546 367.88 158.314 366.568C158.187 365.958 158.026 365.356 157.833 364.763ZM110.596 380.706C110.819 380.631 111.049 380.577 111.282 380.545C112.02 380.485 112.403 380.607 113.145 380.802C115.014 381.442 117.017 382.718 119.091 383.508C119.04 383.534 119.04 383.534 119.016 383.611C118.475 385.3 117.24 386.385 115.359 386.841C113.833 387.114 112.699 388.148 111.873 389.407C111.652 389.71 111.452 390.028 111.273 390.357C111.445 389.82 111.667 389.256 111.839 388.719C112.237 387.222 112.305 385.655 112.038 384.129C111.821 382.959 111.271 381.767 110.596 380.706ZM102.02 365.059C102.848 363.927 103.215 362.649 103.402 361.27C103.859 361.163 104.343 361.106 104.749 361.024C107.117 360.766 109.086 361.354 110.889 362.861C112.253 364.017 113.846 364.993 115.655 365.021C117.871 364.841 119.716 363.57 121.02 361.872C122.762 364.628 124.426 367.361 125.611 370.533C126.268 372.181 126.695 373.756 127.148 375.382C126.736 375.604 126.264 375.69 125.801 375.628C124.933 375.562 123.651 374.94 122.603 374.647C119.304 373.719 115.817 374.169 112.619 375.176C111.046 375.73 109.377 376.847 108.131 377.04C107.986 377.039 107.841 377.049 107.698 377.071C105.12 376.796 102.509 375.834 101.029 373.584C100.329 372.598 99.8053 371.458 98.8779 370.653C98.6721 370.503 98.4664 370.352 98.2346 370.151C99.1806 368.381 100.693 366.961 102.02 365.058V365.059Z" fill="url(#paint0_linear_3_2)"/>
<path fill-rule="evenodd" clip-rule="evenodd" d="M120.995 432.694C121.564 436.716 123.454 440.849 126.045 444.846C129.377 449.981 133.753 454.94 137.151 459.163C140.138 462.955 143.298 466.562 146.576 470.04C149.868 473.529 153.319 476.847 156.915 480.036C161.694 484.299 166.751 488.24 172.051 491.834C184.544 500.265 198.928 506.983 215.902 511.381C216.325 511.477 216.763 511.49 217.191 511.417C217.619 511.344 218.028 511.187 218.395 510.956C218.762 510.725 219.081 510.424 219.332 510.07C219.582 509.716 219.761 509.316 219.858 508.893C219.954 508.47 219.966 508.032 219.893 507.605C219.82 507.177 219.664 506.768 219.433 506.4C219.202 506.033 218.901 505.715 218.547 505.464C218.193 505.213 217.793 505.034 217.37 504.938C200.832 501.634 186.527 496.139 174.193 488.528C168.889 485.274 163.873 481.57 159.202 477.458C155.705 474.358 152.406 471.04 149.326 467.525C146.259 464.005 143.373 460.33 140.68 456.516C137.68 452.21 133.727 447.158 130.884 441.958C129.073 438.639 127.765 435.269 127.579 432.051C127.49 431.181 127.06 430.382 126.383 429.828C125.706 429.274 124.838 429.011 123.968 429.096C123.097 429.181 122.296 429.608 121.739 430.282C121.182 430.956 120.915 431.823 120.996 432.694L120.995 432.694ZM218.635 116.668C221.372 114.512 224.453 112.838 227.704 111.502C232.794 109.407 238.281 108.096 243.529 107.016C255.692 104.543 268.316 103.977 280.531 105.83C292.76 107.686 304.539 111.946 315.022 118.946C323.774 124.875 331.534 132.146 339.374 139.255C344.701 144.103 350.069 148.88 355.859 153.081C362.086 157.616 368.788 161.5 376.39 164.134C382.669 166.329 389.001 167.351 395.36 167.838C409.823 168.948 424.431 167.129 438.854 170.234C444.816 171.527 450.263 173.787 455.379 176.639C463.258 181.028 470.357 186.831 477.377 192.774C477.712 193.052 478.098 193.262 478.514 193.391C478.93 193.519 479.367 193.565 479.801 193.524C480.234 193.483 480.655 193.357 481.04 193.153C481.424 192.949 481.765 192.671 482.042 192.335C482.319 191.999 482.526 191.612 482.653 191.195C482.78 190.779 482.823 190.341 482.78 189.908C482.737 189.475 482.61 189.054 482.404 188.671C482.198 188.287 481.918 187.948 481.581 187.672C474.085 181.673 466.497 175.856 458.155 171.498C452.471 168.533 446.469 166.226 439.912 164.983C425.185 162.17 410.378 164.331 395.651 163.521C389.636 163.19 383.634 162.343 377.658 160.389C370.387 157.99 363.949 154.398 357.961 150.15C352.236 146.092 346.922 141.461 341.687 136.705C333.728 129.481 325.955 121.982 317.111 115.886C306.284 108.327 294.015 103.669 281.258 101.403C268.527 99.1407 255.294 99.282 242.497 101.493C236.852 102.452 230.956 103.675 225.443 105.72C221.583 107.151 217.921 109 214.63 111.41C213.932 111.941 213.475 112.728 213.357 113.596C213.24 114.465 213.473 115.345 214.004 116.042C214.535 116.739 215.322 117.197 216.19 117.314C217.059 117.432 217.939 117.199 218.636 116.668L218.635 116.668Z" fill="#F5F2FD"/>
<path fill-rule="evenodd" clip-rule="evenodd" d="M342.027 223.071C342.025 217.388 339.768 211.939 335.75 207.92C331.733 203.901 326.284 201.642 320.602 201.638H162.526C156.843 201.642 151.394 203.901 147.377 207.92C143.36 211.939 141.102 217.388 141.1 223.071V446.371C141.102 452.054 143.36 457.503 147.377 461.522C151.394 465.541 156.843 467.801 162.526 467.805H320.602C326.285 467.801 331.734 465.541 335.751 461.522C339.768 457.503 342.026 452.054 342.028 446.371L342.027 223.071Z" fill="white"/>
<mask id="mask0_3_2" style="mask-type:luminance" maskUnits="userSpaceOnUse" x="141" y="201" width="202" height="267">
<path d="M342.027 223.071C342.025 217.388 339.768 211.939 335.75 207.92C331.733 203.901 326.284 201.642 320.602 201.638H162.526C156.843 201.642 151.394 203.901 147.377 207.92C143.36 211.939 141.102 217.388 141.1 223.071V446.371C141.102 452.054 143.36 457.503 147.377 461.522C151.394 465.541 156.843 467.801 162.526 467.805H320.602C326.285 467.801 331.734 465.541 335.751 461.522C339.768 457.503 342.026 452.054 342.028 446.371L342.027 223.071Z" fill="white"/>
</mask>
<g mask="url(#mask0_3_2)">
<path fill-rule="evenodd" clip-rule="evenodd" d="M365.855 236.545V205.806C365.855 203.505 363.545 201.638 360.707 201.638H122.423C119.586 201.638 117.276 203.505 117.276 205.806V236.545C117.276 238.845 119.586 240.713 122.423 240.713H360.707C363.545 240.713 365.855 238.845 365.855 236.545Z" fill="#6562F9"/>
<path d="M163.412 226.469C166.336 226.469 168.706 224.099 168.706 221.175C168.706 218.251 166.336 215.88 163.412 215.88C160.488 215.88 158.117 218.251 158.117 221.175C158.117 224.099 160.488 226.469 163.412 226.469Z" fill="white"/>
<path d="M180.186 226.469C183.109 226.469 185.48 224.099 185.48 221.175C185.48 218.251 183.109 215.88 180.186 215.88C177.262 215.88 174.891 218.251 174.891 221.175C174.891 224.099 177.262 226.469 180.186 226.469Z" fill="white"/>
<path d="M197.467 226.469C200.391 226.469 202.762 224.099 202.762 221.175C202.762 218.251 200.391 215.88 197.467 215.88C194.543 215.88 192.173 218.251 192.173 221.175C192.173 224.099 194.543 226.469 197.467 226.469Z" fill="white"/>
</g>
<path d="M199.392 334.72C219.512 334.72 235.821 318.41 235.821 298.291C235.821 278.171 219.512 261.862 199.392 261.862C179.273 261.862 162.964 278.171 162.964 298.291C162.964 318.41 179.273 334.72 199.392 334.72Z" fill="#E3E3FE"/>
<mask id="mask1_3_2" style="mask-type:luminance" maskUnits="userSpaceOnUse" x="162" y="261" width="74" height="74">
<path d="M199.392 334.72C219.512 334.72 235.821 318.41 235.821 298.291C235.821 278.171 219.512 261.862 199.392 261.862C179.273 261.862 162.964 278.171 162.964 298.291C162.964 318.41 179.273 334.72 199.392 334.72Z" fill="white"/>
</mask>
<g mask="url(#mask1_3_2)">
<path fill-rule="evenodd" clip-rule="evenodd" d="M163.257 316.361C181.117 287.979 189.366 286.44 199.387 297.724C209.421 309.009 212.488 312.325 223.95 307.119C235.398 301.913 240.739 307.556 244.27 315.334C247.8 323.113 200.617 344.401 191.892 344.229C183.166 344.058 145.383 344.743 163.257 316.361Z" fill="url(#paint1_linear_3_2)"/>
</g>
<path d="M219.906 291.175C226.975 291.175 232.706 285.444 232.706 278.375C232.706 271.305 226.975 265.574 219.906 265.574C212.836 265.574 207.105 271.305 207.105 278.375C207.105 285.444 212.836 291.175 219.906 291.175Z" fill="url(#paint2_linear_3_2)"/>
<path fill-rule="evenodd" clip-rule="evenodd" d="M234.372 363.583C234.373 363.16 234.291 362.742 234.13 362.351C233.969 361.961 233.732 361.606 233.433 361.307C233.134 361.009 232.779 360.773 232.388 360.612C231.997 360.451 231.579 360.37 231.156 360.372H173.417C172.996 360.372 172.579 360.455 172.189 360.616C171.8 360.777 171.446 361.014 171.149 361.312C170.851 361.61 170.616 361.964 170.455 362.354C170.295 362.744 170.213 363.161 170.214 363.583V363.585C170.213 364.006 170.295 364.424 170.455 364.813C170.615 365.203 170.851 365.557 171.149 365.855C171.446 366.154 171.8 366.39 172.189 366.551C172.578 366.713 172.996 366.795 173.417 366.795H231.156C231.579 366.797 231.997 366.716 232.388 366.555C232.779 366.395 233.134 366.159 233.433 365.86C233.732 365.562 233.969 365.207 234.13 364.816C234.291 364.426 234.373 364.007 234.372 363.585V363.583Z" fill="#E3E3FE"/>
<path fill-rule="evenodd" clip-rule="evenodd" d="M332.495 304.324C332.493 301.758 331.472 299.297 329.657 297.484C327.842 295.67 325.381 294.652 322.815 294.652H256.01C254.741 294.652 253.483 294.902 252.31 295.388C251.137 295.875 250.072 296.587 249.174 297.485C248.277 298.384 247.565 299.45 247.08 300.623C246.595 301.797 246.346 303.054 246.347 304.324V304.326C246.346 305.596 246.595 306.853 247.08 308.027C247.566 309.2 248.277 310.266 249.175 311.164C250.072 312.062 251.138 312.774 252.311 313.26C253.484 313.746 254.741 313.996 256.01 313.996H322.815C325.38 313.997 327.842 312.979 329.657 311.166C331.472 309.352 332.493 306.892 332.495 304.326V304.324Z" fill="#EFEFFE"/>
<path fill-rule="evenodd" clip-rule="evenodd" d="M230.358 408.379C230.358 407.528 230.02 406.712 229.419 406.11C228.818 405.508 228.003 405.169 227.153 405.168H171.629C170.778 405.169 169.963 405.508 169.362 406.11C168.761 406.712 168.424 407.528 168.424 408.379V408.381C168.424 409.231 168.761 410.047 169.362 410.649C169.963 411.251 170.778 411.589 171.629 411.591H227.153C228.004 411.589 228.819 411.251 229.42 410.649C230.021 410.047 230.358 409.231 230.358 408.381L230.358 408.379ZM306.207 408.016C306.206 407.166 305.869 406.35 305.268 405.748C304.667 405.146 303.852 404.807 303.002 404.806H247.478C246.627 404.807 245.812 405.146 245.211 405.748C244.61 406.35 244.273 407.166 244.273 408.016V408.019C244.273 408.869 244.61 409.685 245.211 410.287C245.812 410.888 246.627 411.227 247.478 411.228H303.002C303.853 411.227 304.668 410.888 305.269 410.287C305.87 409.685 306.207 408.869 306.207 408.019L306.207 408.016ZM306.204 375.496C306.206 375.075 306.124 374.658 305.964 374.268C305.803 373.879 305.567 373.525 305.27 373.227C304.663 372.624 303.843 372.286 302.989 372.286H173.432C172.577 372.286 171.757 372.624 171.151 373.227C170.853 373.524 170.617 373.878 170.456 374.268C170.296 374.658 170.214 375.075 170.216 375.496V375.499C170.214 375.92 170.296 376.338 170.456 376.727C170.617 377.117 170.853 377.471 171.151 377.769C171.757 378.371 172.577 378.709 173.432 378.709H302.989C303.843 378.708 304.663 378.371 305.27 377.769C305.567 377.471 305.803 377.117 305.964 376.727C306.124 376.338 306.206 375.92 306.204 375.499V375.496ZM230.358 420.292C230.358 419.442 230.02 418.626 229.419 418.024C228.818 417.422 228.003 417.083 227.153 417.082H171.629C170.778 417.083 169.963 417.422 169.362 418.024C168.761 418.626 168.424 419.442 168.424 420.292V420.295C168.424 421.145 168.761 421.961 169.362 422.563C169.963 423.164 170.778 423.503 171.629 423.505H227.153C228.004 423.503 228.819 423.164 229.42 422.563C230.021 421.961 230.358 421.145 230.358 420.295L230.358 420.292ZM306.207 419.93C306.207 419.08 305.869 418.264 305.268 417.662C304.667 417.06 303.852 416.721 303.002 416.72H247.478C246.627 416.721 245.812 417.06 245.211 417.662C244.61 418.264 244.273 419.08 244.273 419.93V419.933C244.273 420.783 244.61 421.599 245.211 422.2C245.812 422.802 246.627 423.141 247.478 423.142H303.002C303.853 423.141 304.668 422.802 305.269 422.2C305.87 421.599 306.207 420.783 306.207 419.933L306.207 419.93ZM306.204 388.133C306.206 387.712 306.124 387.295 305.964 386.905C305.803 386.515 305.567 386.162 305.27 385.864C304.663 385.261 303.843 384.923 302.989 384.923H173.432C172.577 384.923 171.757 385.261 171.151 385.864C170.853 386.161 170.617 386.515 170.456 386.905C170.296 387.295 170.214 387.712 170.216 388.133V388.136C170.214 388.557 170.296 388.975 170.456 389.364C170.617 389.754 170.853 390.108 171.151 390.406C171.757 391.008 172.577 391.345 173.432 391.346H302.989C303.843 391.345 304.663 391.008 305.27 390.406C305.567 390.108 305.803 389.754 305.964 389.364C306.124 388.974 306.206 388.557 306.204 388.136V388.133ZM230.358 432.929C230.358 432.079 230.02 431.263 229.419 430.661C228.818 430.059 228.003 429.72 227.153 429.719H171.629C170.778 429.72 169.963 430.059 169.362 430.661C168.761 431.263 168.424 432.079 168.424 432.929V432.932C168.424 433.782 168.761 434.598 169.362 435.2C169.963 435.801 170.778 436.14 171.629 436.142H227.153C228.004 436.14 228.819 435.801 229.42 435.2C230.021 434.598 230.358 433.782 230.358 432.932L230.358 432.929ZM306.207 432.567C306.207 431.717 305.869 430.901 305.268 430.299C304.667 429.697 303.852 429.358 303.002 429.357H247.478C246.627 429.358 245.812 429.697 245.211 430.299C244.61 430.901 244.273 431.717 244.273 432.567V432.57C244.273 433.42 244.61 434.236 245.211 434.837C245.812 435.439 246.627 435.778 247.478 435.779H303.002C303.853 435.778 304.668 435.439 305.269 434.837C305.87 434.236 306.207 433.42 306.207 432.57L306.207 432.567Z" fill="#E3E3FE"/>
<path fill-rule="evenodd" clip-rule="evenodd" d="M467.376 239.334C480.066 239.334 489.317 251.019 487.512 266.879C486.23 278.119 472.511 289.82 458.937 295.429C447.213 300.274 447.15 282.547 447.15 266.584C447.15 250.621 454.695 239.334 467.376 239.334Z" fill="url(#paint3_linear_3_2)"/>
<path fill-rule="evenodd" clip-rule="evenodd" d="M457.697 323.689C469.898 351.957 388.147 442.526 360.894 440.201C333.635 437.865 294.155 309.696 294.155 309.696L282.669 294.653L312.968 298.488L310.859 302.601C310.859 302.601 353.59 376.989 365.203 382.559C370.977 385.331 386.03 339.796 417.982 321.691C452.824 301.966 450.719 307.52 457.697 323.689Z" fill="url(#paint4_linear_3_2)"/>
<mask id="mask2_3_2" style="mask-type:luminance" maskUnits="userSpaceOnUse" x="282" y="294" width="177" height="147">
<path d="M457.697 323.689C469.898 351.957 388.147 442.526 360.894 440.201C333.635 437.865 294.155 309.696 294.155 309.696L282.669 294.653L312.968 298.488L310.859 302.601C310.859 302.601 353.59 376.989 365.203 382.559C370.977 385.331 386.03 339.796 417.982 321.691C452.824 301.966 450.719 307.52 457.697 323.689Z" fill="white"/>
</mask>
<g mask="url(#mask2_3_2)">
<path fill-rule="evenodd" clip-rule="evenodd" d="M381.449 342.57C390.447 341.273 405.347 343.701 410.453 352.032C413.38 356.806 412.42 362.493 413.817 367.718C416.929 379.363 427.785 390.555 440.581 390.092C456.242 389.54 461.326 368.586 464.293 356.68C468.272 340.65 472.212 320.09 458.79 307.34C456.391 305.059 453.638 303.255 450.681 301.802C446.755 299.889 442.565 298.576 438.25 297.907C432.865 297.043 427.255 297.006 421.878 297.971C413.037 299.573 404.817 304.071 397.979 309.805C389.117 317.263 382.659 326.458 377.529 336.769L381.449 342.57Z" fill="url(#paint5_linear_3_2)"/>
</g>
<path fill-rule="evenodd" clip-rule="evenodd" d="M475.468 303.489C518.27 307.254 532.739 308.201 530.449 387.34C528.139 468.044 422.104 465.21 422.104 465.21C422.104 465.21 437.675 414.731 425.171 371.688C410.055 319.728 445.234 300.827 475.468 303.489Z" fill="url(#paint6_linear_3_2)"/>
<path fill-rule="evenodd" clip-rule="evenodd" d="M370.828 284.374C370.826 280.634 369.34 277.046 366.695 274.401C364.05 271.756 360.463 270.269 356.722 270.267H276.49C272.748 270.267 269.16 271.753 266.514 274.399C263.868 277.045 262.381 280.634 262.381 284.375C262.381 288.117 263.868 291.706 266.514 294.352C269.16 296.998 272.748 298.484 276.49 298.484H356.722C360.463 298.482 364.05 296.995 366.695 294.349C369.34 291.703 370.827 288.116 370.828 284.374Z" fill="#ABDBFF"/>
<path fill-rule="evenodd" clip-rule="evenodd" d="M306.535 298.484C306.403 296.91 309.801 291.476 311.214 290.638C312.577 289.834 314.877 291.886 315.022 293.458C315.154 295.031 313.435 299.237 312.021 300.073C310.607 300.91 306.667 300.055 306.535 298.484Z" fill="#FB9C9A"/>
<path fill-rule="evenodd" clip-rule="evenodd" d="M468.718 239.335C468.718 239.335 471.494 245.47 469.485 250.306C468.956 251.582 467.713 252.514 466.709 253.438C464.131 255.78 460.891 257.028 458.103 259.018C457.27 259.602 455.499 260.735 455.605 261.952C455.75 263.37 458.539 262.704 459.306 262.475C462.32 261.574 464.7 260.507 466.326 262.962C467.979 265.468 466.657 271.633 464.951 275.809C464.647 276.549 463.272 279.687 464.846 280.001C465.864 280.2 466.762 279.02 467.318 278.356C468.917 276.408 469.34 269.758 470.927 267.788C471.667 266.876 472.804 265.836 473.861 267.481C477.114 272.561 473.835 277.79 470.213 279.531C465.85 281.639 465.295 292.26 465.295 292.26C465.295 292.26 474.76 295.225 477.695 287.609C482.891 289.417 492.74 288.177 492.674 278.163C502.007 274.294 506.29 259.646 497.539 254.579C498.808 253.961 499.588 252.157 499.931 250.908C503.514 238.28 488.747 224.117 474.84 232.036C471.772 233.781 469.538 236.031 468.718 239.335Z" fill="url(#paint7_linear_3_2)"/>
<path d="M337.927 541.231C364.082 541.231 385.286 520.027 385.286 493.871C385.286 467.715 364.082 446.512 337.927 446.512C311.771 446.512 290.567 467.715 290.567 493.871C290.567 520.027 311.771 541.231 337.927 541.231Z" fill="url(#paint8_linear_3_2)"/>
<path fill-rule="evenodd" clip-rule="evenodd" d="M310.18 498.006L325.859 517.56C326.502 518.363 327.324 519.004 328.259 519.433C329.194 519.862 330.217 520.067 331.245 520.032C332.273 519.996 333.279 519.722 334.182 519.229C335.085 518.737 335.861 518.04 336.448 517.195L365.73 475C366.73 473.559 367.116 471.779 366.803 470.054C366.491 468.328 365.506 466.797 364.065 465.798C362.624 464.798 360.845 464.412 359.12 464.725C357.394 465.037 355.863 466.022 354.864 467.463L330.631 502.381L320.491 489.736C319.392 488.379 317.799 487.513 316.062 487.326C314.325 487.14 312.585 487.649 311.223 488.742C309.86 489.834 308.985 491.422 308.79 493.158C308.594 494.894 309.094 496.637 310.18 498.005V498.006Z" fill="white"/>
<path fill-rule="evenodd" clip-rule="evenodd" d="M509.613 312.522C540.283 315.215 585.02 423.227 566.155 453.054C547.278 482.88 428.204 485.961 396.397 491.483C372.231 512.592 362.356 486.332 365.819 486.298C381.207 486.143 380.798 473.801 380.798 473.801C380.798 473.801 381.049 472.509 376.699 467.258C381.498 463.882 392.22 473.63 392.22 473.63C392.22 473.63 507.062 429.453 517.479 421.879C522.661 418.116 490.312 383.223 488.99 346.522C488.54 333.941 492.07 310.982 509.613 312.522Z" fill="url(#paint9_linear_3_2)"/>
<mask id="mask3_3_2" style="mask-type:luminance" maskUnits="userSpaceOnUse" x="365" y="312" width="206" height="188">
<path d="M509.613 312.522C540.283 315.215 585.02 423.227 566.155 453.054C547.278 482.88 428.204 485.961 396.397 491.483C372.231 512.592 362.356 486.332 365.819 486.298C381.207 486.143 380.798 473.801 380.798 473.801C380.798 473.801 381.049 472.509 376.699 467.258C381.498 463.882 392.22 473.63 392.22 473.63C392.22 473.63 507.062 429.453 517.479 421.879C522.661 418.116 490.312 383.223 488.99 346.522C488.54 333.941 492.07 310.982 509.613 312.522Z" fill="white"/>
</mask>
<g mask="url(#mask3_3_2)">
<path fill-rule="evenodd" clip-rule="evenodd" d="M490.008 388.587C493.141 380.054 502.355 368.095 512.112 367.56C517.704 367.252 522.251 370.799 527.513 372.051C539.239 374.844 554.244 370.608 559.915 359.128C566.869 345.084 550.847 330.657 541.778 322.39C529.562 311.274 513.341 298.04 495.746 303.795C492.599 304.822 489.704 306.387 487.02 308.3C483.472 310.846 480.326 313.909 477.687 317.389C474.369 321.717 471.672 326.636 469.967 331.826C467.177 340.366 467.23 349.737 469.028 358.478C471.381 369.818 476.405 379.869 483.041 389.281L490.008 388.587Z" fill="url(#paint10_linear_3_2)"/>
</g>
<path d="M284.62 289.18C283.713 289.18 282.9 289.02 282.18 288.7C281.46 288.367 280.887 287.92 280.46 287.36C280.047 286.8 279.82 286.18 279.78 285.5H282.6C282.653 285.927 282.86 286.28 283.22 286.56C283.593 286.84 284.053 286.98 284.6 286.98C285.133 286.98 285.547 286.873 285.84 286.66C286.147 286.447 286.3 286.173 286.3 285.84C286.3 285.48 286.113 285.213 285.74 285.04C285.38 284.853 284.8 284.653 284 284.44C283.173 284.24 282.493 284.033 281.96 283.82C281.44 283.607 280.987 283.28 280.6 282.84C280.227 282.4 280.04 281.807 280.04 281.06C280.04 280.447 280.213 279.887 280.56 279.38C280.92 278.873 281.427 278.473 282.08 278.18C282.747 277.887 283.527 277.74 284.42 277.74C285.74 277.74 286.793 278.073 287.58 278.74C288.367 279.393 288.8 280.28 288.88 281.4H286.2C286.16 280.96 285.973 280.613 285.64 280.36C285.32 280.093 284.887 279.96 284.34 279.96C283.833 279.96 283.44 280.053 283.16 280.24C282.893 280.427 282.76 280.687 282.76 281.02C282.76 281.393 282.947 281.68 283.32 281.88C283.693 282.067 284.273 282.26 285.06 282.46C285.86 282.66 286.52 282.867 287.04 283.08C287.56 283.293 288.007 283.627 288.38 284.08C288.767 284.52 288.967 285.107 288.98 285.84C288.98 286.48 288.8 287.053 288.44 287.56C288.093 288.067 287.587 288.467 286.92 288.76C286.267 289.04 285.5 289.18 284.62 289.18ZM303.178 283.22C303.178 283.62 303.152 283.98 303.098 284.3H294.998C295.065 285.1 295.345 285.727 295.838 286.18C296.332 286.633 296.938 286.86 297.658 286.86C298.698 286.86 299.438 286.413 299.878 285.52H302.898C302.578 286.587 301.965 287.467 301.058 288.16C300.152 288.84 299.038 289.18 297.718 289.18C296.652 289.18 295.692 288.947 294.838 288.48C293.998 288 293.338 287.327 292.858 286.46C292.392 285.593 292.158 284.593 292.158 283.46C292.158 282.313 292.392 281.307 292.858 280.44C293.325 279.573 293.978 278.907 294.818 278.44C295.658 277.973 296.625 277.74 297.718 277.74C298.772 277.74 299.712 277.967 300.538 278.42C301.378 278.873 302.025 279.52 302.478 280.36C302.945 281.187 303.178 282.14 303.178 283.22ZM300.278 282.42C300.265 281.7 300.005 281.127 299.498 280.7C298.992 280.26 298.372 280.04 297.638 280.04C296.945 280.04 296.358 280.253 295.878 280.68C295.412 281.093 295.125 281.673 295.018 282.42H300.278ZM306.102 283.46C306.102 282.313 306.336 281.313 306.802 280.46C307.269 279.593 307.916 278.927 308.742 278.46C309.569 277.98 310.516 277.74 311.582 277.74C312.956 277.74 314.089 278.087 314.982 278.78C315.889 279.46 316.496 280.42 316.802 281.66H313.782C313.622 281.18 313.349 280.807 312.962 280.54C312.589 280.26 312.122 280.12 311.562 280.12C310.762 280.12 310.129 280.413 309.662 281C309.196 281.573 308.962 282.393 308.962 283.46C308.962 284.513 309.196 285.333 309.662 285.92C310.129 286.493 310.762 286.78 311.562 286.78C312.696 286.78 313.436 286.273 313.782 285.26H316.802C316.496 286.46 315.889 287.413 314.982 288.12C314.076 288.827 312.942 289.18 311.582 289.18C310.516 289.18 309.569 288.947 308.742 288.48C307.916 288 307.269 287.333 306.802 286.48C306.336 285.613 306.102 284.607 306.102 283.46ZM330.913 277.92V289H328.093V287.6C327.733 288.08 327.26 288.46 326.673 288.74C326.1 289.007 325.473 289.14 324.793 289.14C323.927 289.14 323.16 288.96 322.493 288.6C321.827 288.227 321.3 287.687 320.913 286.98C320.54 286.26 320.353 285.407 320.353 284.42V277.92H323.153V284.02C323.153 284.9 323.373 285.58 323.813 286.06C324.253 286.527 324.853 286.76 325.613 286.76C326.387 286.76 326.993 286.527 327.433 286.06C327.873 285.58 328.093 284.9 328.093 284.02V277.92H330.913ZM338.076 279.64C338.436 279.053 338.903 278.593 339.476 278.26C340.063 277.927 340.729 277.76 341.476 277.76V280.7H340.736C339.856 280.7 339.189 280.907 338.736 281.32C338.296 281.733 338.076 282.453 338.076 283.48V289H335.276V277.92H338.076V279.64ZM355.262 283.22C355.262 283.62 355.235 283.98 355.182 284.3H347.082C347.149 285.1 347.429 285.727 347.922 286.18C348.415 286.633 349.022 286.86 349.742 286.86C350.782 286.86 351.522 286.413 351.962 285.52H354.982C354.662 286.587 354.049 287.467 353.142 288.16C352.235 288.84 351.122 289.18 349.802 289.18C348.735 289.18 347.775 288.947 346.922 288.48C346.082 288 345.422 287.327 344.942 286.46C344.475 285.593 344.242 284.593 344.242 283.46C344.242 282.313 344.475 281.307 344.942 280.44C345.409 279.573 346.062 278.907 346.902 278.44C347.742 277.973 348.709 277.74 349.802 277.74C350.855 277.74 351.795 277.967 352.622 278.42C353.462 278.873 354.109 279.52 354.562 280.36C355.029 281.187 355.262 282.14 355.262 283.22ZM352.362 282.42C352.349 281.7 352.089 281.127 351.582 280.7C351.075 280.26 350.455 280.04 349.722 280.04C349.029 280.04 348.442 280.253 347.962 280.68C347.495 281.093 347.209 281.673 347.102 282.42H352.362Z" fill="#20238C"/>
<defs>
<linearGradient id="paint0_linear_3_2" x1="78.0881" y1="241.849" x2="199.857" y2="450.006" gradientUnits="userSpaceOnUse">
<stop stop-color="#E3DBF9"/>
<stop offset="0.61" stop-color="#D1C1FA"/>
<stop offset="0.82" stop-color="#A685FB"/>
<stop offset="1" stop-color="#7846FD"/>
</linearGradient>
<linearGradient id="paint1_linear_3_2" x1="212.348" y1="302.783" x2="187.075" y2="348.42" gradientUnits="userSpaceOnUse">
<stop stop-color="#AADBFF"/>
<stop offset="1" stop-color="#0500E3"/>
</linearGradient>
<linearGradient id="paint2_linear_3_2" x1="225.187" y1="266.936" x2="198.497" y2="319.616" gradientUnits="userSpaceOnUse">
<stop stop-color="#AADBFF"/>
<stop offset="1" stop-color="#0500E3"/>
</linearGradient>
<linearGradient id="paint3_linear_3_2" x1="450.752" y1="245.642" x2="485.42" y2="298.166" gradientUnits="userSpaceOnUse">
<stop stop-color="#FB9C9A"/>
<stop offset="0.64" stop-color="#FC8886"/>
<stop offset="0.84" stop-color="#FD5450"/>
<stop offset="1" stop-color="#FF1712"/>
</linearGradient>
<linearGradient id="paint4_linear_3_2" x1="370.274" y1="323.591" x2="437.788" y2="438.953" gradientUnits="userSpaceOnUse">
<stop stop-color="#FB9C9A"/>
<stop offset="0.63" stop-color="#FC8784"/>
<stop offset="0.83" stop-color="#FD524E"/>
<stop offset="1" stop-color="#FF1712"/>
</linearGradient>
<linearGradient id="paint5_linear_3_2" x1="418.336" y1="322.47" x2="452.08" y2="384.023" gradientUnits="userSpaceOnUse">
<stop stop-color="#20238C"/>
<stop offset="0.54" stop-color="#1A1D7F"/>
<stop offset="1" stop-color="#050751"/>
</linearGradient>
<linearGradient id="paint6_linear_3_2" x1="429.31" y1="330.374" x2="510.108" y2="445.795" gradientUnits="userSpaceOnUse">
<stop stop-color="#20238C"/>
<stop offset="0.51" stop-color="#191C7E"/>
<stop offset="1" stop-color="#050751"/>
</linearGradient>
<linearGradient id="paint7_linear_3_2" x1="465.763" y1="288.766" x2="497.406" y2="228.751" gradientUnits="userSpaceOnUse">
<stop/>
<stop offset="1" stop-color="#4D4D4D"/>
</linearGradient>
<linearGradient id="paint8_linear_3_2" x1="356.974" y1="448.623" x2="310.822" y2="558.532" gradientUnits="userSpaceOnUse">
<stop stop-color="#AADBFF"/>
<stop offset="0.6" stop-color="#92D1FF"/>
<stop offset="0.81" stop-color="#5BB9FF"/>
<stop offset="1" stop-color="#22A1FF"/>
</linearGradient>
<linearGradient id="paint9_linear_3_2" x1="465.184" y1="437.087" x2="478.56" y2="526" gradientUnits="userSpaceOnUse">
<stop stop-color="#FB9C9A"/>
<stop offset="0.47" stop-color="#FC7875"/>
<stop offset="1" stop-color="#FF1712"/>
</linearGradient>
<linearGradient id="paint10_linear_3_2" x1="525.609" y1="311.572" x2="498.778" y2="398.431" gradientUnits="userSpaceOnUse">
<stop stop-color="#20238C"/>
<stop offset="0.49" stop-color="#191C7D"/>
<stop offset="1" stop-color="#050751"/>
</linearGradient>
</defs>
</svg>
