<svg id="padlock" xmlns="http://www.w3.org/2000/svg" width="15" height="15" viewBox="0 0 15 15">
  <rect id="padlock_Frame_Background_" data-name="padlock [Frame Background]" width="15" height="15" fill="none"/>
  <path id="Vector" d="M1.875,3.26a3.281,3.281,0,0,1,6.563.021V5.625h.469a1.407,1.407,0,0,1,1.406,1.406v5.625a1.407,1.407,0,0,1-1.406,1.406h-7.5A1.407,1.407,0,0,1,0,12.656V7.031A1.407,1.407,0,0,1,1.406,5.625h.469ZM1.227,6.6a.467.467,0,0,0-.289.433v5.625a.467.467,0,0,0,.469.469h7.5a.467.467,0,0,0,.469-.469V7.031a.467.467,0,0,0-.469-.469h-7.5a.467.467,0,0,0-.18.035ZM7.5,5.625V3.281a2.344,2.344,0,0,0-4.688-.016v2.36Z" transform="translate(2.344 0.469)" fill="#78778b" fill-rule="evenodd"/>
  <path id="Vector-2" data-name="Vector" d="M2.342.424A1.407,1.407,0,0,1,1.37,2.813,1.407,1.407,0,0,1,1.37,0,1.407,1.407,0,0,1,2.342.424Zm-1.3.65A.469.469,0,1,0,1.37.938.469.469,0,0,0,1.039,1.075Z" transform="translate(6.13 8.906)" fill="#78778b" fill-rule="evenodd"/>
</svg>
