<svg xmlns="http://www.w3.org/2000/svg" width="18.596" height="18.596" viewBox="0 0 18.596 18.596">
  <g id="setings" transform="translate(-1.708 -1.7)">
    <g id="Settings" transform="translate(1 1)">
      <path id="Vector" d="M16.534,10.733a.3.3,0,0,1,.205.361,7.7,7.7,0,0,1-.912,2.2c-.014-.119-.029-.236-.045-.355l.434.434a3.711,3.711,0,0,1,.486.52,1.036,1.036,0,0,1-.115,1.264c-.082.09-.172.174-.258.26l-1.012,1.012a1.532,1.532,0,0,1-.432.344,1.046,1.046,0,0,1-1.168-.207c-.264-.256-.52-.52-.779-.779.119.014.236.029.355.045a7.7,7.7,0,0,1-2.2.912c.072-.1.143-.189.215-.283v.631a3.21,3.21,0,0,1-.031.725,1.037,1.037,0,0,1-.943.777c-.127.01-.256,0-.383,0H8.5a1.468,1.468,0,0,1-.545-.066,1.046,1.046,0,0,1-.67-.967c-.006-.367,0-.736,0-1.1.072.1.143.189.215.283a7.7,7.7,0,0,1-2.2-.912c.119-.014.236-.029.355-.045l-.434.434a3.711,3.711,0,0,1-.52.486,1.036,1.036,0,0,1-1.264-.115c-.09-.082-.174-.172-.26-.258L2.169,15.317a1.532,1.532,0,0,1-.344-.432,1.046,1.046,0,0,1,.207-1.168c.256-.264.52-.52.779-.779-.014.119-.029.236-.045.355a7.7,7.7,0,0,1-.912-2.2c.1.072.189.143.283.215H1.507a3.21,3.21,0,0,1-.725-.031A1.037,1.037,0,0,1,0,10.335c-.01-.127,0-.256,0-.383V8.5a1.468,1.468,0,0,1,.066-.545,1.046,1.046,0,0,1,.967-.67c.367-.006.736,0,1.1,0-.1.072-.189.143-.283.215a7.7,7.7,0,0,1,.912-2.2c.014.119.029.236.045.355L2.38,5.224a3.711,3.711,0,0,1-.486-.52A1.036,1.036,0,0,1,2.009,3.44c.082-.09.172-.174.258-.26L3.278,2.169a1.532,1.532,0,0,1,.432-.344,1.046,1.046,0,0,1,1.168.207c.264.256.52.52.779.779-.119-.014-.236-.029-.355-.045a7.7,7.7,0,0,1,2.2-.912c-.072.1-.143.189-.215.283V1.507A3.21,3.21,0,0,1,7.317.782,1.037,1.037,0,0,1,8.261,0c.127-.01.256,0,.383,0h1.451a1.468,1.468,0,0,1,.545.066,1.046,1.046,0,0,1,.67.967c.006.367,0,.736,0,1.1-.072-.1-.143-.189-.215-.283a7.7,7.7,0,0,1,2.2.912c-.119.014-.236.029-.355.045l.434-.434a3.711,3.711,0,0,1,.52-.486,1.036,1.036,0,0,1,1.264.115c.09.082.174.172.26.258l1.012,1.012a1.532,1.532,0,0,1,.344.432,1.046,1.046,0,0,1-.207,1.168c-.256.264-.52.52-.779.779.014-.119.029-.236.045-.355a7.7,7.7,0,0,1,.912,2.2c-.1-.072-.189-.143-.283-.215h.631a3.21,3.21,0,0,1,.725.031,1.037,1.037,0,0,1,.777.943c.01.127,0,.256,0,.383v1.451a1.468,1.468,0,0,1-.066.545,1.046,1.046,0,0,1-.967.67c-.367.006-.736,0-1.1,0a.293.293,0,1,1,0-.586c.389,0,.775.008,1.162,0h0a.231.231,0,0,0,.039-.008l.063-.018c.012,0,.053-.021,0,0l.057-.029c.018-.01.1-.072.055-.033a.932.932,0,0,0,.088-.088c-.041.047.008-.014.014-.021a.31.31,0,0,0,.025-.043c0-.01.033-.084.012-.023a.469.469,0,0,0,.016-.049A.585.585,0,0,1,18,10.349c.018-.037,0,.059,0-.014,0-.018,0-.037,0-.055,0-.121,0-.244,0-.365v-1.6c0-.023,0-.045,0-.068,0-.047.018.061,0-.014-.006-.018-.01-.035-.014-.051s-.027-.072-.006-.025a.546.546,0,0,0-.035-.066c-.012-.018-.064-.086-.027-.043a.932.932,0,0,0-.088-.088c.043.039,0,0-.012-.006s-.035-.023-.055-.033-.082-.031-.023-.012a.469.469,0,0,0-.049-.016.585.585,0,0,1-.062-.016c-.037-.018.061,0-.014,0-.025,0-.049,0-.074,0-.361,0-.725,0-1.086,0a.3.3,0,0,1-.283-.215A6.829,6.829,0,0,0,15.312,5.6a.3.3,0,0,1,.045-.355c.268-.268.533-.539.8-.8.055-.053-.016.033.025-.029l.029-.047c0-.006.039-.086.018-.029.006-.016.012-.033.018-.051s.008-.035.014-.053c.023-.076,0,.049.006-.029a.987.987,0,0,0,0-.107c0-.066.012.029-.006-.029-.008-.025-.014-.053-.021-.078,0-.01-.023-.049,0-.006-.008-.016-.016-.033-.025-.049s-.023-.039-.037-.059c-.027-.039.045.043-.016-.018l-.021-.023c-.084-.088-.172-.172-.258-.258l-.963-.963-.139-.139-.027-.027a.223.223,0,0,0-.021-.021c-.057-.059.037.018-.029-.025l-.047-.029c-.006,0-.082-.039-.029-.018l-.051-.018c-.025-.008-.051-.014-.078-.02.012,0,.057,0,0,0a.837.837,0,0,0-.121,0c-.049,0,.064-.018-.016,0a.524.524,0,0,0-.053.014.507.507,0,0,0-.156.088l-.043.041c-.254.252-.508.508-.762.762a.3.3,0,0,1-.355.045,7,7,0,0,0-2.059-.854.3.3,0,0,1-.215-.283c0-.389.008-.775,0-1.162h0a.231.231,0,0,0-.008-.039L10.689.872c0-.012-.021-.053,0,0-.01-.02-.02-.039-.029-.057s-.072-.1-.033-.055A.932.932,0,0,0,10.54.671c.047.041-.014-.008-.021-.014a.31.31,0,0,0-.043-.025c-.01,0-.084-.033-.023-.012A.469.469,0,0,0,10.4.6a.583.583,0,0,1-.062-.016c-.037-.018.059,0-.014,0l-.055,0c-.121,0-.244,0-.365,0h-1.6c-.023,0-.045,0-.068,0-.047,0,.061-.018-.014,0C8.208.6,8.19.6,8.175.607S8.1.634,8.149.612a.546.546,0,0,0-.066.035C8.065.659,8,.712,8.04.675a.932.932,0,0,0-.088.088c.039-.043,0,0-.006.012S7.923.81,7.913.829,7.882.911,7.9.853A.469.469,0,0,0,7.886.9.585.585,0,0,1,7.87.964c-.018.037,0-.061,0,.014,0,.025,0,.049,0,.074,0,.361,0,.725,0,1.086a.3.3,0,0,1-.215.283,6.829,6.829,0,0,0-2.057.859.3.3,0,0,1-.355-.045c-.268-.268-.539-.533-.8-.8-.053-.055.033.016-.029-.025l-.047-.029c-.006,0-.086-.039-.029-.018l-.051-.018c-.018-.006-.035-.008-.053-.014-.076-.023.049,0-.029-.006a.987.987,0,0,0-.107,0c-.066,0,.029-.012-.029.006l-.078.021c-.01,0-.049.023-.006,0-.016.008-.033.016-.049.025s-.039.023-.059.037c-.039.027.043-.045-.018.016l-.023.021c-.088.084-.172.172-.258.258l-.963.963-.139.139-.027.027a.223.223,0,0,0-.021.021c-.059.057.018-.037-.025.029l-.029.047c0,.006-.039.082-.018.029-.006.016-.012.033-.018.051s-.014.051-.02.078c0-.012,0-.057,0,0a.837.837,0,0,0,0,.121c0,.049-.018-.064,0,.016a.524.524,0,0,0,.014.053.507.507,0,0,0,.088.156l.041.043c.252.254.508.508.762.762a.3.3,0,0,1,.045.355,7,7,0,0,0-.854,2.059.3.3,0,0,1-.283.215c-.389,0-.775-.008-1.162,0h0a.231.231,0,0,0-.039.008L.864,7.9c-.012,0-.053.021,0,0l-.057.029c-.018.01-.1.072-.055.033a.932.932,0,0,0-.088.088C.7,8,.655,8.065.649,8.073a.31.31,0,0,0-.025.043c0,.01-.033.084-.012.023A.469.469,0,0,0,.6,8.189a.583.583,0,0,1-.016.063c-.018.037,0-.059,0,.014,0,.018,0,.037,0,.055,0,.121,0,.244,0,.365v1.6c0,.023,0,.045,0,.068,0,.047-.018-.061,0,.014.006.018.01.035.014.051s.027.072.006.025a.546.546,0,0,0,.035.066c.012.018.064.086.027.043a.932.932,0,0,0,.088.088c-.043-.039,0,0,.012.006s.035.023.055.033.082.031.023.012a.469.469,0,0,0,.049.016.585.585,0,0,1,.063.016c.037.018-.061,0,.014,0,.025,0,.049,0,.074,0,.361,0,.725,0,1.086,0a.3.3,0,0,1,.283.215A6.829,6.829,0,0,0,3.273,13a.3.3,0,0,1-.045.355c-.268.268-.533.539-.8.8-.055.053.016-.033-.025.029l-.029.047c0,.006-.039.086-.018.029-.006.016-.012.033-.018.051s-.008.035-.014.053c-.023.076,0-.049-.006.029a.987.987,0,0,0,0,.107c0,.066-.012-.029.006.029.008.025.014.053.021.078,0,.01.023.049,0,.006.008.016.016.033.025.049s.023.039.037.059c.027.039-.045-.043.016.018l.021.023c.084.088.172.172.258.258l.963.963.139.139.027.027a.224.224,0,0,0,.021.021c.057.059-.037-.018.029.025l.047.029c.006,0,.082.039.029.018l.051.018c.025.008.051.014.078.02-.012,0-.057,0,0,0a.837.837,0,0,0,.121,0c.049,0-.064.018.016,0a.524.524,0,0,0,.053-.014.507.507,0,0,0,.156-.088l.043-.041c.254-.252.508-.508.762-.762a.3.3,0,0,1,.355-.045,7,7,0,0,0,2.059.854.3.3,0,0,1,.215.283c0,.389-.008.775,0,1.162h0a.231.231,0,0,0,.008.039l.018.063c0,.012.021.053,0,0,.01.02.02.039.029.057s.072.1.033.055a.932.932,0,0,0,.088.088c-.047-.041.014.008.021.014a.31.31,0,0,0,.043.025c.01,0,.084.033.023.012A.469.469,0,0,0,8.181,18a.585.585,0,0,1,.063.016c.037.018-.059,0,.014,0l.055,0c.121,0,.244,0,.365,0h1.6c.023,0,.045,0,.068,0,.047,0-.061.018.014,0,.018-.006.035-.01.051-.014s.072-.027.025-.006a.546.546,0,0,0,.066-.035c.018-.012.086-.064.043-.027a.932.932,0,0,0,.088-.088c-.039.043,0,0,.006-.012s.023-.035.033-.055.031-.082.012-.023A.469.469,0,0,0,10.7,17.7a.585.585,0,0,1,.016-.062c.018-.037,0,.061,0-.014,0-.025,0-.049,0-.074,0-.361,0-.725,0-1.086a.3.3,0,0,1,.215-.283,6.843,6.843,0,0,0,2.055-.857.3.3,0,0,1,.355.045c.268.268.539.533.8.8.053.055-.033-.016.029.025l.047.029c.006,0,.086.039.029.018l.051.018c.018.006.035.008.053.014.076.023-.049,0,.029.006a.987.987,0,0,0,.107,0c.066,0-.029.012.029-.006l.078-.021c.01,0,.049-.023.006,0,.016-.008.033-.016.049-.025s.039-.023.059-.037c.039-.027-.043.045.018-.016l.023-.021c.088-.084.172-.172.258-.258l.963-.963.139-.139.027-.027a.222.222,0,0,0,.021-.021c.059-.057-.018.037.025-.029l.029-.047c0-.006.039-.082.018-.029.006-.016.012-.033.018-.051s.014-.051.02-.078c0,.012,0,.057,0,0a.837.837,0,0,0,0-.121c0-.049.018.064,0-.016a.524.524,0,0,0-.014-.053.507.507,0,0,0-.088-.156l-.041-.043c-.252-.254-.508-.508-.762-.762A.3.3,0,0,1,15.317,13a7,7,0,0,0,.854-2.059.3.3,0,0,1,.363-.207Z" transform="translate(0.708 0.7)"/>
      <path id="Vector-2" data-name="Vector" d="M7.208,3.455a.3.3,0,0,1,.293.293,4.193,4.193,0,0,1-.051.6A3.77,3.77,0,0,1,4.512,7.42a3.823,3.823,0,0,1-2.326-.264A3.745,3.745,0,0,1,.011,3.475,3.808,3.808,0,0,1,.876,1.342,3.772,3.772,0,0,1,5.03.223,3.825,3.825,0,0,1,6.813,1.584,3.746,3.746,0,0,1,7.5,3.748a.293.293,0,0,1-.586,0c0-.092,0-.182-.006-.268,0-.045-.01-.09-.014-.135,0-.012-.008-.059,0,0,0-.021-.006-.045-.01-.066a3.385,3.385,0,0,0-.119-.5c-.025-.082-.057-.164-.088-.244s.023.053-.012-.025c-.008-.016-.014-.031-.021-.047-.02-.039-.037-.078-.057-.117a3.524,3.524,0,0,0-.258-.43c-.027-.039-.055-.076-.084-.113.035.045,0,0-.01-.012L6.2,1.741c-.049-.059-.1-.117-.152-.172s-.127-.125-.193-.186c-.027-.027-.057-.051-.086-.076l-.049-.041c-.012-.01-.057-.045-.012-.01A3.106,3.106,0,0,0,5.278.975C5.2.934,5.126.895,5.048.86L5,.838C4.923.8,5.055.858,4.975.827l-.1-.037a3.454,3.454,0,0,0-.5-.145c-.049-.01-.1-.018-.145-.025L4.163.61c.057.008.01,0,0,0-.09-.01-.18-.018-.27-.021a3.444,3.444,0,0,0-.531.02.292.292,0,0,0-.039,0c.033-.006.033-.006,0,0L3.266.62c-.043.006-.088.014-.131.023-.078.016-.154.033-.23.055S2.729.75,2.643.782L2.534.825C2.456.856,2.567.811,2.52.83L2.462.858a3.357,3.357,0,0,0-.449.248c-.072.047-.141.1-.209.148.045-.037-.037.031-.051.041-.029.023-.059.049-.088.074a3.489,3.489,0,0,0-.355.365c-.018.02-.033.039-.049.059-.053.064.02-.027-.01.012s-.047.063-.068.094c-.049.07-.1.143-.141.215s-.086.148-.125.225c-.02.039-.039.078-.057.117-.008.016-.014.031-.021.047-.035.076.014-.033-.006.014A3.507,3.507,0,0,0,.675,3c-.021.09-.039.182-.055.273,0,.021-.006.045-.01.066,0-.012.006-.057,0,0S.6,3.432.6,3.477a3.214,3.214,0,0,0,0,.531c0,.051.008.1.014.148.01.086-.006-.035,0,.016,0,.021.006.045.01.066q.021.117.047.234a3.432,3.432,0,0,0,.158.5C.856,5.051.8,4.918.837,5c.01.02.018.039.027.059.016.035.033.07.051.105.039.076.08.15.125.225s.092.145.141.215c.025.035.051.07.076.1-.037-.047.031.037.041.051a3.32,3.32,0,0,0,.344.359c.037.033.076.066.115.1.016.012.086.068.041.033.068.053.137.1.209.148a3.3,3.3,0,0,0,.438.244c.027.014.055.025.082.037-.01-.006-.051-.021,0,0l.121.047c.074.027.148.051.225.072s.18.047.27.064c.039.008.078.016.117.021l.066.01c.053.008-.07-.008.016,0a3.633,3.633,0,0,0,.545.021c.09,0,.18-.012.27-.021.059-.006.014,0,0,0l.08-.012c.035-.006.07-.012.105-.02a3.464,3.464,0,0,0,.506-.141c.045-.016.088-.033.133-.051S4.921,6.7,5,6.664l.047-.021c.078-.035.154-.074.23-.115a3.658,3.658,0,0,0,.418-.273c.018-.014.014-.012-.008.006l.039-.031L5.762,6.2c.031-.027.064-.055.1-.084.057-.053.113-.105.166-.16s.123-.131.18-.2c.01-.014.076-.1.041-.051l.076-.1a3.42,3.42,0,0,0,.26-.428c.021-.041.043-.084.063-.127.01-.02.02-.039.027-.059.021-.047-.025.064.006-.014s.057-.146.08-.221a3.493,3.493,0,0,0,.125-.512l.012-.08c-.008.059,0,0,0-.016l.012-.121c.006-.092.01-.182.01-.273a.3.3,0,0,1,.291-.293Z" transform="translate(6.247 6.252)"/>
    </g>
  </g>
</svg>
